version 1
nodes
0 "ValveBiped.Bip01_Pelvis" -1
1 "ValveBiped.Bip01_Spine" 0
2 "ValveBiped.Bip01_Spine2" 1
3 "ValveBiped.Bip01_Neck1" 2
4 "ValveBiped.Bip01_Head1" 3
5 "ValveBiped.Bip01_L_UpperArm" 2
6 "ValveBiped.Bip01_L_Forearm" 5
7 "ValveBiped.Bip01_L_Hand" 6
8 "ValveBiped.Bip01_R_UpperArm" 2
9 "ValveBiped.Bip01_R_Forearm" 8
10 "ValveBiped.Bip01_R_Hand" 9
11 "ValveBiped.Bip01_L_Thigh" 0
12 "ValveBiped.Bip01_L_Calf" 11
13 "ValveBiped.Bip01_L_Foot" 12
14 "ValveBiped.Bip01_R_Thigh" 0
15 "ValveBiped.Bip01_R_Calf" 14
16 "ValveBiped.Bip01_R_Foot" 15
end
skeleton
time 0
0 0.000000 0.000000 38.000000 0.000000 0.000000 0.000000
1 0.000000 0.000000 4.000000 0.000000 0.000000 0.000000
2 0.000000 0.000000 10.000000 0.000000 0.000000 0.000000
3 0.000000 0.000000 10.000000 0.000000 0.000000 0.000000
4 0.000000 0.000000 4.000000 0.000000 0.000000 0.000000
5 0.000000 6.000000 8.000000 0.000000 0.000000 1.570796
6 11.000000 0.000000 0.000000 0.000000 0.000000 0.000000
7 10.000000 0.000000 0.000000 0.000000 0.000000 0.000000
8 0.000000 -6.000000 8.000000 0.000000 0.000000 -1.570796
9 11.000000 0.000000 0.000000 0.000000 0.000000 0.000000
10 10.000000 0.000000 0.000000 0.000000 0.000000 0.000000
11 0.000000 4.000000 -2.000000 0.000000 0.000000 0.000000
12 0.000000 0.000000 -17.000000 0.000000 0.000000 0.000000
13 0.000000 0.000000 -17.000000 0.000000 0.000000 0.000000
14 0.000000 -4.000000 -2.000000 0.000000 0.000000 0.000000
15 0.000000 0.000000 -17.000000 0.000000 0.000000 0.000000
16 0.000000 0.000000 -17.000000 0.000000 0.000000 0.000000
end
triangles
mannequin_skin
0 -4.000000 -6.000000 35.000000 0.000000 0.000000 -1.000000 0.000000 0.000000 1 0 1.000000
0 -4.000000 6.000000 35.000000 0.000000 0.000000 -1.000000 1.000000 0.000000 1 0 1.000000
0 4.000000 6.000000 35.000000 0.000000 0.000000 -1.000000 1.000000 1.000000 1 0 1.000000
mannequin_skin
0 -4.000000 -6.000000 35.000000 0.000000 0.000000 -1.000000 0.000000 0.000000 1 0 1.000000
0 4.000000 6.000000 35.000000 0.000000 0.000000 -1.000000 1.000000 1.000000 1 0 1.000000
0 4.000000 -6.000000 35.000000 0.000000 0.000000 -1.000000 0.000000 1.000000 1 0 1.000000
mannequin_skin
0 -4.000000 -6.000000 42.000000 0.000000 0.000000 1.000000 0.000000 0.000000 2 0 0.500000 1 0.500000
0 4.000000 -6.000000 42.000000 0.000000 0.000000 1.000000 1.000000 0.000000 2 0 0.500000 1 0.500000
0 4.000000 6.000000 42.000000 0.000000 0.000000 1.000000 1.000000 1.000000 2 0 0.500000 1 0.500000
mannequin_skin
0 -4.000000 -6.000000 42.000000 0.000000 0.000000 1.000000 0.000000 0.000000 2 0 0.500000 1 0.500000
0 4.000000 6.000000 42.000000 0.000000 0.000000 1.000000 1.000000 1.000000 2 0 0.500000 1 0.500000
0 -4.000000 6.000000 42.000000 0.000000 0.000000 1.000000 0.000000 1.000000 2 0 0.500000 1 0.500000
mannequin_skin
0 -4.000000 -6.000000 35.000000 0.000000 -1.000000 0.000000 0.000000 0.000000 1 0 1.000000
0 4.000000 -6.000000 35.000000 0.000000 -1.000000 0.000000 1.000000 0.000000 1 0 1.000000
0 4.000000 -6.000000 42.000000 0.000000 -1.000000 0.000000 1.000000 1.000000 2 0 0.500000 1 0.500000
mannequin_skin
0 -4.000000 -6.000000 35.000000 0.000000 -1.000000 0.000000 0.000000 0.000000 1 0 1.000000
0 4.000000 -6.000000 42.000000 0.000000 -1.000000 0.000000 1.000000 1.000000 2 0 0.500000 1 0.500000
0 -4.000000 -6.000000 42.000000 0.000000 -1.000000 0.000000 0.000000 1.000000 2 0 0.500000 1 0.500000
mannequin_skin
0 4.000000 -6.000000 35.000000 1.000000 0.000000 0.000000 0.000000 0.000000 1 0 1.000000
0 4.000000 6.000000 35.000000 1.000000 0.000000 0.000000 1.000000 0.000000 1 0 1.000000
0 4.000000 6.000000 42.000000 1.000000 0.000000 0.000000 1.000000 1.000000 2 0 0.500000 1 0.500000
mannequin_skin
0 4.000000 -6.000000 35.000000 1.000000 0.000000 0.000000 0.000000 0.000000 1 0 1.000000
0 4.000000 6.000000 42.000000 1.000000 0.000000 0.000000 1.000000 1.000000 2 0 0.500000 1 0.500000
0 4.000000 -6.000000 42.000000 1.000000 0.000000 0.000000 0.000000 1.000000 2 0 0.500000 1 0.500000
mannequin_skin
0 4.000000 6.000000 35.000000 0.000000 1.000000 0.000000 0.000000 0.000000 1 0 1.000000
0 -4.000000 6.000000 35.000000 0.000000 1.000000 0.000000 1.000000 0.000000 1 0 1.000000
0 -4.000000 6.000000 42.000000 0.000000 1.000000 0.000000 1.000000 1.000000 2 0 0.500000 1 0.500000
mannequin_skin
0 4.000000 6.000000 35.000000 0.000000 1.000000 0.000000 0.000000 0.000000 1 0 1.000000
0 -4.000000 6.000000 42.000000 0.000000 1.000000 0.000000 1.000000 1.000000 2 0 0.500000 1 0.500000
0 4.000000 6.000000 42.000000 0.000000 1.000000 0.000000 0.000000 1.000000 2 0 0.500000 1 0.500000
mannequin_skin
0 -4.000000 6.000000 35.000000 -1.000000 0.000000 0.000000 0.000000 0.000000 1 0 1.000000
0 -4.000000 -6.000000 35.000000 -1.000000 0.000000 0.000000 1.000000 0.000000 1 0 1.000000
0 -4.000000 -6.000000 42.000000 -1.000000 0.000000 0.000000 1.000000 1.000000 2 0 0.500000 1 0.500000
mannequin_skin
0 -4.000000 6.000000 35.000000 -1.000000 0.000000 0.000000 0.000000 0.000000 1 0 1.000000
0 -4.000000 -6.000000 42.000000 -1.000000 0.000000 0.000000 1.000000 1.000000 2 0 0.500000 1 0.500000
0 -4.000000 6.000000 42.000000 -1.000000 0.000000 0.000000 0.000000 1.000000 2 0 0.500000 1 0.500000
mannequin_skin
1 -4.000000 -6.000000 42.000000 0.000000 0.000000 -1.000000 0.000000 0.000000 1 1 1.000000
1 -4.000000 6.000000 42.000000 0.000000 0.000000 -1.000000 1.000000 0.000000 1 1 1.000000
1 4.000000 6.000000 42.000000 0.000000 0.000000 -1.000000 1.000000 1.000000 1 1 1.000000
mannequin_skin
1 -4.000000 -6.000000 42.000000 0.000000 0.000000 -1.000000 0.000000 0.000000 1 1 1.000000
1 4.000000 6.000000 42.000000 0.000000 0.000000 -1.000000 1.000000 1.000000 1 1 1.000000
1 4.000000 -6.000000 42.000000 0.000000 0.000000 -1.000000 0.000000 1.000000 1 1 1.000000
mannequin_skin
1 -4.000000 -6.000000 52.000000 0.000000 0.000000 1.000000 0.000000 0.000000 2 1 0.500000 2 0.500000
1 4.000000 -6.000000 52.000000 0.000000 0.000000 1.000000 1.000000 0.000000 2 1 0.500000 2 0.500000
1 4.000000 6.000000 52.000000 0.000000 0.000000 1.000000 1.000000 1.000000 2 1 0.500000 2 0.500000
mannequin_skin
1 -4.000000 -6.000000 52.000000 0.000000 0.000000 1.000000 0.000000 0.000000 2 1 0.500000 2 0.500000
1 4.000000 6.000000 52.000000 0.000000 0.000000 1.000000 1.000000 1.000000 2 1 0.500000 2 0.500000
1 -4.000000 6.000000 52.000000 0.000000 0.000000 1.000000 0.000000 1.000000 2 1 0.500000 2 0.500000
mannequin_skin
1 -4.000000 -6.000000 42.000000 0.000000 -1.000000 0.000000 0.000000 0.000000 1 1 1.000000
1 4.000000 -6.000000 42.000000 0.000000 -1.000000 0.000000 1.000000 0.000000 1 1 1.000000
1 4.000000 -6.000000 52.000000 0.000000 -1.000000 0.000000 1.000000 1.000000 2 1 0.500000 2 0.500000
mannequin_skin
1 -4.000000 -6.000000 42.000000 0.000000 -1.000000 0.000000 0.000000 0.000000 1 1 1.000000
1 4.000000 -6.000000 52.000000 0.000000 -1.000000 0.000000 1.000000 1.000000 2 1 0.500000 2 0.500000
1 -4.000000 -6.000000 52.000000 0.000000 -1.000000 0.000000 0.000000 1.000000 2 1 0.500000 2 0.500000
mannequin_skin
1 4.000000 -6.000000 42.000000 1.000000 0.000000 0.000000 0.000000 0.000000 1 1 1.000000
1 4.000000 6.000000 42.000000 1.000000 0.000000 0.000000 1.000000 0.000000 1 1 1.000000
1 4.000000 6.000000 52.000000 1.000000 0.000000 0.000000 1.000000 1.000000 2 1 0.500000 2 0.500000
mannequin_skin
1 4.000000 -6.000000 42.000000 1.000000 0.000000 0.000000 0.000000 0.000000 1 1 1.000000
1 4.000000 6.000000 52.000000 1.000000 0.000000 0.000000 1.000000 1.000000 2 1 0.500000 2 0.500000
1 4.000000 -6.000000 52.000000 1.000000 0.000000 0.000000 0.000000 1.000000 2 1 0.500000 2 0.500000
mannequin_skin
1 4.000000 6.000000 42.000000 0.000000 1.000000 0.000000 0.000000 0.000000 1 1 1.000000
1 -4.000000 6.000000 42.000000 0.000000 1.000000 0.000000 1.000000 0.000000 1 1 1.000000
1 -4.000000 6.000000 52.000000 0.000000 1.000000 0.000000 1.000000 1.000000 2 1 0.500000 2 0.500000
mannequin_skin
1 4.000000 6.000000 42.000000 0.000000 1.000000 0.000000 0.000000 0.000000 1 1 1.000000
1 -4.000000 6.000000 52.000000 0.000000 1.000000 0.000000 1.000000 1.000000 2 1 0.500000 2 0.500000
1 4.000000 6.000000 52.000000 0.000000 1.000000 0.000000 0.000000 1.000000 2 1 0.500000 2 0.500000
mannequin_skin
1 -4.000000 6.000000 42.000000 -1.000000 0.000000 0.000000 0.000000 0.000000 1 1 1.000000
1 -4.000000 -6.000000 42.000000 -1.000000 0.000000 0.000000 1.000000 0.000000 1 1 1.000000
1 -4.000000 -6.000000 52.000000 -1.000000 0.000000 0.000000 1.000000 1.000000 2 1 0.500000 2 0.500000
mannequin_skin
1 -4.000000 6.000000 42.000000 -1.000000 0.000000 0.000000 0.000000 0.000000 1 1 1.000000
1 -4.000000 -6.000000 52.000000 -1.000000 0.000000 0.000000 1.000000 1.000000 2 1 0.500000 2 0.500000
1 -4.000000 6.000000 52.000000 -1.000000 0.000000 0.000000 0.000000 1.000000 2 1 0.500000 2 0.500000
mannequin_skin
2 -4.000000 -7.000000 52.000000 0.000000 0.000000 -1.000000 0.000000 0.000000 1 2 1.000000
2 -4.000000 7.000000 52.000000 0.000000 0.000000 -1.000000 1.000000 0.000000 1 2 1.000000
2 4.000000 7.000000 52.000000 0.000000 0.000000 -1.000000 1.000000 1.000000 1 2 1.000000
mannequin_skin
2 -4.000000 -7.000000 52.000000 0.000000 0.000000 -1.000000 0.000000 0.000000 1 2 1.000000
2 4.000000 7.000000 52.000000 0.000000 0.000000 -1.000000 1.000000 1.000000 1 2 1.000000
2 4.000000 -7.000000 52.000000 0.000000 0.000000 -1.000000 0.000000 1.000000 1 2 1.000000
mannequin_skin
2 -4.000000 -7.000000 62.000000 0.000000 0.000000 1.000000 0.000000 0.000000 2 2 0.500000 3 0.500000
2 4.000000 -7.000000 62.000000 0.000000 0.000000 1.000000 1.000000 0.000000 2 2 0.500000 3 0.500000
2 4.000000 7.000000 62.000000 0.000000 0.000000 1.000000 1.000000 1.000000 2 2 0.500000 3 0.500000
mannequin_skin
2 -4.000000 -7.000000 62.000000 0.000000 0.000000 1.000000 0.000000 0.000000 2 2 0.500000 3 0.500000
2 4.000000 7.000000 62.000000 0.000000 0.000000 1.000000 1.000000 1.000000 2 2 0.500000 3 0.500000
2 -4.000000 7.000000 62.000000 0.000000 0.000000 1.000000 0.000000 1.000000 2 2 0.500000 3 0.500000
mannequin_skin
2 -4.000000 -7.000000 52.000000 0.000000 -1.000000 0.000000 0.000000 0.000000 1 2 1.000000
2 4.000000 -7.000000 52.000000 0.000000 -1.000000 0.000000 1.000000 0.000000 1 2 1.000000
2 4.000000 -7.000000 62.000000 0.000000 -1.000000 0.000000 1.000000 1.000000 2 2 0.500000 3 0.500000
mannequin_skin
2 -4.000000 -7.000000 52.000000 0.000000 -1.000000 0.000000 0.000000 0.000000 1 2 1.000000
2 4.000000 -7.000000 62.000000 0.000000 -1.000000 0.000000 1.000000 1.000000 2 2 0.500000 3 0.500000
2 -4.000000 -7.000000 62.000000 0.000000 -1.000000 0.000000 0.000000 1.000000 2 2 0.500000 3 0.500000
mannequin_skin
2 4.000000 -7.000000 52.000000 1.000000 0.000000 0.000000 0.000000 0.000000 1 2 1.000000
2 4.000000 7.000000 52.000000 1.000000 0.000000 0.000000 1.000000 0.000000 1 2 1.000000
2 4.000000 7.000000 62.000000 1.000000 0.000000 0.000000 1.000000 1.000000 2 2 0.500000 3 0.500000
mannequin_skin
2 4.000000 -7.000000 52.000000 1.000000 0.000000 0.000000 0.000000 0.000000 1 2 1.000000
2 4.000000 7.000000 62.000000 1.000000 0.000000 0.000000 1.000000 1.000000 2 2 0.500000 3 0.500000
2 4.000000 -7.000000 62.000000 1.000000 0.000000 0.000000 0.000000 1.000000 2 2 0.500000 3 0.500000
mannequin_skin
2 4.000000 7.000000 52.000000 0.000000 1.000000 0.000000 0.000000 0.000000 1 2 1.000000
2 -4.000000 7.000000 52.000000 0.000000 1.000000 0.000000 1.000000 0.000000 1 2 1.000000
2 -4.000000 7.000000 62.000000 0.000000 1.000000 0.000000 1.000000 1.000000 2 2 0.500000 3 0.500000
mannequin_skin
2 4.000000 7.000000 52.000000 0.000000 1.000000 0.000000 0.000000 0.000000 1 2 1.000000
2 -4.000000 7.000000 62.000000 0.000000 1.000000 0.000000 1.000000 1.000000 2 2 0.500000 3 0.500000
2 4.000000 7.000000 62.000000 0.000000 1.000000 0.000000 0.000000 1.000000 2 2 0.500000 3 0.500000
mannequin_skin
2 -4.000000 7.000000 52.000000 -1.000000 0.000000 0.000000 0.000000 0.000000 1 2 1.000000
2 -4.000000 -7.000000 52.000000 -1.000000 0.000000 0.000000 1.000000 0.000000 1 2 1.000000
2 -4.000000 -7.000000 62.000000 -1.000000 0.000000 0.000000 1.000000 1.000000 2 2 0.500000 3 0.500000
mannequin_skin
2 -4.000000 7.000000 52.000000 -1.000000 0.000000 0.000000 0.000000 0.000000 1 2 1.000000
2 -4.000000 -7.000000 62.000000 -1.000000 0.000000 0.000000 1.000000 1.000000 2 2 0.500000 3 0.500000
2 -4.000000 7.000000 62.000000 -1.000000 0.000000 0.000000 0.000000 1.000000 2 2 0.500000 3 0.500000
mannequin_skin
3 -2.000000 -2.000000 62.000000 0.000000 0.000000 -1.000000 0.000000 0.000000 1 3 1.000000
3 -2.000000 2.000000 62.000000 0.000000 0.000000 -1.000000 1.000000 0.000000 1 3 1.000000
3 2.000000 2.000000 62.000000 0.000000 0.000000 -1.000000 1.000000 1.000000 1 3 1.000000
mannequin_skin
3 -2.000000 -2.000000 62.000000 0.000000 0.000000 -1.000000 0.000000 0.000000 1 3 1.000000
3 2.000000 2.000000 62.000000 0.000000 0.000000 -1.000000 1.000000 1.000000 1 3 1.000000
3 2.000000 -2.000000 62.000000 0.000000 0.000000 -1.000000 0.000000 1.000000 1 3 1.000000
mannequin_skin
3 -2.000000 -2.000000 66.000000 0.000000 0.000000 1.000000 0.000000 0.000000 1 3 1.000000
3 2.000000 -2.000000 66.000000 0.000000 0.000000 1.000000 1.000000 0.000000 1 3 1.000000
3 2.000000 2.000000 66.000000 0.000000 0.000000 1.000000 1.000000 1.000000 1 3 1.000000
mannequin_skin
3 -2.000000 -2.000000 66.000000 0.000000 0.000000 1.000000 0.000000 0.000000 1 3 1.000000
3 2.000000 2.000000 66.000000 0.000000 0.000000 1.000000 1.000000 1.000000 1 3 1.000000
3 -2.000000 2.000000 66.000000 0.000000 0.000000 1.000000 0.000000 1.000000 1 3 1.000000
mannequin_skin
3 -2.000000 -2.000000 62.000000 0.000000 -1.000000 0.000000 0.000000 0.000000 1 3 1.000000
3 2.000000 -2.000000 62.000000 0.000000 -1.000000 0.000000 1.000000 0.000000 1 3 1.000000
3 2.000000 -2.000000 66.000000 0.000000 -1.000000 0.000000 1.000000 1.000000 1 3 1.000000
mannequin_skin
3 -2.000000 -2.000000 62.000000 0.000000 -1.000000 0.000000 0.000000 0.000000 1 3 1.000000
3 2.000000 -2.000000 66.000000 0.000000 -1.000000 0.000000 1.000000 1.000000 1 3 1.000000
3 -2.000000 -2.000000 66.000000 0.000000 -1.000000 0.000000 0.000000 1.000000 1 3 1.000000
mannequin_skin
3 2.000000 -2.000000 62.000000 1.000000 0.000000 0.000000 0.000000 0.000000 1 3 1.000000
3 2.000000 2.000000 62.000000 1.000000 0.000000 0.000000 1.000000 0.000000 1 3 1.000000
3 2.000000 2.000000 66.000000 1.000000 0.000000 0.000000 1.000000 1.000000 1 3 1.000000
mannequin_skin
3 2.000000 -2.000000 62.000000 1.000000 0.000000 0.000000 0.000000 0.000000 1 3 1.000000
3 2.000000 2.000000 66.000000 1.000000 0.000000 0.000000 1.000000 1.000000 1 3 1.000000
3 2.000000 -2.000000 66.000000 1.000000 0.000000 0.000000 0.000000 1.000000 1 3 1.000000
mannequin_skin
3 2.000000 2.000000 62.000000 0.000000 1.000000 0.000000 0.000000 0.000000 1 3 1.000000
3 -2.000000 2.000000 62.000000 0.000000 1.000000 0.000000 1.000000 0.000000 1 3 1.000000
3 -2.000000 2.000000 66.000000 0.000000 1.000000 0.000000 1.000000 1.000000 1 3 1.000000
mannequin_skin
3 2.000000 2.000000 62.000000 0.000000 1.000000 0.000000 0.000000 0.000000 1 3 1.000000
3 -2.000000 2.000000 66.000000 0.000000 1.000000 0.000000 1.000000 1.000000 1 3 1.000000
3 2.000000 2.000000 66.000000 0.000000 1.000000 0.000000 0.000000 1.000000 1 3 1.000000
mannequin_skin
3 -2.000000 2.000000 62.000000 -1.000000 0.000000 0.000000 0.000000 0.000000 1 3 1.000000
3 -2.000000 -2.000000 62.000000 -1.000000 0.000000 0.000000 1.000000 0.000000 1 3 1.000000
3 -2.000000 -2.000000 66.000000 -1.000000 0.000000 0.000000 1.000000 1.000000 1 3 1.000000
mannequin_skin
3 -2.000000 2.000000 62.000000 -1.000000 0.000000 0.000000 0.000000 0.000000 1 3 1.000000
3 -2.000000 -2.000000 66.000000 -1.000000 0.000000 0.000000 1.000000 1.000000 1 3 1.000000
3 -2.000000 2.000000 66.000000 -1.000000 0.000000 0.000000 0.000000 1.000000 1 3 1.000000
mannequin_skin
5 2.000000 6.000000 58.000000 0.000000 0.000000 -1.000000 0.000000 0.000000 1 5 1.000000
5 -2.000000 6.000000 58.000000 0.000000 0.000000 -1.000000 1.000000 0.000000 1 5 1.000000
5 -2.000000 17.000000 58.000000 0.000000 0.000000 -1.000000 1.000000 1.000000 2 5 0.500000 6 0.500000
mannequin_skin
5 2.000000 6.000000 58.000000 0.000000 0.000000 -1.000000 0.000000 0.000000 1 5 1.000000
5 -2.000000 17.000000 58.000000 0.000000 0.000000 -1.000000 1.000000 1.000000 2 5 0.500000 6 0.500000
5 2.000000 17.000000 58.000000 0.000000 0.000000 -1.000000 0.000000 1.000000 2 5 0.500000 6 0.500000
mannequin_skin
5 2.000000 6.000000 62.000000 0.000000 0.000000 1.000000 0.000000 0.000000 1 5 1.000000
5 2.000000 17.000000 62.000000 0.000000 0.000000 1.000000 1.000000 0.000000 2 5 0.500000 6 0.500000
5 -2.000000 17.000000 62.000000 0.000000 0.000000 1.000000 1.000000 1.000000 2 5 0.500000 6 0.500000
mannequin_skin
5 2.000000 6.000000 62.000000 0.000000 0.000000 1.000000 0.000000 0.000000 1 5 1.000000
5 -2.000000 17.000000 62.000000 0.000000 0.000000 1.000000 1.000000 1.000000 2 5 0.500000 6 0.500000
5 -2.000000 6.000000 62.000000 0.000000 0.000000 1.000000 0.000000 1.000000 1 5 1.000000
mannequin_skin
5 2.000000 6.000000 58.000000 1.000000 -0.000000 0.000000 0.000000 0.000000 1 5 1.000000
5 2.000000 17.000000 58.000000 1.000000 -0.000000 0.000000 1.000000 0.000000 2 5 0.500000 6 0.500000
5 2.000000 17.000000 62.000000 1.000000 -0.000000 0.000000 1.000000 1.000000 2 5 0.500000 6 0.500000
mannequin_skin
5 2.000000 6.000000 58.000000 1.000000 -0.000000 0.000000 0.000000 0.000000 1 5 1.000000
5 2.000000 17.000000 62.000000 1.000000 -0.000000 0.000000 1.000000 1.000000 2 5 0.500000 6 0.500000
5 2.000000 6.000000 62.000000 1.000000 -0.000000 0.000000 0.000000 1.000000 1 5 1.000000
mannequin_skin
5 2.000000 17.000000 58.000000 0.000000 1.000000 0.000000 0.000000 0.000000 2 5 0.500000 6 0.500000
5 -2.000000 17.000000 58.000000 0.000000 1.000000 0.000000 1.000000 0.000000 2 5 0.500000 6 0.500000
5 -2.000000 17.000000 62.000000 0.000000 1.000000 0.000000 1.000000 1.000000 2 5 0.500000 6 0.500000
mannequin_skin
5 2.000000 17.000000 58.000000 0.000000 1.000000 0.000000 0.000000 0.000000 2 5 0.500000 6 0.500000
5 -2.000000 17.000000 62.000000 0.000000 1.000000 0.000000 1.000000 1.000000 2 5 0.500000 6 0.500000
5 2.000000 17.000000 62.000000 0.000000 1.000000 0.000000 0.000000 1.000000 2 5 0.500000 6 0.500000
mannequin_skin
5 -2.000000 17.000000 58.000000 -1.000000 0.000000 0.000000 0.000000 0.000000 2 5 0.500000 6 0.500000
5 -2.000000 6.000000 58.000000 -1.000000 0.000000 0.000000 1.000000 0.000000 1 5 1.000000
5 -2.000000 6.000000 62.000000 -1.000000 0.000000 0.000000 1.000000 1.000000 1 5 1.000000
mannequin_skin
5 -2.000000 17.000000 58.000000 -1.000000 0.000000 0.000000 0.000000 0.000000 2 5 0.500000 6 0.500000
5 -2.000000 6.000000 62.000000 -1.000000 0.000000 0.000000 1.000000 1.000000 1 5 1.000000
5 -2.000000 17.000000 62.000000 -1.000000 0.000000 0.000000 0.000000 1.000000 2 5 0.500000 6 0.500000
mannequin_skin
5 -2.000000 6.000000 58.000000 -0.000000 -1.000000 0.000000 0.000000 0.000000 1 5 1.000000
5 2.000000 6.000000 58.000000 -0.000000 -1.000000 0.000000 1.000000 0.000000 1 5 1.000000
5 2.000000 6.000000 62.000000 -0.000000 -1.000000 0.000000 1.000000 1.000000 1 5 1.000000
mannequin_skin
5 -2.000000 6.000000 58.000000 -0.000000 -1.000000 0.000000 0.000000 0.000000 1 5 1.000000
5 2.000000 6.000000 62.000000 -0.000000 -1.000000 0.000000 1.000000 1.000000 1 5 1.000000
5 -2.000000 6.000000 62.000000 -0.000000 -1.000000 0.000000 0.000000 1.000000 1 5 1.000000
mannequin_skin
6 1.500000 17.000000 58.500000 0.000000 0.000000 -1.000000 0.000000 0.000000 1 6 1.000000
6 -1.500000 17.000000 58.500000 0.000000 0.000000 -1.000000 1.000000 0.000000 1 6 1.000000
6 -1.500000 27.000000 58.500000 0.000000 0.000000 -1.000000 1.000000 1.000000 2 6 0.500000 7 0.500000
mannequin_skin
6 1.500000 17.000000 58.500000 0.000000 0.000000 -1.000000 0.000000 0.000000 1 6 1.000000
6 -1.500000 27.000000 58.500000 0.000000 0.000000 -1.000000 1.000000 1.000000 2 6 0.500000 7 0.500000
6 1.500000 27.000000 58.500000 0.000000 0.000000 -1.000000 0.000000 1.000000 2 6 0.500000 7 0.500000
mannequin_skin
6 1.500000 17.000000 61.500000 0.000000 0.000000 1.000000 0.000000 0.000000 1 6 1.000000
6 1.500000 27.000000 61.500000 0.000000 0.000000 1.000000 1.000000 0.000000 2 6 0.500000 7 0.500000
6 -1.500000 27.000000 61.500000 0.000000 0.000000 1.000000 1.000000 1.000000 2 6 0.500000 7 0.500000
mannequin_skin
6 1.500000 17.000000 61.500000 0.000000 0.000000 1.000000 0.000000 0.000000 1 6 1.000000
6 -1.500000 27.000000 61.500000 0.000000 0.000000 1.000000 1.000000 1.000000 2 6 0.500000 7 0.500000
6 -1.500000 17.000000 61.500000 0.000000 0.000000 1.000000 0.000000 1.000000 1 6 1.000000
mannequin_skin
6 1.500000 17.000000 58.500000 1.000000 -0.000000 0.000000 0.000000 0.000000 1 6 1.000000
6 1.500000 27.000000 58.500000 1.000000 -0.000000 0.000000 1.000000 0.000000 2 6 0.500000 7 0.500000
6 1.500000 27.000000 61.500000 1.000000 -0.000000 0.000000 1.000000 1.000000 2 6 0.500000 7 0.500000
mannequin_skin
6 1.500000 17.000000 58.500000 1.000000 -0.000000 0.000000 0.000000 0.000000 1 6 1.000000
6 1.500000 27.000000 61.500000 1.000000 -0.000000 0.000000 1.000000 1.000000 2 6 0.500000 7 0.500000
6 1.500000 17.000000 61.500000 1.000000 -0.000000 0.000000 0.000000 1.000000 1 6 1.000000
mannequin_skin
6 1.500000 27.000000 58.500000 0.000000 1.000000 0.000000 0.000000 0.000000 2 6 0.500000 7 0.500000
6 -1.500000 27.000000 58.500000 0.000000 1.000000 0.000000 1.000000 0.000000 2 6 0.500000 7 0.500000
6 -1.500000 27.000000 61.500000 0.000000 1.000000 0.000000 1.000000 1.000000 2 6 0.500000 7 0.500000
mannequin_skin
6 1.500000 27.000000 58.500000 0.000000 1.000000 0.000000 0.000000 0.000000 2 6 0.500000 7 0.500000
6 -1.500000 27.000000 61.500000 0.000000 1.000000 0.000000 1.000000 1.000000 2 6 0.500000 7 0.500000
6 1.500000 27.000000 61.500000 0.000000 1.000000 0.000000 0.000000 1.000000 2 6 0.500000 7 0.500000
mannequin_skin
6 -1.500000 27.000000 58.500000 -1.000000 0.000000 0.000000 0.000000 0.000000 2 6 0.500000 7 0.500000
6 -1.500000 17.000000 58.500000 -1.000000 0.000000 0.000000 1.000000 0.000000 1 6 1.000000
6 -1.500000 17.000000 61.500000 -1.000000 0.000000 0.000000 1.000000 1.000000 1 6 1.000000
mannequin_skin
6 -1.500000 27.000000 58.500000 -1.000000 0.000000 0.000000 0.000000 0.000000 2 6 0.500000 7 0.500000
6 -1.500000 17.000000 61.500000 -1.000000 0.000000 0.000000 1.000000 1.000000 1 6 1.000000
6 -1.500000 27.000000 61.500000 -1.000000 0.000000 0.000000 0.000000 1.000000 2 6 0.500000 7 0.500000
mannequin_skin
6 -1.500000 17.000000 58.500000 -0.000000 -1.000000 0.000000 0.000000 0.000000 1 6 1.000000
6 1.500000 17.000000 58.500000 -0.000000 -1.000000 0.000000 1.000000 0.000000 1 6 1.000000
6 1.500000 17.000000 61.500000 -0.000000 -1.000000 0.000000 1.000000 1.000000 1 6 1.000000
mannequin_skin
6 -1.500000 17.000000 58.500000 -0.000000 -1.000000 0.000000 0.000000 0.000000 1 6 1.000000
6 1.500000 17.000000 61.500000 -0.000000 -1.000000 0.000000 1.000000 1.000000 1 6 1.000000
6 -1.500000 17.000000 61.500000 -0.000000 -1.000000 0.000000 0.000000 1.000000 1 6 1.000000
mannequin_skin
7 2.000000 27.000000 59.000000 0.000000 0.000000 -1.000000 0.000000 0.000000 1 7 1.000000
7 -2.000000 27.000000 59.000000 0.000000 0.000000 -1.000000 1.000000 0.000000 1 7 1.000000
7 -2.000000 31.000000 59.000000 0.000000 0.000000 -1.000000 1.000000 1.000000 1 7 1.000000
mannequin_skin
7 2.000000 27.000000 59.000000 0.000000 0.000000 -1.000000 0.000000 0.000000 1 7 1.000000
7 -2.000000 31.000000 59.000000 0.000000 0.000000 -1.000000 1.000000 1.000000 1 7 1.000000
7 2.000000 31.000000 59.000000 0.000000 0.000000 -1.000000 0.000000 1.000000 1 7 1.000000
mannequin_skin
7 2.000000 27.000000 61.000000 0.000000 0.000000 1.000000 0.000000 0.000000 1 7 1.000000
7 2.000000 31.000000 61.000000 0.000000 0.000000 1.000000 1.000000 0.000000 1 7 1.000000
7 -2.000000 31.000000 61.000000 0.000000 0.000000 1.000000 1.000000 1.000000 1 7 1.000000
mannequin_skin
7 2.000000 27.000000 61.000000 0.000000 0.000000 1.000000 0.000000 0.000000 1 7 1.000000
7 -2.000000 31.000000 61.000000 0.000000 0.000000 1.000000 1.000000 1.000000 1 7 1.000000
7 -2.000000 27.000000 61.000000 0.000000 0.000000 1.000000 0.000000 1.000000 1 7 1.000000
mannequin_skin
7 2.000000 27.000000 59.000000 1.000000 -0.000000 0.000000 0.000000 0.000000 1 7 1.000000
7 2.000000 31.000000 59.000000 1.000000 -0.000000 0.000000 1.000000 0.000000 1 7 1.000000
7 2.000000 31.000000 61.000000 1.000000 -0.000000 0.000000 1.000000 1.000000 1 7 1.000000
mannequin_skin
7 2.000000 27.000000 59.000000 1.000000 -0.000000 0.000000 0.000000 0.000000 1 7 1.000000
7 2.000000 31.000000 61.000000 1.000000 -0.000000 0.000000 1.000000 1.000000 1 7 1.000000
7 2.000000 27.000000 61.000000 1.000000 -0.000000 0.000000 0.000000 1.000000 1 7 1.000000
mannequin_skin
7 2.000000 31.000000 59.000000 0.000000 1.000000 0.000000 0.000000 0.000000 1 7 1.000000
7 -2.000000 31.000000 59.000000 0.000000 1.000000 0.000000 1.000000 0.000000 1 7 1.000000
7 -2.000000 31.000000 61.000000 0.000000 1.000000 0.000000 1.000000 1.000000 1 7 1.000000
mannequin_skin
7 2.000000 31.000000 59.000000 0.000000 1.000000 0.000000 0.000000 0.000000 1 7 1.000000
7 -2.000000 31.000000 61.000000 0.000000 1.000000 0.000000 1.000000 1.000000 1 7 1.000000
7 2.000000 31.000000 61.000000 0.000000 1.000000 0.000000 0.000000 1.000000 1 7 1.000000
mannequin_skin
7 -2.000000 31.000000 59.000000 -1.000000 0.000000 0.000000 0.000000 0.000000 1 7 1.000000
7 -2.000000 27.000000 59.000000 -1.000000 0.000000 0.000000 1.000000 0.000000 1 7 1.000000
7 -2.000000 27.000000 61.000000 -1.000000 0.000000 0.000000 1.000000 1.000000 1 7 1.000000
mannequin_skin
7 -2.000000 31.000000 59.000000 -1.000000 0.000000 0.000000 0.000000 0.000000 1 7 1.000000
7 -2.000000 27.000000 61.000000 -1.000000 0.000000 0.000000 1.000000 1.000000 1 7 1.000000
7 -2.000000 31.000000 61.000000 -1.000000 0.000000 0.000000 0.000000 1.000000 1 7 1.000000
mannequin_skin
7 -2.000000 27.000000 59.000000 -0.000000 -1.000000 0.000000 0.000000 0.000000 1 7 1.000000
7 2.000000 27.000000 59.000000 -0.000000 -1.000000 0.000000 1.000000 0.000000 1 7 1.000000
7 2.000000 27.000000 61.000000 -0.000000 -1.000000 0.000000 1.000000 1.000000 1 7 1.000000
mannequin_skin
7 -2.000000 27.000000 59.000000 -0.000000 -1.000000 0.000000 0.000000 0.000000 1 7 1.000000
7 2.000000 27.000000 61.000000 -0.000000 -1.000000 0.000000 1.000000 1.000000 1 7 1.000000
7 -2.000000 27.000000 61.000000 -0.000000 -1.000000 0.000000 0.000000 1.000000 1 7 1.000000
mannequin_skin
11 -2.500000 1.500000 19.000000 0.000000 0.000000 -1.000000 0.000000 0.000000 2 11 0.500000 12 0.500000
11 -2.500000 6.500000 19.000000 0.000000 0.000000 -1.000000 1.000000 0.000000 2 11 0.500000 12 0.500000
11 2.500000 6.500000 19.000000 0.000000 0.000000 -1.000000 1.000000 1.000000 2 11 0.500000 12 0.500000
mannequin_skin
11 -2.500000 1.500000 19.000000 0.000000 0.000000 -1.000000 0.000000 0.000000 2 11 0.500000 12 0.500000
11 2.500000 6.500000 19.000000 0.000000 0.000000 -1.000000 1.000000 1.000000 2 11 0.500000 12 0.500000
11 2.500000 1.500000 19.000000 0.000000 0.000000 -1.000000 0.000000 1.000000 2 11 0.500000 12 0.500000
mannequin_skin
11 -2.500000 1.500000 36.000000 0.000000 0.000000 1.000000 0.000000 0.000000 1 11 1.000000
11 2.500000 1.500000 36.000000 0.000000 0.000000 1.000000 1.000000 0.000000 1 11 1.000000
11 2.500000 6.500000 36.000000 0.000000 0.000000 1.000000 1.000000 1.000000 1 11 1.000000
mannequin_skin
11 -2.500000 1.500000 36.000000 0.000000 0.000000 1.000000 0.000000 0.000000 1 11 1.000000
11 2.500000 6.500000 36.000000 0.000000 0.000000 1.000000 1.000000 1.000000 1 11 1.000000
11 -2.500000 6.500000 36.000000 0.000000 0.000000 1.000000 0.000000 1.000000 1 11 1.000000
mannequin_skin
11 -2.500000 1.500000 19.000000 0.000000 -1.000000 0.000000 0.000000 0.000000 2 11 0.500000 12 0.500000
11 2.500000 1.500000 19.000000 0.000000 -1.000000 0.000000 1.000000 0.000000 2 11 0.500000 12 0.500000
11 2.500000 1.500000 36.000000 0.000000 -1.000000 0.000000 1.000000 1.000000 1 11 1.000000
mannequin_skin
11 -2.500000 1.500000 19.000000 0.000000 -1.000000 0.000000 0.000000 0.000000 2 11 0.500000 12 0.500000
11 2.500000 1.500000 36.000000 0.000000 -1.000000 0.000000 1.000000 1.000000 1 11 1.000000
11 -2.500000 1.500000 36.000000 0.000000 -1.000000 0.000000 0.000000 1.000000 1 11 1.000000
mannequin_skin
11 2.500000 1.500000 19.000000 1.000000 0.000000 0.000000 0.000000 0.000000 2 11 0.500000 12 0.500000
11 2.500000 6.500000 19.000000 1.000000 0.000000 0.000000 1.000000 0.000000 2 11 0.500000 12 0.500000
11 2.500000 6.500000 36.000000 1.000000 0.000000 0.000000 1.000000 1.000000 1 11 1.000000
mannequin_skin
11 2.500000 1.500000 19.000000 1.000000 0.000000 0.000000 0.000000 0.000000 2 11 0.500000 12 0.500000
11 2.500000 6.500000 36.000000 1.000000 0.000000 0.000000 1.000000 1.000000 1 11 1.000000
11 2.500000 1.500000 36.000000 1.000000 0.000000 0.000000 0.000000 1.000000 1 11 1.000000
mannequin_skin
11 2.500000 6.500000 19.000000 0.000000 1.000000 0.000000 0.000000 0.000000 2 11 0.500000 12 0.500000
11 -2.500000 6.500000 19.000000 0.000000 1.000000 0.000000 1.000000 0.000000 2 11 0.500000 12 0.500000
11 -2.500000 6.500000 36.000000 0.000000 1.000000 0.000000 1.000000 1.000000 1 11 1.000000
mannequin_skin
11 2.500000 6.500000 19.000000 0.000000 1.000000 0.000000 0.000000 0.000000 2 11 0.500000 12 0.500000
11 -2.500000 6.500000 36.000000 0.000000 1.000000 0.000000 1.000000 1.000000 1 11 1.000000
11 2.500000 6.500000 36.000000 0.000000 1.000000 0.000000 0.000000 1.000000 1 11 1.000000
mannequin_skin
11 -2.500000 6.500000 19.000000 -1.000000 0.000000 0.000000 0.000000 0.000000 2 11 0.500000 12 0.500000
11 -2.500000 1.500000 19.000000 -1.000000 0.000000 0.000000 1.000000 0.000000 2 11 0.500000 12 0.500000
11 -2.500000 1.500000 36.000000 -1.000000 0.000000 0.000000 1.000000 1.000000 1 11 1.000000
mannequin_skin
11 -2.500000 6.500000 19.000000 -1.000000 0.000000 0.000000 0.000000 0.000000 2 11 0.500000 12 0.500000
11 -2.500000 1.500000 36.000000 -1.000000 0.000000 0.000000 1.000000 1.000000 1 11 1.000000
11 -2.500000 6.500000 36.000000 -1.000000 0.000000 0.000000 0.000000 1.000000 1 11 1.000000
mannequin_skin
12 -2.000000 2.000000 2.000000 0.000000 0.000000 -1.000000 0.000000 0.000000 2 12 0.500000 13 0.500000
12 -2.000000 6.000000 2.000000 0.000000 0.000000 -1.000000 1.000000 0.000000 2 12 0.500000 13 0.500000
12 2.000000 6.000000 2.000000 0.000000 0.000000 -1.000000 1.000000 1.000000 2 12 0.500000 13 0.500000
mannequin_skin
12 -2.000000 2.000000 2.000000 0.000000 0.000000 -1.000000 0.000000 0.000000 2 12 0.500000 13 0.500000
12 2.000000 6.000000 2.000000 0.000000 0.000000 -1.000000 1.000000 1.000000 2 12 0.500000 13 0.500000
12 2.000000 2.000000 2.000000 0.000000 0.000000 -1.000000 0.000000 1.000000 2 12 0.500000 13 0.500000
mannequin_skin
12 -2.000000 2.000000 19.000000 0.000000 0.000000 1.000000 0.000000 0.000000 1 12 1.000000
12 2.000000 2.000000 19.000000 0.000000 0.000000 1.000000 1.000000 0.000000 1 12 1.000000
12 2.000000 6.000000 19.000000 0.000000 0.000000 1.000000 1.000000 1.000000 1 12 1.000000
mannequin_skin
12 -2.000000 2.000000 19.000000 0.000000 0.000000 1.000000 0.000000 0.000000 1 12 1.000000
12 2.000000 6.000000 19.000000 0.000000 0.000000 1.000000 1.000000 1.000000 1 12 1.000000
12 -2.000000 6.000000 19.000000 0.000000 0.000000 1.000000 0.000000 1.000000 1 12 1.000000
mannequin_skin
12 -2.000000 2.000000 2.000000 0.000000 -1.000000 0.000000 0.000000 0.000000 2 12 0.500000 13 0.500000
12 2.000000 2.000000 2.000000 0.000000 -1.000000 0.000000 1.000000 0.000000 2 12 0.500000 13 0.500000
12 2.000000 2.000000 19.000000 0.000000 -1.000000 0.000000 1.000000 1.000000 1 12 1.000000
mannequin_skin
12 -2.000000 2.000000 2.000000 0.000000 -1.000000 0.000000 0.000000 0.000000 2 12 0.500000 13 0.500000
12 2.000000 2.000000 19.000000 0.000000 -1.000000 0.000000 1.000000 1.000000 1 12 1.000000
12 -2.000000 2.000000 19.000000 0.000000 -1.000000 0.000000 0.000000 1.000000 1 12 1.000000
mannequin_skin
12 2.000000 2.000000 2.000000 1.000000 0.000000 0.000000 0.000000 0.000000 2 12 0.500000 13 0.500000
12 2.000000 6.000000 2.000000 1.000000 0.000000 0.000000 1.000000 0.000000 2 12 0.500000 13 0.500000
12 2.000000 6.000000 19.000000 1.000000 0.000000 0.000000 1.000000 1.000000 1 12 1.000000
mannequin_skin
12 2.000000 2.000000 2.000000 1.000000 0.000000 0.000000 0.000000 0.000000 2 12 0.500000 13 0.500000
12 2.000000 6.000000 19.000000 1.000000 0.000000 0.000000 1.000000 1.000000 1 12 1.000000
12 2.000000 2.000000 19.000000 1.000000 0.000000 0.000000 0.000000 1.000000 1 12 1.000000
mannequin_skin
12 2.000000 6.000000 2.000000 0.000000 1.000000 0.000000 0.000000 0.000000 2 12 0.500000 13 0.500000
12 -2.000000 6.000000 2.000000 0.000000 1.000000 0.000000 1.000000 0.000000 2 12 0.500000 13 0.500000
12 -2.000000 6.000000 19.000000 0.000000 1.000000 0.000000 1.000000 1.000000 1 12 1.000000
mannequin_skin
12 2.000000 6.000000 2.000000 0.000000 1.000000 0.000000 0.000000 0.000000 2 12 0.500000 13 0.500000
12 -2.000000 6.000000 19.000000 0.000000 1.000000 0.000000 1.000000 1.000000 1 12 1.000000
12 2.000000 6.000000 19.000000 0.000000 1.000000 0.000000 0.000000 1.000000 1 12 1.000000
mannequin_skin
12 -2.000000 6.000000 2.000000 -1.000000 0.000000 0.000000 0.000000 0.000000 2 12 0.500000 13 0.500000
12 -2.000000 2.000000 2.000000 -1.000000 0.000000 0.000000 1.000000 0.000000 2 12 0.500000 13 0.500000
12 -2.000000 2.000000 19.000000 -1.000000 0.000000 0.000000 1.000000 1.000000 1 12 1.000000
mannequin_skin
12 -2.000000 6.000000 2.000000 -1.000000 0.000000 0.000000 0.000000 0.000000 2 12 0.500000 13 0.500000
12 -2.000000 2.000000 19.000000 -1.000000 0.000000 0.000000 1.000000 1.000000 1 12 1.000000
12 -2.000000 6.000000 19.000000 -1.000000 0.000000 0.000000 0.000000 1.000000 1 12 1.000000
mannequin_skin
13 -2.000000 2.000000 -1.000000 0.000000 0.000000 -1.000000 0.000000 0.000000 1 13 1.000000
13 -2.000000 6.000000 -1.000000 0.000000 0.000000 -1.000000 1.000000 0.000000 1 13 1.000000
13 6.000000 6.000000 -1.000000 0.000000 0.000000 -1.000000 1.000000 1.000000 1 13 1.000000
mannequin_skin
13 -2.000000 2.000000 -1.000000 0.000000 0.000000 -1.000000 0.000000 0.000000 1 13 1.000000
13 6.000000 6.000000 -1.000000 0.000000 0.000000 -1.000000 1.000000 1.000000 1 13 1.000000
13 6.000000 2.000000 -1.000000 0.000000 0.000000 -1.000000 0.000000 1.000000 1 13 1.000000
mannequin_skin
13 -2.000000 2.000000 2.000000 0.000000 0.000000 1.000000 0.000000 0.000000 1 13 1.000000
13 6.000000 2.000000 2.000000 0.000000 0.000000 1.000000 1.000000 0.000000 1 13 1.000000
13 6.000000 6.000000 2.000000 0.000000 0.000000 1.000000 1.000000 1.000000 1 13 1.000000
mannequin_skin
13 -2.000000 2.000000 2.000000 0.000000 0.000000 1.000000 0.000000 0.000000 1 13 1.000000
13 6.000000 6.000000 2.000000 0.000000 0.000000 1.000000 1.000000 1.000000 1 13 1.000000
13 -2.000000 6.000000 2.000000 0.000000 0.000000 1.000000 0.000000 1.000000 1 13 1.000000
mannequin_skin
13 -2.000000 2.000000 -1.000000 0.000000 -1.000000 0.000000 0.000000 0.000000 1 13 1.000000
13 6.000000 2.000000 -1.000000 0.000000 -1.000000 0.000000 1.000000 0.000000 1 13 1.000000
13 6.000000 2.000000 2.000000 0.000000 -1.000000 0.000000 1.000000 1.000000 1 13 1.000000
mannequin_skin
13 -2.000000 2.000000 -1.000000 0.000000 -1.000000 0.000000 0.000000 0.000000 1 13 1.000000
13 6.000000 2.000000 2.000000 0.000000 -1.000000 0.000000 1.000000 1.000000 1 13 1.000000
13 -2.000000 2.000000 2.000000 0.000000 -1.000000 0.000000 0.000000 1.000000 1 13 1.000000
mannequin_skin
13 6.000000 2.000000 -1.000000 1.000000 0.000000 0.000000 0.000000 0.000000 1 13 1.000000
13 6.000000 6.000000 -1.000000 1.000000 0.000000 0.000000 1.000000 0.000000 1 13 1.000000
13 6.000000 6.000000 2.000000 1.000000 0.000000 0.000000 1.000000 1.000000 1 13 1.000000
mannequin_skin
13 6.000000 2.000000 -1.000000 1.000000 0.000000 0.000000 0.000000 0.000000 1 13 1.000000
13 6.000000 6.000000 2.000000 1.000000 0.000000 0.000000 1.000000 1.000000 1 13 1.000000
13 6.000000 2.000000 2.000000 1.000000 0.000000 0.000000 0.000000 1.000000 1 13 1.000000
mannequin_skin
13 6.000000 6.000000 -1.000000 0.000000 1.000000 0.000000 0.000000 0.000000 1 13 1.000000
13 -2.000000 6.000000 -1.000000 0.000000 1.000000 0.000000 1.000000 0.000000 1 13 1.000000
13 -2.000000 6.000000 2.000000 0.000000 1.000000 0.000000 1.000000 1.000000 1 13 1.000000
mannequin_skin
13 6.000000 6.000000 -1.000000 0.000000 1.000000 0.000000 0.000000 0.000000 1 13 1.000000
13 -2.000000 6.000000 2.000000 0.000000 1.000000 0.000000 1.000000 1.000000 1 13 1.000000
13 6.000000 6.000000 2.000000 0.000000 1.000000 0.000000 0.000000 1.000000 1 13 1.000000
mannequin_skin
13 -2.000000 6.000000 -1.000000 -1.000000 0.000000 0.000000 0.000000 0.000000 1 13 1.000000
13 -2.000000 2.000000 -1.000000 -1.000000 0.000000 0.000000 1.000000 0.000000 1 13 1.000000
13 -2.000000 2.000000 2.000000 -1.000000 0.000000 0.000000 1.000000 1.000000 1 13 1.000000
mannequin_skin
13 -2.000000 6.000000 -1.000000 -1.000000 0.000000 0.000000 0.000000 0.000000 1 13 1.000000
13 -2.000000 2.000000 2.000000 -1.000000 0.000000 0.000000 1.000000 1.000000 1 13 1.000000
13 -2.000000 6.000000 2.000000 -1.000000 0.000000 0.000000 0.000000 1.000000 1 13 1.000000
mannequin_skin
8 -2.000000 -6.000000 58.000000 0.000000 0.000000 -1.000000 0.000000 0.000000 1 8 1.000000
8 2.000000 -6.000000 58.000000 0.000000 0.000000 -1.000000 1.000000 0.000000 1 8 1.000000
8 2.000000 -17.000000 58.000000 0.000000 0.000000 -1.000000 1.000000 1.000000 2 8 0.500000 9 0.500000
mannequin_skin
8 -2.000000 -6.000000 58.000000 0.000000 0.000000 -1.000000 0.000000 0.000000 1 8 1.000000
8 2.000000 -17.000000 58.000000 0.000000 0.000000 -1.000000 1.000000 1.000000 2 8 0.500000 9 0.500000
8 -2.000000 -17.000000 58.000000 0.000000 0.000000 -1.000000 0.000000 1.000000 2 8 0.500000 9 0.500000
mannequin_skin
8 -2.000000 -6.000000 62.000000 0.000000 0.000000 1.000000 0.000000 0.000000 1 8 1.000000
8 -2.000000 -17.000000 62.000000 0.000000 0.000000 1.000000 1.000000 0.000000 2 8 0.500000 9 0.500000
8 2.000000 -17.000000 62.000000 0.000000 0.000000 1.000000 1.000000 1.000000 2 8 0.500000 9 0.500000
mannequin_skin
8 -2.000000 -6.000000 62.000000 0.000000 0.000000 1.000000 0.000000 0.000000 1 8 1.000000
8 2.000000 -17.000000 62.000000 0.000000 0.000000 1.000000 1.000000 1.000000 2 8 0.500000 9 0.500000
8 2.000000 -6.000000 62.000000 0.000000 0.000000 1.000000 0.000000 1.000000 1 8 1.000000
mannequin_skin
8 -2.000000 -6.000000 58.000000 -1.000000 -0.000000 0.000000 0.000000 0.000000 1 8 1.000000
8 -2.000000 -17.000000 58.000000 -1.000000 -0.000000 0.000000 1.000000 0.000000 2 8 0.500000 9 0.500000
8 -2.000000 -17.000000 62.000000 -1.000000 -0.000000 0.000000 1.000000 1.000000 2 8 0.500000 9 0.500000
mannequin_skin
8 -2.000000 -6.000000 58.000000 -1.000000 -0.000000 0.000000 0.000000 0.000000 1 8 1.000000
8 -2.000000 -17.000000 62.000000 -1.000000 -0.000000 0.000000 1.000000 1.000000 2 8 0.500000 9 0.500000
8 -2.000000 -6.000000 62.000000 -1.000000 -0.000000 0.000000 0.000000 1.000000 1 8 1.000000
mannequin_skin
8 -2.000000 -17.000000 58.000000 0.000000 -1.000000 0.000000 0.000000 0.000000 2 8 0.500000 9 0.500000
8 2.000000 -17.000000 58.000000 0.000000 -1.000000 0.000000 1.000000 0.000000 2 8 0.500000 9 0.500000
8 2.000000 -17.000000 62.000000 0.000000 -1.000000 0.000000 1.000000 1.000000 2 8 0.500000 9 0.500000
mannequin_skin
8 -2.000000 -17.000000 58.000000 0.000000 -1.000000 0.000000 0.000000 0.000000 2 8 0.500000 9 0.500000
8 2.000000 -17.000000 62.000000 0.000000 -1.000000 0.000000 1.000000 1.000000 2 8 0.500000 9 0.500000
8 -2.000000 -17.000000 62.000000 0.000000 -1.000000 0.000000 0.000000 1.000000 2 8 0.500000 9 0.500000
mannequin_skin
8 2.000000 -17.000000 58.000000 1.000000 0.000000 0.000000 0.000000 0.000000 2 8 0.500000 9 0.500000
8 2.000000 -6.000000 58.000000 1.000000 0.000000 0.000000 1.000000 0.000000 1 8 1.000000
8 2.000000 -6.000000 62.000000 1.000000 0.000000 0.000000 1.000000 1.000000 1 8 1.000000
mannequin_skin
8 2.000000 -17.000000 58.000000 1.000000 0.000000 0.000000 0.000000 0.000000 2 8 0.500000 9 0.500000
8 2.000000 -6.000000 62.000000 1.000000 0.000000 0.000000 1.000000 1.000000 1 8 1.000000
8 2.000000 -17.000000 62.000000 1.000000 0.000000 0.000000 0.000000 1.000000 2 8 0.500000 9 0.500000
mannequin_skin
8 2.000000 -6.000000 58.000000 -0.000000 1.000000 0.000000 0.000000 0.000000 1 8 1.000000
8 -2.000000 -6.000000 58.000000 -0.000000 1.000000 0.000000 1.000000 0.000000 1 8 1.000000
8 -2.000000 -6.000000 62.000000 -0.000000 1.000000 0.000000 1.000000 1.000000 1 8 1.000000
mannequin_skin
8 2.000000 -6.000000 58.000000 -0.000000 1.000000 0.000000 0.000000 0.000000 1 8 1.000000
8 -2.000000 -6.000000 62.000000 -0.000000 1.000000 0.000000 1.000000 1.000000 1 8 1.000000
8 2.000000 -6.000000 62.000000 -0.000000 1.000000 0.000000 0.000000 1.000000 1 8 1.000000
mannequin_skin
9 -1.500000 -17.000000 58.500000 0.000000 0.000000 -1.000000 0.000000 0.000000 1 9 1.000000
9 1.500000 -17.000000 58.500000 0.000000 0.000000 -1.000000 1.000000 0.000000 1 9 1.000000
9 1.500000 -27.000000 58.500000 0.000000 0.000000 -1.000000 1.000000 1.000000 2 9 0.500000 10 0.500000
mannequin_skin
9 -1.500000 -17.000000 58.500000 0.000000 0.000000 -1.000000 0.000000 0.000000 1 9 1.000000
9 1.500000 -27.000000 58.500000 0.000000 0.000000 -1.000000 1.000000 1.000000 2 9 0.500000 10 0.500000
9 -1.500000 -27.000000 58.500000 0.000000 0.000000 -1.000000 0.000000 1.000000 2 9 0.500000 10 0.500000
mannequin_skin
9 -1.500000 -17.000000 61.500000 0.000000 0.000000 1.000000 0.000000 0.000000 1 9 1.000000
9 -1.500000 -27.000000 61.500000 0.000000 0.000000 1.000000 1.000000 0.000000 2 9 0.500000 10 0.500000
9 1.500000 -27.000000 61.500000 0.000000 0.000000 1.000000 1.000000 1.000000 2 9 0.500000 10 0.500000
mannequin_skin
9 -1.500000 -17.000000 61.500000 0.000000 0.000000 1.000000 0.000000 0.000000 1 9 1.000000
9 1.500000 -27.000000 61.500000 0.000000 0.000000 1.000000 1.000000 1.000000 2 9 0.500000 10 0.500000
9 1.500000 -17.000000 61.500000 0.000000 0.000000 1.000000 0.000000 1.000000 1 9 1.000000
mannequin_skin
9 -1.500000 -17.000000 58.500000 -1.000000 -0.000000 0.000000 0.000000 0.000000 1 9 1.000000
9 -1.500000 -27.000000 58.500000 -1.000000 -0.000000 0.000000 1.000000 0.000000 2 9 0.500000 10 0.500000
9 -1.500000 -27.000000 61.500000 -1.000000 -0.000000 0.000000 1.000000 1.000000 2 9 0.500000 10 0.500000
mannequin_skin
9 -1.500000 -17.000000 58.500000 -1.000000 -0.000000 0.000000 0.000000 0.000000 1 9 1.000000
9 -1.500000 -27.000000 61.500000 -1.000000 -0.000000 0.000000 1.000000 1.000000 2 9 0.500000 10 0.500000
9 -1.500000 -17.000000 61.500000 -1.000000 -0.000000 0.000000 0.000000 1.000000 1 9 1.000000
mannequin_skin
9 -1.500000 -27.000000 58.500000 0.000000 -1.000000 0.000000 0.000000 0.000000 2 9 0.500000 10 0.500000
9 1.500000 -27.000000 58.500000 0.000000 -1.000000 0.000000 1.000000 0.000000 2 9 0.500000 10 0.500000
9 1.500000 -27.000000 61.500000 0.000000 -1.000000 0.000000 1.000000 1.000000 2 9 0.500000 10 0.500000
mannequin_skin
9 -1.500000 -27.000000 58.500000 0.000000 -1.000000 0.000000 0.000000 0.000000 2 9 0.500000 10 0.500000
9 1.500000 -27.000000 61.500000 0.000000 -1.000000 0.000000 1.000000 1.000000 2 9 0.500000 10 0.500000
9 -1.500000 -27.000000 61.500000 0.000000 -1.000000 0.000000 0.000000 1.000000 2 9 0.500000 10 0.500000
mannequin_skin
9 1.500000 -27.000000 58.500000 1.000000 0.000000 0.000000 0.000000 0.000000 2 9 0.500000 10 0.500000
9 1.500000 -17.000000 58.500000 1.000000 0.000000 0.000000 1.000000 0.000000 1 9 1.000000
9 1.500000 -17.000000 61.500000 1.000000 0.000000 0.000000 1.000000 1.000000 1 9 1.000000
mannequin_skin
9 1.500000 -27.000000 58.500000 1.000000 0.000000 0.000000 0.000000 0.000000 2 9 0.500000 10 0.500000
9 1.500000 -17.000000 61.500000 1.000000 0.000000 0.000000 1.000000 1.000000 1 9 1.000000
9 1.500000 -27.000000 61.500000 1.000000 0.000000 0.000000 0.000000 1.000000 2 9 0.500000 10 0.500000
mannequin_skin
9 1.500000 -17.000000 58.500000 -0.000000 1.000000 0.000000 0.000000 0.000000 1 9 1.000000
9 -1.500000 -17.000000 58.500000 -0.000000 1.000000 0.000000 1.000000 0.000000 1 9 1.000000
9 -1.500000 -17.000000 61.500000 -0.000000 1.000000 0.000000 1.000000 1.000000 1 9 1.000000
mannequin_skin
9 1.500000 -17.000000 58.500000 -0.000000 1.000000 0.000000 0.000000 0.000000 1 9 1.000000
9 -1.500000 -17.000000 61.500000 -0.000000 1.000000 0.000000 1.000000 1.000000 1 9 1.000000
9 1.500000 -17.000000 61.500000 -0.000000 1.000000 0.000000 0.000000 1.000000 1 9 1.000000
mannequin_skin
10 -2.000000 -27.000000 59.000000 0.000000 0.000000 -1.000000 0.000000 0.000000 1 10 1.000000
10 2.000000 -27.000000 59.000000 0.000000 0.000000 -1.000000 1.000000 0.000000 1 10 1.000000
10 2.000000 -31.000000 59.000000 0.000000 0.000000 -1.000000 1.000000 1.000000 1 10 1.000000
mannequin_skin
10 -2.000000 -27.000000 59.000000 0.000000 0.000000 -1.000000 0.000000 0.000000 1 10 1.000000
10 2.000000 -31.000000 59.000000 0.000000 0.000000 -1.000000 1.000000 1.000000 1 10 1.000000
10 -2.000000 -31.000000 59.000000 0.000000 0.000000 -1.000000 0.000000 1.000000 1 10 1.000000
mannequin_skin
10 -2.000000 -27.000000 61.000000 0.000000 0.000000 1.000000 0.000000 0.000000 1 10 1.000000
10 -2.000000 -31.000000 61.000000 0.000000 0.000000 1.000000 1.000000 0.000000 1 10 1.000000
10 2.000000 -31.000000 61.000000 0.000000 0.000000 1.000000 1.000000 1.000000 1 10 1.000000
mannequin_skin
10 -2.000000 -27.000000 61.000000 0.000000 0.000000 1.000000 0.000000 0.000000 1 10 1.000000
10 2.000000 -31.000000 61.000000 0.000000 0.000000 1.000000 1.000000 1.000000 1 10 1.000000
10 2.000000 -27.000000 61.000000 0.000000 0.000000 1.000000 0.000000 1.000000 1 10 1.000000
mannequin_skin
10 -2.000000 -27.000000 59.000000 -1.000000 -0.000000 0.000000 0.000000 0.000000 1 10 1.000000
10 -2.000000 -31.000000 59.000000 -1.000000 -0.000000 0.000000 1.000000 0.000000 1 10 1.000000
10 -2.000000 -31.000000 61.000000 -1.000000 -0.000000 0.000000 1.000000 1.000000 1 10 1.000000
mannequin_skin
10 -2.000000 -27.000000 59.000000 -1.000000 -0.000000 0.000000 0.000000 0.000000 1 10 1.000000
10 -2.000000 -31.000000 61.000000 -1.000000 -0.000000 0.000000 1.000000 1.000000 1 10 1.000000
10 -2.000000 -27.000000 61.000000 -1.000000 -0.000000 0.000000 0.000000 1.000000 1 10 1.000000
mannequin_skin
10 -2.000000 -31.000000 59.000000 0.000000 -1.000000 0.000000 0.000000 0.000000 1 10 1.000000
10 2.000000 -31.000000 59.000000 0.000000 -1.000000 0.000000 1.000000 0.000000 1 10 1.000000
10 2.000000 -31.000000 61.000000 0.000000 -1.000000 0.000000 1.000000 1.000000 1 10 1.000000
mannequin_skin
10 -2.000000 -31.000000 59.000000 0.000000 -1.000000 0.000000 0.000000 0.000000 1 10 1.000000
10 2.000000 -31.000000 61.000000 0.000000 -1.000000 0.000000 1.000000 1.000000 1 10 1.000000
10 -2.000000 -31.000000 61.000000 0.000000 -1.000000 0.000000 0.000000 1.000000 1 10 1.000000
mannequin_skin
10 2.000000 -31.000000 59.000000 1.000000 0.000000 0.000000 0.000000 0.000000 1 10 1.000000
10 2.000000 -27.000000 59.000000 1.000000 0.000000 0.000000 1.000000 0.000000 1 10 1.000000
10 2.000000 -27.000000 61.000000 1.000000 0.000000 0.000000 1.000000 1.000000 1 10 1.000000
mannequin_skin
10 2.000000 -31.000000 59.000000 1.000000 0.000000 0.000000 0.000000 0.000000 1 10 1.000000
10 2.000000 -27.000000 61.000000 1.000000 0.000000 0.000000 1.000000 1.000000 1 10 1.000000
10 2.000000 -31.000000 61.000000 1.000000 0.000000 0.000000 0.000000 1.000000 1 10 1.000000
mannequin_skin
10 2.000000 -27.000000 59.000000 -0.000000 1.000000 0.000000 0.000000 0.000000 1 10 1.000000
10 -2.000000 -27.000000 59.000000 -0.000000 1.000000 0.000000 1.000000 0.000000 1 10 1.000000
10 -2.000000 -27.000000 61.000000 -0.000000 1.000000 0.000000 1.000000 1.000000 1 10 1.000000
mannequin_skin
10 2.000000 -27.000000 59.000000 -0.000000 1.000000 0.000000 0.000000 0.000000 1 10 1.000000
10 -2.000000 -27.000000 61.000000 -0.000000 1.000000 0.000000 1.000000 1.000000 1 10 1.000000
10 2.000000 -27.000000 61.000000 -0.000000 1.000000 0.000000 0.000000 1.000000 1 10 1.000000
mannequin_skin
14 -2.500000 -6.500000 19.000000 0.000000 0.000000 -1.000000 0.000000 0.000000 2 14 0.500000 15 0.500000
14 -2.500000 -1.500000 19.000000 0.000000 0.000000 -1.000000 1.000000 0.000000 2 14 0.500000 15 0.500000
14 2.500000 -1.500000 19.000000 0.000000 0.000000 -1.000000 1.000000 1.000000 2 14 0.500000 15 0.500000
mannequin_skin
14 -2.500000 -6.500000 19.000000 0.000000 0.000000 -1.000000 0.000000 0.000000 2 14 0.500000 15 0.500000
14 2.500000 -1.500000 19.000000 0.000000 0.000000 -1.000000 1.000000 1.000000 2 14 0.500000 15 0.500000
14 2.500000 -6.500000 19.000000 0.000000 0.000000 -1.000000 0.000000 1.000000 2 14 0.500000 15 0.500000
mannequin_skin
14 -2.500000 -6.500000 36.000000 0.000000 0.000000 1.000000 0.000000 0.000000 1 14 1.000000
14 2.500000 -6.500000 36.000000 0.000000 0.000000 1.000000 1.000000 0.000000 1 14 1.000000
14 2.500000 -1.500000 36.000000 0.000000 0.000000 1.000000 1.000000 1.000000 1 14 1.000000
mannequin_skin
14 -2.500000 -6.500000 36.000000 0.000000 0.000000 1.000000 0.000000 0.000000 1 14 1.000000
14 2.500000 -1.500000 36.000000 0.000000 0.000000 1.000000 1.000000 1.000000 1 14 1.000000
14 -2.500000 -1.500000 36.000000 0.000000 0.000000 1.000000 0.000000 1.000000 1 14 1.000000
mannequin_skin
14 -2.500000 -6.500000 19.000000 0.000000 -1.000000 0.000000 0.000000 0.000000 2 14 0.500000 15 0.500000
14 2.500000 -6.500000 19.000000 0.000000 -1.000000 0.000000 1.000000 0.000000 2 14 0.500000 15 0.500000
14 2.500000 -6.500000 36.000000 0.000000 -1.000000 0.000000 1.000000 1.000000 1 14 1.000000
mannequin_skin
14 -2.500000 -6.500000 19.000000 0.000000 -1.000000 0.000000 0.000000 0.000000 2 14 0.500000 15 0.500000
14 2.500000 -6.500000 36.000000 0.000000 -1.000000 0.000000 1.000000 1.000000 1 14 1.000000
14 -2.500000 -6.500000 36.000000 0.000000 -1.000000 0.000000 0.000000 1.000000 1 14 1.000000
mannequin_skin
14 2.500000 -6.500000 19.000000 1.000000 0.000000 0.000000 0.000000 0.000000 2 14 0.500000 15 0.500000
14 2.500000 -1.500000 19.000000 1.000000 0.000000 0.000000 1.000000 0.000000 2 14 0.500000 15 0.500000
14 2.500000 -1.500000 36.000000 1.000000 0.000000 0.000000 1.000000 1.000000 1 14 1.000000
mannequin_skin
14 2.500000 -6.500000 19.000000 1.000000 0.000000 0.000000 0.000000 0.000000 2 14 0.500000 15 0.500000
14 2.500000 -1.500000 36.000000 1.000000 0.000000 0.000000 1.000000 1.000000 1 14 1.000000
14 2.500000 -6.500000 36.000000 1.000000 0.000000 0.000000 0.000000 1.000000 1 14 1.000000
mannequin_skin
14 2.500000 -1.500000 19.000000 0.000000 1.000000 0.000000 0.000000 0.000000 2 14 0.500000 15 0.500000
14 -2.500000 -1.500000 19.000000 0.000000 1.000000 0.000000 1.000000 0.000000 2 14 0.500000 15 0.500000
14 -2.500000 -1.500000 36.000000 0.000000 1.000000 0.000000 1.000000 1.000000 1 14 1.000000
mannequin_skin
14 2.500000 -1.500000 19.000000 0.000000 1.000000 0.000000 0.000000 0.000000 2 14 0.500000 15 0.500000
14 -2.500000 -1.500000 36.000000 0.000000 1.000000 0.000000 1.000000 1.000000 1 14 1.000000
14 2.500000 -1.500000 36.000000 0.000000 1.000000 0.000000 0.000000 1.000000 1 14 1.000000
mannequin_skin
14 -2.500000 -1.500000 19.000000 -1.000000 0.000000 0.000000 0.000000 0.000000 2 14 0.500000 15 0.500000
14 -2.500000 -6.500000 19.000000 -1.000000 0.000000 0.000000 1.000000 0.000000 2 14 0.500000 15 0.500000
14 -2.500000 -6.500000 36.000000 -1.000000 0.000000 0.000000 1.000000 1.000000 1 14 1.000000
mannequin_skin
14 -2.500000 -1.500000 19.000000 -1.000000 0.000000 0.000000 0.000000 0.000000 2 14 0.500000 15 0.500000
14 -2.500000 -6.500000 36.000000 -1.000000 0.000000 0.000000 1.000000 1.000000 1 14 1.000000
14 -2.500000 -1.500000 36.000000 -1.000000 0.000000 0.000000 0.000000 1.000000 1 14 1.000000
mannequin_skin
15 -2.000000 -6.000000 2.000000 0.000000 0.000000 -1.000000 0.000000 0.000000 2 15 0.500000 16 0.500000
15 -2.000000 -2.000000 2.000000 0.000000 0.000000 -1.000000 1.000000 0.000000 2 15 0.500000 16 0.500000
15 2.000000 -2.000000 2.000000 0.000000 0.000000 -1.000000 1.000000 1.000000 2 15 0.500000 16 0.500000
mannequin_skin
15 -2.000000 -6.000000 2.000000 0.000000 0.000000 -1.000000 0.000000 0.000000 2 15 0.500000 16 0.500000
15 2.000000 -2.000000 2.000000 0.000000 0.000000 -1.000000 1.000000 1.000000 2 15 0.500000 16 0.500000
15 2.000000 -6.000000 2.000000 0.000000 0.000000 -1.000000 0.000000 1.000000 2 15 0.500000 16 0.500000
mannequin_skin
15 -2.000000 -6.000000 19.000000 0.000000 0.000000 1.000000 0.000000 0.000000 1 15 1.000000
15 2.000000 -6.000000 19.000000 0.000000 0.000000 1.000000 1.000000 0.000000 1 15 1.000000
15 2.000000 -2.000000 19.000000 0.000000 0.000000 1.000000 1.000000 1.000000 1 15 1.000000
mannequin_skin
15 -2.000000 -6.000000 19.000000 0.000000 0.000000 1.000000 0.000000 0.000000 1 15 1.000000
15 2.000000 -2.000000 19.000000 0.000000 0.000000 1.000000 1.000000 1.000000 1 15 1.000000
15 -2.000000 -2.000000 19.000000 0.000000 0.000000 1.000000 0.000000 1.000000 1 15 1.000000
mannequin_skin
15 -2.000000 -6.000000 2.000000 0.000000 -1.000000 0.000000 0.000000 0.000000 2 15 0.500000 16 0.500000
15 2.000000 -6.000000 2.000000 0.000000 -1.000000 0.000000 1.000000 0.000000 2 15 0.500000 16 0.500000
15 2.000000 -6.000000 19.000000 0.000000 -1.000000 0.000000 1.000000 1.000000 1 15 1.000000
mannequin_skin
15 -2.000000 -6.000000 2.000000 0.000000 -1.000000 0.000000 0.000000 0.000000 2 15 0.500000 16 0.500000
15 2.000000 -6.000000 19.000000 0.000000 -1.000000 0.000000 1.000000 1.000000 1 15 1.000000
15 -2.000000 -6.000000 19.000000 0.000000 -1.000000 0.000000 0.000000 1.000000 1 15 1.000000
mannequin_skin
15 2.000000 -6.000000 2.000000 1.000000 0.000000 0.000000 0.000000 0.000000 2 15 0.500000 16 0.500000
15 2.000000 -2.000000 2.000000 1.000000 0.000000 0.000000 1.000000 0.000000 2 15 0.500000 16 0.500000
15 2.000000 -2.000000 19.000000 1.000000 0.000000 0.000000 1.000000 1.000000 1 15 1.000000
mannequin_skin
15 2.000000 -6.000000 2.000000 1.000000 0.000000 0.000000 0.000000 0.000000 2 15 0.500000 16 0.500000
15 2.000000 -2.000000 19.000000 1.000000 0.000000 0.000000 1.000000 1.000000 1 15 1.000000
15 2.000000 -6.000000 19.000000 1.000000 0.000000 0.000000 0.000000 1.000000 1 15 1.000000
mannequin_skin
15 2.000000 -2.000000 2.000000 0.000000 1.000000 0.000000 0.000000 0.000000 2 15 0.500000 16 0.500000
15 -2.000000 -2.000000 2.000000 0.000000 1.000000 0.000000 1.000000 0.000000 2 15 0.500000 16 0.500000
15 -2.000000 -2.000000 19.000000 0.000000 1.000000 0.000000 1.000000 1.000000 1 15 1.000000
mannequin_skin
15 2.000000 -2.000000 2.000000 0.000000 1.000000 0.000000 0.000000 0.000000 2 15 0.500000 16 0.500000
15 -2.000000 -2.000000 19.000000 0.000000 1.000000 0.000000 1.000000 1.000000 1 15 1.000000
15 2.000000 -2.000000 19.000000 0.000000 1.000000 0.000000 0.000000 1.000000 1 15 1.000000
mannequin_skin
15 -2.000000 -2.000000 2.000000 -1.000000 0.000000 0.000000 0.000000 0.000000 2 15 0.500000 16 0.500000
15 -2.000000 -6.000000 2.000000 -1.000000 0.000000 0.000000 1.000000 0.000000 2 15 0.500000 16 0.500000
15 -2.000000 -6.000000 19.000000 -1.000000 0.000000 0.000000 1.000000 1.000000 1 15 1.000000
mannequin_skin
15 -2.000000 -2.000000 2.000000 -1.000000 0.000000 0.000000 0.000000 0.000000 2 15 0.500000 16 0.500000
15 -2.000000 -6.000000 19.000000 -1.000000 0.000000 0.000000 1.000000 1.000000 1 15 1.000000
15 -2.000000 -2.000000 19.000000 -1.000000 0.000000 0.000000 0.000000 1.000000 1 15 1.000000
mannequin_skin
16 -2.000000 -6.000000 -1.000000 0.000000 0.000000 -1.000000 0.000000 0.000000 1 16 1.000000
16 -2.000000 -2.000000 -1.000000 0.000000 0.000000 -1.000000 1.000000 0.000000 1 16 1.000000
16 6.000000 -2.000000 -1.000000 0.000000 0.000000 -1.000000 1.000000 1.000000 1 16 1.000000
mannequin_skin
16 -2.000000 -6.000000 -1.000000 0.000000 0.000000 -1.000000 0.000000 0.000000 1 16 1.000000
16 6.000000 -2.000000 -1.000000 0.000000 0.000000 -1.000000 1.000000 1.000000 1 16 1.000000
16 6.000000 -6.000000 -1.000000 0.000000 0.000000 -1.000000 0.000000 1.000000 1 16 1.000000
mannequin_skin
16 -2.000000 -6.000000 2.000000 0.000000 0.000000 1.000000 0.000000 0.000000 1 16 1.000000
16 6.000000 -6.000000 2.000000 0.000000 0.000000 1.000000 1.000000 0.000000 1 16 1.000000
16 6.000000 -2.000000 2.000000 0.000000 0.000000 1.000000 1.000000 1.000000 1 16 1.000000
mannequin_skin
16 -2.000000 -6.000000 2.000000 0.000000 0.000000 1.000000 0.000000 0.000000 1 16 1.000000
16 6.000000 -2.000000 2.000000 0.000000 0.000000 1.000000 1.000000 1.000000 1 16 1.000000
16 -2.000000 -2.000000 2.000000 0.000000 0.000000 1.000000 0.000000 1.000000 1 16 1.000000
mannequin_skin
16 -2.000000 -6.000000 -1.000000 0.000000 -1.000000 0.000000 0.000000 0.000000 1 16 1.000000
16 6.000000 -6.000000 -1.000000 0.000000 -1.000000 0.000000 1.000000 0.000000 1 16 1.000000
16 6.000000 -6.000000 2.000000 0.000000 -1.000000 0.000000 1.000000 1.000000 1 16 1.000000
mannequin_skin
16 -2.000000 -6.000000 -1.000000 0.000000 -1.000000 0.000000 0.000000 0.000000 1 16 1.000000
16 6.000000 -6.000000 2.000000 0.000000 -1.000000 0.000000 1.000000 1.000000 1 16 1.000000
16 -2.000000 -6.000000 2.000000 0.000000 -1.000000 0.000000 0.000000 1.000000 1 16 1.000000
mannequin_skin
16 6.000000 -6.000000 -1.000000 1.000000 0.000000 0.000000 0.000000 0.000000 1 16 1.000000
16 6.000000 -2.000000 -1.000000 1.000000 0.000000 0.000000 1.000000 0.000000 1 16 1.000000
16 6.000000 -2.000000 2.000000 1.000000 0.000000 0.000000 1.000000 1.000000 1 16 1.000000
mannequin_skin
16 6.000000 -6.000000 -1.000000 1.000000 0.000000 0.000000 0.000000 0.000000 1 16 1.000000
16 6.000000 -2.000000 2.000000 1.000000 0.000000 0.000000 1.000000 1.000000 1 16 1.000000
16 6.000000 -6.000000 2.000000 1.000000 0.000000 0.000000 0.000000 1.000000 1 16 1.000000
mannequin_skin
16 6.000000 -2.000000 -1.000000 0.000000 1.000000 0.000000 0.000000 0.000000 1 16 1.000000
16 -2.000000 -2.000000 -1.000000 0.000000 1.000000 0.000000 1.000000 0.000000 1 16 1.000000
16 -2.000000 -2.000000 2.000000 0.000000 1.000000 0.000000 1.000000 1.000000 1 16 1.000000
mannequin_skin
16 6.000000 -2.000000 -1.000000 0.000000 1.000000 0.000000 0.000000 0.000000 1 16 1.000000
16 -2.000000 -2.000000 2.000000 0.000000 1.000000 0.000000 1.000000 1.000000 1 16 1.000000
16 6.000000 -2.000000 2.000000 0.000000 1.000000 0.000000 0.000000 1.000000 1 16 1.000000
mannequin_skin
16 -2.000000 -2.000000 -1.000000 -1.000000 0.000000 0.000000 0.000000 0.000000 1 16 1.000000
16 -2.000000 -6.000000 -1.000000 -1.000000 0.000000 0.000000 1.000000 0.000000 1 16 1.000000
16 -2.000000 -6.000000 2.000000 -1.000000 0.000000 0.000000 1.000000 1.000000 1 16 1.000000
mannequin_skin
16 -2.000000 -2.000000 -1.000000 -1.000000 0.000000 0.000000 0.000000 0.000000 1 16 1.000000
16 -2.000000 -6.000000 2.000000 -1.000000 0.000000 0.000000 1.000000 1.000000 1 16 1.000000
16 -2.000000 -2.000000 2.000000 -1.000000 0.000000 0.000000 0.000000 1.000000 1 16 1.000000
end
