version 1
nodes
0 "ValveBiped.Bip01_Pelvis" -1
1 "ValveBiped.Bip01_Spine" 0
2 "ValveBiped.Bip01_Spine2" 1
3 "ValveBiped.Bip01_Neck1" 2
4 "ValveBiped.Bip01_Head1" 3
5 "ValveBiped.Bip01_L_UpperArm" 2
6 "ValveBiped.Bip01_L_Forearm" 5
7 "ValveBiped.Bip01_L_Hand" 6
8 "ValveBiped.Bip01_R_UpperArm" 2
9 "ValveBiped.Bip01_R_Forearm" 8
10 "ValveBiped.Bip01_R_Hand" 9
11 "ValveBiped.Bip01_L_Thigh" 0
12 "ValveBiped.Bip01_L_Calf" 11
13 "ValveBiped.Bip01_L_Foot" 12
14 "ValveBiped.Bip01_R_Thigh" 0
15 "ValveBiped.Bip01_R_Calf" 14
16 "ValveBiped.Bip01_R_Foot" 15
end
skeleton
time 0
0 0.000000 0.000000 38.000000 0.000000 0.000000 0.000000
1 0.000000 0.000000 4.000000 0.000000 0.000000 0.000000
2 0.000000 0.000000 10.000000 0.000000 0.000000 0.000000
3 0.000000 0.000000 10.000000 0.000000 0.000000 0.000000
4 0.000000 0.000000 4.000000 0.000000 0.000000 0.000000
5 0.000000 6.000000 8.000000 0.000000 0.000000 1.570796
6 11.000000 0.000000 0.000000 0.000000 0.000000 0.000000
7 10.000000 0.000000 0.000000 0.000000 0.000000 0.000000
8 0.000000 -6.000000 8.000000 0.000000 0.000000 -1.570796
9 11.000000 0.000000 0.000000 0.000000 0.000000 0.000000
10 10.000000 0.000000 0.000000 0.000000 0.000000 0.000000
11 0.000000 4.000000 -2.000000 0.000000 0.000000 0.000000
12 0.000000 0.000000 -17.000000 0.000000 0.000000 0.000000
13 0.000000 0.000000 -17.000000 0.000000 0.000000 0.000000
14 0.000000 -4.000000 -2.000000 0.000000 0.000000 0.000000
15 0.000000 0.000000 -17.000000 0.000000 0.000000 0.000000
16 0.000000 0.000000 -17.000000 0.000000 0.000000 0.000000
time 1
0 0.000000 0.000000 38.166329 0.000000 0.000000 0.000000
1 0.000000 0.000000 4.000000 0.000000 0.000000 0.000000
2 0.000000 0.000000 10.000000 0.000000 0.000000 0.000000
3 0.000000 0.000000 10.000000 0.000000 0.000000 0.000000
4 0.000000 0.000000 4.000000 0.000000 0.000000 0.000000
5 0.000000 6.000000 8.000000 0.000000 -0.083165 1.570796
6 11.000000 0.000000 0.000000 0.000000 0.000000 0.000000
7 10.000000 0.000000 0.000000 0.000000 0.000000 0.000000
8 0.000000 -6.000000 8.000000 0.000000 -0.083165 -1.570796
9 11.000000 0.000000 0.000000 0.000000 0.000000 0.000000
10 10.000000 0.000000 0.000000 0.000000 0.000000 0.000000
11 0.000000 4.000000 -2.000000 0.000000 0.103956 0.000000
12 0.000000 0.000000 -17.000000 0.000000 0.000000 0.000000
13 0.000000 0.000000 -17.000000 0.000000 0.000000 0.000000
14 0.000000 -4.000000 -2.000000 0.000000 -0.103956 0.000000
15 0.000000 0.000000 -17.000000 0.000000 0.166329 0.000000
16 0.000000 0.000000 -17.000000 0.000000 0.000000 0.000000
time 2
0 0.000000 0.000000 38.325389 0.000000 0.000000 0.000000
1 0.000000 0.000000 4.000000 0.000000 0.000000 0.000000
2 0.000000 0.000000 10.000000 0.000000 0.000000 0.000000
3 0.000000 0.000000 10.000000 0.000000 0.000000 0.000000
4 0.000000 0.000000 4.000000 0.000000 0.000000 0.000000
5 0.000000 6.000000 8.000000 0.000000 -0.162695 1.570796
6 11.000000 0.000000 0.000000 0.000000 0.000000 0.000000
7 10.000000 0.000000 0.000000 0.000000 0.000000 0.000000
8 0.000000 -6.000000 8.000000 0.000000 -0.162695 -1.570796
9 11.000000 0.000000 0.000000 0.000000 0.000000 0.000000
10 10.000000 0.000000 0.000000 0.000000 0.000000 0.000000
11 0.000000 4.000000 -2.000000 0.000000 0.203368 0.000000
12 0.000000 0.000000 -17.000000 0.000000 0.000000 0.000000
13 0.000000 0.000000 -17.000000 0.000000 0.000000 0.000000
14 0.000000 -4.000000 -2.000000 0.000000 -0.203368 0.000000
15 0.000000 0.000000 -17.000000 0.000000 0.325389 0.000000
16 0.000000 0.000000 -17.000000 0.000000 0.000000 0.000000
time 3
0 0.000000 0.000000 38.470228 0.000000 0.000000 0.000000
1 0.000000 0.000000 4.000000 0.000000 0.000000 0.000000
2 0.000000 0.000000 10.000000 0.000000 0.000000 0.000000
3 0.000000 0.000000 10.000000 0.000000 0.000000 0.000000
4 0.000000 0.000000 4.000000 0.000000 0.000000 0.000000
5 0.000000 6.000000 8.000000 0.000000 -0.235114 1.570796
6 11.000000 0.000000 0.000000 0.000000 0.000000 0.000000
7 10.000000 0.000000 0.000000 0.000000 0.000000 0.000000
8 0.000000 -6.000000 8.000000 0.000000 -0.235114 -1.570796
9 11.000000 0.000000 0.000000 0.000000 0.000000 0.000000
10 10.000000 0.000000 0.000000 0.000000 0.000000 0.000000
11 0.000000 4.000000 -2.000000 0.000000 0.293893 0.000000
12 0.000000 0.000000 -17.000000 0.000000 0.000000 0.000000
13 0.000000 0.000000 -17.000000 0.000000 0.000000 0.000000
14 0.000000 -4.000000 -2.000000 0.000000 -0.293893 0.000000
15 0.000000 0.000000 -17.000000 0.000000 0.470228 0.000000
16 0.000000 0.000000 -17.000000 0.000000 0.000000 0.000000
time 4
0 0.000000 0.000000 38.594516 0.000000 0.000000 0.000000
1 0.000000 0.000000 4.000000 0.000000 0.000000 0.000000
2 0.000000 0.000000 10.000000 0.000000 0.000000 0.000000
3 0.000000 0.000000 10.000000 0.000000 0.000000 0.000000
4 0.000000 0.000000 4.000000 0.000000 0.000000 0.000000
5 0.000000 6.000000 8.000000 0.000000 -0.297258 1.570796
6 11.000000 0.000000 0.000000 0.000000 0.000000 0.000000
7 10.000000 0.000000 0.000000 0.000000 0.000000 0.000000
8 0.000000 -6.000000 8.000000 0.000000 -0.297258 -1.570796
9 11.000000 0.000000 0.000000 0.000000 0.000000 0.000000
10 10.000000 0.000000 0.000000 0.000000 0.000000 0.000000
11 0.000000 4.000000 -2.000000 0.000000 0.371572 0.000000
12 0.000000 0.000000 -17.000000 0.000000 0.000000 0.000000
13 0.000000 0.000000 -17.000000 0.000000 0.000000 0.000000
14 0.000000 -4.000000 -2.000000 0.000000 -0.371572 0.000000
15 0.000000 0.000000 -17.000000 0.000000 0.594516 0.000000
16 0.000000 0.000000 -17.000000 0.000000 0.000000 0.000000
time 5
0 0.000000 0.000000 38.692820 0.000000 0.000000 0.000000
1 0.000000 0.000000 4.000000 0.000000 0.000000 0.000000
2 0.000000 0.000000 10.000000 0.000000 0.000000 0.000000
3 0.000000 0.000000 10.000000 0.000000 0.000000 0.000000
4 0.000000 0.000000 4.000000 0.000000 0.000000 0.000000
5 0.000000 6.000000 8.000000 0.000000 -0.346410 1.570796
6 11.000000 0.000000 0.000000 0.000000 0.000000 0.000000
7 10.000000 0.000000 0.000000 0.000000 0.000000 0.000000
8 0.000000 -6.000000 8.000000 0.000000 -0.346410 -1.570796
9 11.000000 0.000000 0.000000 0.000000 0.000000 0.000000
10 10.000000 0.000000 0.000000 0.000000 0.000000 0.000000
11 0.000000 4.000000 -2.000000 0.000000 0.433013 0.000000
12 0.000000 0.000000 -17.000000 0.000000 0.000000 0.000000
13 0.000000 0.000000 -17.000000 0.000000 0.000000 0.000000
14 0.000000 -4.000000 -2.000000 0.000000 -0.433013 0.000000
15 0.000000 0.000000 -17.000000 0.000000 0.692820 0.000000
16 0.000000 0.000000 -17.000000 0.000000 0.000000 0.000000
time 6
0 0.000000 0.000000 38.760845 0.000000 0.000000 0.000000
1 0.000000 0.000000 4.000000 0.000000 0.000000 0.000000
2 0.000000 0.000000 10.000000 0.000000 0.000000 0.000000
3 0.000000 0.000000 10.000000 0.000000 0.000000 0.000000
4 0.000000 0.000000 4.000000 0.000000 0.000000 0.000000
5 0.000000 6.000000 8.000000 0.000000 -0.380423 1.570796
6 11.000000 0.000000 0.000000 0.000000 0.000000 0.000000
7 10.000000 0.000000 0.000000 0.000000 0.000000 0.000000
8 0.000000 -6.000000 8.000000 0.000000 -0.380423 -1.570796
9 11.000000 0.000000 0.000000 0.000000 0.000000 0.000000
10 10.000000 0.000000 0.000000 0.000000 0.000000 0.000000
11 0.000000 4.000000 -2.000000 0.000000 0.475528 0.000000
12 0.000000 0.000000 -17.000000 0.000000 0.000000 0.000000
13 0.000000 0.000000 -17.000000 0.000000 0.000000 0.000000
14 0.000000 -4.000000 -2.000000 0.000000 -0.475528 0.000000
15 0.000000 0.000000 -17.000000 0.000000 0.760845 0.000000
16 0.000000 0.000000 -17.000000 0.000000 0.000000 0.000000
time 7
0 0.000000 0.000000 38.795618 0.000000 0.000000 0.000000
1 0.000000 0.000000 4.000000 0.000000 0.000000 0.000000
2 0.000000 0.000000 10.000000 0.000000 0.000000 0.000000
3 0.000000 0.000000 10.000000 0.000000 0.000000 0.000000
4 0.000000 0.000000 4.000000 0.000000 0.000000 0.000000
5 0.000000 6.000000 8.000000 0.000000 -0.397809 1.570796
6 11.000000 0.000000 0.000000 0.000000 0.000000 0.000000
7 10.000000 0.000000 0.000000 0.000000 0.000000 0.000000
8 0.000000 -6.000000 8.000000 0.000000 -0.397809 -1.570796
9 11.000000 0.000000 0.000000 0.000000 0.000000 0.000000
10 10.000000 0.000000 0.000000 0.000000 0.000000 0.000000
11 0.000000 4.000000 -2.000000 0.000000 0.497261 0.000000
12 0.000000 0.000000 -17.000000 0.000000 0.000000 0.000000
13 0.000000 0.000000 -17.000000 0.000000 0.000000 0.000000
14 0.000000 -4.000000 -2.000000 0.000000 -0.497261 0.000000
15 0.000000 0.000000 -17.000000 0.000000 0.795618 0.000000
16 0.000000 0.000000 -17.000000 0.000000 0.000000 0.000000
time 8
0 0.000000 0.000000 38.795618 0.000000 0.000000 0.000000
1 0.000000 0.000000 4.000000 0.000000 0.000000 0.000000
2 0.000000 0.000000 10.000000 0.000000 0.000000 0.000000
3 0.000000 0.000000 10.000000 0.000000 0.000000 0.000000
4 0.000000 0.000000 4.000000 0.000000 0.000000 0.000000
5 0.000000 6.000000 8.000000 0.000000 -0.397809 1.570796
6 11.000000 0.000000 0.000000 0.000000 0.000000 0.000000
7 10.000000 0.000000 0.000000 0.000000 0.000000 0.000000
8 0.000000 -6.000000 8.000000 0.000000 -0.397809 -1.570796
9 11.000000 0.000000 0.000000 0.000000 0.000000 0.000000
10 10.000000 0.000000 0.000000 0.000000 0.000000 0.000000
11 0.000000 4.000000 -2.000000 0.000000 0.497261 0.000000
12 0.000000 0.000000 -17.000000 0.000000 0.000000 0.000000
13 0.000000 0.000000 -17.000000 0.000000 0.000000 0.000000
14 0.000000 -4.000000 -2.000000 0.000000 -0.497261 0.000000
15 0.000000 0.000000 -17.000000 0.000000 0.795618 0.000000
16 0.000000 0.000000 -17.000000 0.000000 0.000000 0.000000
time 9
0 0.000000 0.000000 38.760845 0.000000 0.000000 0.000000
1 0.000000 0.000000 4.000000 0.000000 0.000000 0.000000
2 0.000000 0.000000 10.000000 0.000000 0.000000 0.000000
3 0.000000 0.000000 10.000000 0.000000 0.000000 0.000000
4 0.000000 0.000000 4.000000 0.000000 0.000000 0.000000
5 0.000000 6.000000 8.000000 0.000000 -0.380423 1.570796
6 11.000000 0.000000 0.000000 0.000000 0.000000 0.000000
7 10.000000 0.000000 0.000000 0.000000 0.000000 0.000000
8 0.000000 -6.000000 8.000000 0.000000 -0.380423 -1.570796
9 11.000000 0.000000 0.000000 0.000000 0.000000 0.000000
10 10.000000 0.000000 0.000000 0.000000 0.000000 0.000000
11 0.000000 4.000000 -2.000000 0.000000 0.475528 0.000000
12 0.000000 0.000000 -17.000000 0.000000 0.000000 0.000000
13 0.000000 0.000000 -17.000000 0.000000 0.000000 0.000000
14 0.000000 -4.000000 -2.000000 0.000000 -0.475528 0.000000
15 0.000000 0.000000 -17.000000 0.000000 0.760845 0.000000
16 0.000000 0.000000 -17.000000 0.000000 0.000000 0.000000
time 10
0 0.000000 0.000000 38.692820 0.000000 0.000000 0.000000
1 0.000000 0.000000 4.000000 0.000000 0.000000 0.000000
2 0.000000 0.000000 10.000000 0.000000 0.000000 0.000000
3 0.000000 0.000000 10.000000 0.000000 0.000000 0.000000
4 0.000000 0.000000 4.000000 0.000000 0.000000 0.000000
5 0.000000 6.000000 8.000000 0.000000 -0.346410 1.570796
6 11.000000 0.000000 0.000000 0.000000 0.000000 0.000000
7 10.000000 0.000000 0.000000 0.000000 0.000000 0.000000
8 0.000000 -6.000000 8.000000 0.000000 -0.346410 -1.570796
9 11.000000 0.000000 0.000000 0.000000 0.000000 0.000000
10 10.000000 0.000000 0.000000 0.000000 0.000000 0.000000
11 0.000000 4.000000 -2.000000 0.000000 0.433013 0.000000
12 0.000000 0.000000 -17.000000 0.000000 0.000000 0.000000
13 0.000000 0.000000 -17.000000 0.000000 0.000000 0.000000
14 0.000000 -4.000000 -2.000000 0.000000 -0.433013 0.000000
15 0.000000 0.000000 -17.000000 0.000000 0.692820 0.000000
16 0.000000 0.000000 -17.000000 0.000000 0.000000 0.000000
time 11
0 0.000000 0.000000 38.594516 0.000000 0.000000 0.000000
1 0.000000 0.000000 4.000000 0.000000 0.000000 0.000000
2 0.000000 0.000000 10.000000 0.000000 0.000000 0.000000
3 0.000000 0.000000 10.000000 0.000000 0.000000 0.000000
4 0.000000 0.000000 4.000000 0.000000 0.000000 0.000000
5 0.000000 6.000000 8.000000 0.000000 -0.297258 1.570796
6 11.000000 0.000000 0.000000 0.000000 0.000000 0.000000
7 10.000000 0.000000 0.000000 0.000000 0.000000 0.000000
8 0.000000 -6.000000 8.000000 0.000000 -0.297258 -1.570796
9 11.000000 0.000000 0.000000 0.000000 0.000000 0.000000
10 10.000000 0.000000 0.000000 0.000000 0.000000 0.000000
11 0.000000 4.000000 -2.000000 0.000000 0.371572 0.000000
12 0.000000 0.000000 -17.000000 0.000000 0.000000 0.000000
13 0.000000 0.000000 -17.000000 0.000000 0.000000 0.000000
14 0.000000 -4.000000 -2.000000 0.000000 -0.371572 0.000000
15 0.000000 0.000000 -17.000000 0.000000 0.594516 0.000000
16 0.000000 0.000000 -17.000000 0.000000 0.000000 0.000000
time 12
0 0.000000 0.000000 38.470228 0.000000 0.000000 0.000000
1 0.000000 0.000000 4.000000 0.000000 0.000000 0.000000
2 0.000000 0.000000 10.000000 0.000000 0.000000 0.000000
3 0.000000 0.000000 10.000000 0.000000 0.000000 0.000000
4 0.000000 0.000000 4.000000 0.000000 0.000000 0.000000
5 0.000000 6.000000 8.000000 0.000000 -0.235114 1.570796
6 11.000000 0.000000 0.000000 0.000000 0.000000 0.000000
7 10.000000 0.000000 0.000000 0.000000 0.000000 0.000000
8 0.000000 -6.000000 8.000000 0.000000 -0.235114 -1.570796
9 11.000000 0.000000 0.000000 0.000000 0.000000 0.000000
10 10.000000 0.000000 0.000000 0.000000 0.000000 0.000000
11 0.000000 4.000000 -2.000000 0.000000 0.293893 0.000000
12 0.000000 0.000000 -17.000000 0.000000 0.000000 0.000000
13 0.000000 0.000000 -17.000000 0.000000 0.000000 0.000000
14 0.000000 -4.000000 -2.000000 0.000000 -0.293893 0.000000
15 0.000000 0.000000 -17.000000 0.000000 0.470228 0.000000
16 0.000000 0.000000 -17.000000 0.000000 0.000000 0.000000
time 13
0 0.000000 0.000000 38.325389 0.000000 0.000000 0.000000
1 0.000000 0.000000 4.000000 0.000000 0.000000 0.000000
2 0.000000 0.000000 10.000000 0.000000 0.000000 0.000000
3 0.000000 0.000000 10.000000 0.000000 0.000000 0.000000
4 0.000000 0.000000 4.000000 0.000000 0.000000 0.000000
5 0.000000 6.000000 8.000000 0.000000 -0.162695 1.570796
6 11.000000 0.000000 0.000000 0.000000 0.000000 0.000000
7 10.000000 0.000000 0.000000 0.000000 0.000000 0.000000
8 0.000000 -6.000000 8.000000 0.000000 -0.162695 -1.570796
9 11.000000 0.000000 0.000000 0.000000 0.000000 0.000000
10 10.000000 0.000000 0.000000 0.000000 0.000000 0.000000
11 0.000000 4.000000 -2.000000 0.000000 0.203368 0.000000
12 0.000000 0.000000 -17.000000 0.000000 0.000000 0.000000
13 0.000000 0.000000 -17.000000 0.000000 0.000000 0.000000
14 0.000000 -4.000000 -2.000000 0.000000 -0.203368 0.000000
15 0.000000 0.000000 -17.000000 0.000000 0.325389 0.000000
16 0.000000 0.000000 -17.000000 0.000000 0.000000 0.000000
time 14
0 0.000000 0.000000 38.166329 0.000000 0.000000 0.000000
1 0.000000 0.000000 4.000000 0.000000 0.000000 0.000000
2 0.000000 0.000000 10.000000 0.000000 0.000000 0.000000
3 0.000000 0.000000 10.000000 0.000000 0.000000 0.000000
4 0.000000 0.000000 4.000000 0.000000 0.000000 0.000000
5 0.000000 6.000000 8.000000 0.000000 -0.083165 1.570796
6 11.000000 0.000000 0.000000 0.000000 0.000000 0.000000
7 10.000000 0.000000 0.000000 0.000000 0.000000 0.000000
8 0.000000 -6.000000 8.000000 0.000000 -0.083165 -1.570796
9 11.000000 0.000000 0.000000 0.000000 0.000000 0.000000
10 10.000000 0.000000 0.000000 0.000000 0.000000 0.000000
11 0.000000 4.000000 -2.000000 0.000000 0.103956 0.000000
12 0.000000 0.000000 -17.000000 0.000000 0.000000 0.000000
13 0.000000 0.000000 -17.000000 0.000000 0.000000 0.000000
14 0.000000 -4.000000 -2.000000 0.000000 -0.103956 0.000000
15 0.000000 0.000000 -17.000000 0.000000 0.166329 0.000000
16 0.000000 0.000000 -17.000000 0.000000 0.000000 0.000000
time 15
0 0.000000 0.000000 38.000000 0.000000 0.000000 0.000000
1 0.000000 0.000000 4.000000 0.000000 0.000000 0.000000
2 0.000000 0.000000 10.000000 0.000000 0.000000 0.000000
3 0.000000 0.000000 10.000000 0.000000 0.000000 0.000000
4 0.000000 0.000000 4.000000 0.000000 0.000000 0.000000
5 0.000000 6.000000 8.000000 0.000000 -0.000000 1.570796
6 11.000000 0.000000 0.000000 0.000000 0.000000 0.000000
7 10.000000 0.000000 0.000000 0.000000 0.000000 0.000000
8 0.000000 -6.000000 8.000000 0.000000 -0.000000 -1.570796
9 11.000000 0.000000 0.000000 0.000000 0.000000 0.000000
10 10.000000 0.000000 0.000000 0.000000 0.000000 0.000000
11 0.000000 4.000000 -2.000000 0.000000 0.000000 0.000000
12 0.000000 0.000000 -17.000000 0.000000 0.000000 0.000000
13 0.000000 0.000000 -17.000000 0.000000 0.000000 0.000000
14 0.000000 -4.000000 -2.000000 0.000000 -0.000000 0.000000
15 0.000000 0.000000 -17.000000 0.000000 0.000000 0.000000
16 0.000000 0.000000 -17.000000 0.000000 0.000000 0.000000
time 16
0 0.000000 0.000000 38.166329 0.000000 0.000000 0.000000
1 0.000000 0.000000 4.000000 0.000000 0.000000 0.000000
2 0.000000 0.000000 10.000000 0.000000 0.000000 0.000000
3 0.000000 0.000000 10.000000 0.000000 0.000000 0.000000
4 0.000000 0.000000 4.000000 0.000000 0.000000 0.000000
5 0.000000 6.000000 8.000000 0.000000 0.083165 1.570796
6 11.000000 0.000000 0.000000 0.000000 0.000000 0.000000
7 10.000000 0.000000 0.000000 0.000000 0.000000 0.000000
8 0.000000 -6.000000 8.000000 0.000000 0.083165 -1.570796
9 11.000000 0.000000 0.000000 0.000000 0.000000 0.000000
10 10.000000 0.000000 0.000000 0.000000 0.000000 0.000000
11 0.000000 4.000000 -2.000000 0.000000 -0.103956 0.000000
12 0.000000 0.000000 -17.000000 0.000000 0.166329 0.000000
13 0.000000 0.000000 -17.000000 0.000000 0.000000 0.000000
14 0.000000 -4.000000 -2.000000 0.000000 0.103956 0.000000
15 0.000000 0.000000 -17.000000 0.000000 0.000000 0.000000
16 0.000000 0.000000 -17.000000 0.000000 0.000000 0.000000
time 17
0 0.000000 0.000000 38.325389 0.000000 0.000000 0.000000
1 0.000000 0.000000 4.000000 0.000000 0.000000 0.000000
2 0.000000 0.000000 10.000000 0.000000 0.000000 0.000000
3 0.000000 0.000000 10.000000 0.000000 0.000000 0.000000
4 0.000000 0.000000 4.000000 0.000000 0.000000 0.000000
5 0.000000 6.000000 8.000000 0.000000 0.162695 1.570796
6 11.000000 0.000000 0.000000 0.000000 0.000000 0.000000
7 10.000000 0.000000 0.000000 0.000000 0.000000 0.000000
8 0.000000 -6.000000 8.000000 0.000000 0.162695 -1.570796
9 11.000000 0.000000 0.000000 0.000000 0.000000 0.000000
10 10.000000 0.000000 0.000000 0.000000 0.000000 0.000000
11 0.000000 4.000000 -2.000000 0.000000 -0.203368 0.000000
12 0.000000 0.000000 -17.000000 0.000000 0.325389 0.000000
13 0.000000 0.000000 -17.000000 0.000000 0.000000 0.000000
14 0.000000 -4.000000 -2.000000 0.000000 0.203368 0.000000
15 0.000000 0.000000 -17.000000 0.000000 0.000000 0.000000
16 0.000000 0.000000 -17.000000 0.000000 0.000000 0.000000
time 18
0 0.000000 0.000000 38.470228 0.000000 0.000000 0.000000
1 0.000000 0.000000 4.000000 0.000000 0.000000 0.000000
2 0.000000 0.000000 10.000000 0.000000 0.000000 0.000000
3 0.000000 0.000000 10.000000 0.000000 0.000000 0.000000
4 0.000000 0.000000 4.000000 0.000000 0.000000 0.000000
5 0.000000 6.000000 8.000000 0.000000 0.235114 1.570796
6 11.000000 0.000000 0.000000 0.000000 0.000000 0.000000
7 10.000000 0.000000 0.000000 0.000000 0.000000 0.000000
8 0.000000 -6.000000 8.000000 0.000000 0.235114 -1.570796
9 11.000000 0.000000 0.000000 0.000000 0.000000 0.000000
10 10.000000 0.000000 0.000000 0.000000 0.000000 0.000000
11 0.000000 4.000000 -2.000000 0.000000 -0.293893 0.000000
12 0.000000 0.000000 -17.000000 0.000000 0.470228 0.000000
13 0.000000 0.000000 -17.000000 0.000000 0.000000 0.000000
14 0.000000 -4.000000 -2.000000 0.000000 0.293893 0.000000
15 0.000000 0.000000 -17.000000 0.000000 0.000000 0.000000
16 0.000000 0.000000 -17.000000 0.000000 0.000000 0.000000
time 19
0 0.000000 0.000000 38.594516 0.000000 0.000000 0.000000
1 0.000000 0.000000 4.000000 0.000000 0.000000 0.000000
2 0.000000 0.000000 10.000000 0.000000 0.000000 0.000000
3 0.000000 0.000000 10.000000 0.000000 0.000000 0.000000
4 0.000000 0.000000 4.000000 0.000000 0.000000 0.000000
5 0.000000 6.000000 8.000000 0.000000 0.297258 1.570796
6 11.000000 0.000000 0.000000 0.000000 0.000000 0.000000
7 10.000000 0.000000 0.000000 0.000000 0.000000 0.000000
8 0.000000 -6.000000 8.000000 0.000000 0.297258 -1.570796
9 11.000000 0.000000 0.000000 0.000000 0.000000 0.000000
10 10.000000 0.000000 0.000000 0.000000 0.000000 0.000000
11 0.000000 4.000000 -2.000000 0.000000 -0.371572 0.000000
12 0.000000 0.000000 -17.000000 0.000000 0.594516 0.000000
13 0.000000 0.000000 -17.000000 0.000000 0.000000 0.000000
14 0.000000 -4.000000 -2.000000 0.000000 0.371572 0.000000
15 0.000000 0.000000 -17.000000 0.000000 0.000000 0.000000
16 0.000000 0.000000 -17.000000 0.000000 0.000000 0.000000
time 20
0 0.000000 0.000000 38.692820 0.000000 0.000000 0.000000
1 0.000000 0.000000 4.000000 0.000000 0.000000 0.000000
2 0.000000 0.000000 10.000000 0.000000 0.000000 0.000000
3 0.000000 0.000000 10.000000 0.000000 0.000000 0.000000
4 0.000000 0.000000 4.000000 0.000000 0.000000 0.000000
5 0.000000 6.000000 8.000000 0.000000 0.346410 1.570796
6 11.000000 0.000000 0.000000 0.000000 0.000000 0.000000
7 10.000000 0.000000 0.000000 0.000000 0.000000 0.000000
8 0.000000 -6.000000 8.000000 0.000000 0.346410 -1.570796
9 11.000000 0.000000 0.000000 0.000000 0.000000 0.000000
10 10.000000 0.000000 0.000000 0.000000 0.000000 0.000000
11 0.000000 4.000000 -2.000000 0.000000 -0.433013 0.000000
12 0.000000 0.000000 -17.000000 0.000000 0.692820 0.000000
13 0.000000 0.000000 -17.000000 0.000000 0.000000 0.000000
14 0.000000 -4.000000 -2.000000 0.000000 0.433013 0.000000
15 0.000000 0.000000 -17.000000 0.000000 0.000000 0.000000
16 0.000000 0.000000 -17.000000 0.000000 0.000000 0.000000
time 21
0 0.000000 0.000000 38.760845 0.000000 0.000000 0.000000
1 0.000000 0.000000 4.000000 0.000000 0.000000 0.000000
2 0.000000 0.000000 10.000000 0.000000 0.000000 0.000000
3 0.000000 0.000000 10.000000 0.000000 0.000000 0.000000
4 0.000000 0.000000 4.000000 0.000000 0.000000 0.000000
5 0.000000 6.000000 8.000000 0.000000 0.380423 1.570796
6 11.000000 0.000000 0.000000 0.000000 0.000000 0.000000
7 10.000000 0.000000 0.000000 0.000000 0.000000 0.000000
8 0.000000 -6.000000 8.000000 0.000000 0.380423 -1.570796
9 11.000000 0.000000 0.000000 0.000000 0.000000 0.000000
10 10.000000 0.000000 0.000000 0.000000 0.000000 0.000000
11 0.000000 4.000000 -2.000000 0.000000 -0.475528 0.000000
12 0.000000 0.000000 -17.000000 0.000000 0.760845 0.000000
13 0.000000 0.000000 -17.000000 0.000000 0.000000 0.000000
14 0.000000 -4.000000 -2.000000 0.000000 0.475528 0.000000
15 0.000000 0.000000 -17.000000 0.000000 0.000000 0.000000
16 0.000000 0.000000 -17.000000 0.000000 0.000000 0.000000
time 22
0 0.000000 0.000000 38.795618 0.000000 0.000000 0.000000
1 0.000000 0.000000 4.000000 0.000000 0.000000 0.000000
2 0.000000 0.000000 10.000000 0.000000 0.000000 0.000000
3 0.000000 0.000000 10.000000 0.000000 0.000000 0.000000
4 0.000000 0.000000 4.000000 0.000000 0.000000 0.000000
5 0.000000 6.000000 8.000000 0.000000 0.397809 1.570796
6 11.000000 0.000000 0.000000 0.000000 0.000000 0.000000
7 10.000000 0.000000 0.000000 0.000000 0.000000 0.000000
8 0.000000 -6.000000 8.000000 0.000000 0.397809 -1.570796
9 11.000000 0.000000 0.000000 0.000000 0.000000 0.000000
10 10.000000 0.000000 0.000000 0.000000 0.000000 0.000000
11 0.000000 4.000000 -2.000000 0.000000 -0.497261 0.000000
12 0.000000 0.000000 -17.000000 0.000000 0.795618 0.000000
13 0.000000 0.000000 -17.000000 0.000000 0.000000 0.000000
14 0.000000 -4.000000 -2.000000 0.000000 0.497261 0.000000
15 0.000000 0.000000 -17.000000 0.000000 0.000000 0.000000
16 0.000000 0.000000 -17.000000 0.000000 0.000000 0.000000
time 23
0 0.000000 0.000000 38.795618 0.000000 0.000000 0.000000
1 0.000000 0.000000 4.000000 0.000000 0.000000 0.000000
2 0.000000 0.000000 10.000000 0.000000 0.000000 0.000000
3 0.000000 0.000000 10.000000 0.000000 0.000000 0.000000
4 0.000000 0.000000 4.000000 0.000000 0.000000 0.000000
5 0.000000 6.000000 8.000000 0.000000 0.397809 1.570796
6 11.000000 0.000000 0.000000 0.000000 0.000000 0.000000
7 10.000000 0.000000 0.000000 0.000000 0.000000 0.000000
8 0.000000 -6.000000 8.000000 0.000000 0.397809 -1.570796
9 11.000000 0.000000 0.000000 0.000000 0.000000 0.000000
10 10.000000 0.000000 0.000000 0.000000 0.000000 0.000000
11 0.000000 4.000000 -2.000000 0.000000 -0.497261 0.000000
12 0.000000 0.000000 -17.000000 0.000000 0.795618 0.000000
13 0.000000 0.000000 -17.000000 0.000000 0.000000 0.000000
14 0.000000 -4.000000 -2.000000 0.000000 0.497261 0.000000
15 0.000000 0.000000 -17.000000 0.000000 0.000000 0.000000
16 0.000000 0.000000 -17.000000 0.000000 0.000000 0.000000
time 24
0 0.000000 0.000000 38.760845 0.000000 0.000000 0.000000
1 0.000000 0.000000 4.000000 0.000000 0.000000 0.000000
2 0.000000 0.000000 10.000000 0.000000 0.000000 0.000000
3 0.000000 0.000000 10.000000 0.000000 0.000000 0.000000
4 0.000000 0.000000 4.000000 0.000000 0.000000 0.000000
5 0.000000 6.000000 8.000000 0.000000 0.380423 1.570796
6 11.000000 0.000000 0.000000 0.000000 0.000000 0.000000
7 10.000000 0.000000 0.000000 0.000000 0.000000 0.000000
8 0.000000 -6.000000 8.000000 0.000000 0.380423 -1.570796
9 11.000000 0.000000 0.000000 0.000000 0.000000 0.000000
10 10.000000 0.000000 0.000000 0.000000 0.000000 0.000000
11 0.000000 4.000000 -2.000000 0.000000 -0.475528 0.000000
12 0.000000 0.000000 -17.000000 0.000000 0.760845 0.000000
13 0.000000 0.000000 -17.000000 0.000000 0.000000 0.000000
14 0.000000 -4.000000 -2.000000 0.000000 0.475528 0.000000
15 0.000000 0.000000 -17.000000 0.000000 0.000000 0.000000
16 0.000000 0.000000 -17.000000 0.000000 0.000000 0.000000
time 25
0 0.000000 0.000000 38.692820 0.000000 0.000000 0.000000
1 0.000000 0.000000 4.000000 0.000000 0.000000 0.000000
2 0.000000 0.000000 10.000000 0.000000 0.000000 0.000000
3 0.000000 0.000000 10.000000 0.000000 0.000000 0.000000
4 0.000000 0.000000 4.000000 0.000000 0.000000 0.000000
5 0.000000 6.000000 8.000000 0.000000 0.346410 1.570796
6 11.000000 0.000000 0.000000 0.000000 0.000000 0.000000
7 10.000000 0.000000 0.000000 0.000000 0.000000 0.000000
8 0.000000 -6.000000 8.000000 0.000000 0.346410 -1.570796
9 11.000000 0.000000 0.000000 0.000000 0.000000 0.000000
10 10.000000 0.000000 0.000000 0.000000 0.000000 0.000000
11 0.000000 4.000000 -2.000000 0.000000 -0.433013 0.000000
12 0.000000 0.000000 -17.000000 0.000000 0.692820 0.000000
13 0.000000 0.000000 -17.000000 0.000000 0.000000 0.000000
14 0.000000 -4.000000 -2.000000 0.000000 0.433013 0.000000
15 0.000000 0.000000 -17.000000 0.000000 0.000000 0.000000
16 0.000000 0.000000 -17.000000 0.000000 0.000000 0.000000
time 26
0 0.000000 0.000000 38.594516 0.000000 0.000000 0.000000
1 0.000000 0.000000 4.000000 0.000000 0.000000 0.000000
2 0.000000 0.000000 10.000000 0.000000 0.000000 0.000000
3 0.000000 0.000000 10.000000 0.000000 0.000000 0.000000
4 0.000000 0.000000 4.000000 0.000000 0.000000 0.000000
5 0.000000 6.000000 8.000000 0.000000 0.297258 1.570796
6 11.000000 0.000000 0.000000 0.000000 0.000000 0.000000
7 10.000000 0.000000 0.000000 0.000000 0.000000 0.000000
8 0.000000 -6.000000 8.000000 0.000000 0.297258 -1.570796
9 11.000000 0.000000 0.000000 0.000000 0.000000 0.000000
10 10.000000 0.000000 0.000000 0.000000 0.000000 0.000000
11 0.000000 4.000000 -2.000000 0.000000 -0.371572 0.000000
12 0.000000 0.000000 -17.000000 0.000000 0.594516 0.000000
13 0.000000 0.000000 -17.000000 0.000000 0.000000 0.000000
14 0.000000 -4.000000 -2.000000 0.000000 0.371572 0.000000
15 0.000000 0.000000 -17.000000 0.000000 0.000000 0.000000
16 0.000000 0.000000 -17.000000 0.000000 0.000000 0.000000
time 27
0 0.000000 0.000000 38.470228 0.000000 0.000000 0.000000
1 0.000000 0.000000 4.000000 0.000000 0.000000 0.000000
2 0.000000 0.000000 10.000000 0.000000 0.000000 0.000000
3 0.000000 0.000000 10.000000 0.000000 0.000000 0.000000
4 0.000000 0.000000 4.000000 0.000000 0.000000 0.000000
5 0.000000 6.000000 8.000000 0.000000 0.235114 1.570796
6 11.000000 0.000000 0.000000 0.000000 0.000000 0.000000
7 10.000000 0.000000 0.000000 0.000000 0.000000 0.000000
8 0.000000 -6.000000 8.000000 0.000000 0.235114 -1.570796
9 11.000000 0.000000 0.000000 0.000000 0.000000 0.000000
10 10.000000 0.000000 0.000000 0.000000 0.000000 0.000000
11 0.000000 4.000000 -2.000000 0.000000 -0.293893 0.000000
12 0.000000 0.000000 -17.000000 0.000000 0.470228 0.000000
13 0.000000 0.000000 -17.000000 0.000000 0.000000 0.000000
14 0.000000 -4.000000 -2.000000 0.000000 0.293893 0.000000
15 0.000000 0.000000 -17.000000 0.000000 0.000000 0.000000
16 0.000000 0.000000 -17.000000 0.000000 0.000000 0.000000
time 28
0 0.000000 0.000000 38.325389 0.000000 0.000000 0.000000
1 0.000000 0.000000 4.000000 0.000000 0.000000 0.000000
2 0.000000 0.000000 10.000000 0.000000 0.000000 0.000000
3 0.000000 0.000000 10.000000 0.000000 0.000000 0.000000
4 0.000000 0.000000 4.000000 0.000000 0.000000 0.000000
5 0.000000 6.000000 8.000000 0.000000 0.162695 1.570796
6 11.000000 0.000000 0.000000 0.000000 0.000000 0.000000
7 10.000000 0.000000 0.000000 0.000000 0.000000 0.000000
8 0.000000 -6.000000 8.000000 0.000000 0.162695 -1.570796
9 11.000000 0.000000 0.000000 0.000000 0.000000 0.000000
10 10.000000 0.000000 0.000000 0.000000 0.000000 0.000000
11 0.000000 4.000000 -2.000000 0.000000 -0.203368 0.000000
12 0.000000 0.000000 -17.000000 0.000000 0.325389 0.000000
13 0.000000 0.000000 -17.000000 0.000000 0.000000 0.000000
14 0.000000 -4.000000 -2.000000 0.000000 0.203368 0.000000
15 0.000000 0.000000 -17.000000 0.000000 0.000000 0.000000
16 0.000000 0.000000 -17.000000 0.000000 0.000000 0.000000
time 29
0 0.000000 0.000000 38.166329 0.000000 0.000000 0.000000
1 0.000000 0.000000 4.000000 0.000000 0.000000 0.000000
2 0.000000 0.000000 10.000000 0.000000 0.000000 0.000000
3 0.000000 0.000000 10.000000 0.000000 0.000000 0.000000
4 0.000000 0.000000 4.000000 0.000000 0.000000 0.000000
5 0.000000 6.000000 8.000000 0.000000 0.083165 1.570796
6 11.000000 0.000000 0.000000 0.000000 0.000000 0.000000
7 10.000000 0.000000 0.000000 0.000000 0.000000 0.000000
8 0.000000 -6.000000 8.000000 0.000000 0.083165 -1.570796
9 11.000000 0.000000 0.000000 0.000000 0.000000 0.000000
10 10.000000 0.000000 0.000000 0.000000 0.000000 0.000000
11 0.000000 4.000000 -2.000000 0.000000 -0.103956 0.000000
12 0.000000 0.000000 -17.000000 0.000000 0.166329 0.000000
13 0.000000 0.000000 -17.000000 0.000000 0.000000 0.000000
14 0.000000 -4.000000 -2.000000 0.000000 0.103956 0.000000
15 0.000000 0.000000 -17.000000 0.000000 0.000000 0.000000
16 0.000000 0.000000 -17.000000 0.000000 0.000000 0.000000
end
