version 1
nodes
0 "ValveBiped.Bip01_Pelvis" -1
1 "ValveBiped.Bip01_Spine" 0
2 "ValveBiped.Bip01_Spine2" 1
3 "ValveBiped.Bip01_Neck1" 2
4 "ValveBiped.Bip01_Head1" 3
5 "ValveBiped.Bip01_L_UpperArm" 2
6 "ValveBiped.Bip01_L_Forearm" 5
7 "ValveBiped.Bip01_L_Hand" 6
8 "ValveBiped.Bip01_R_UpperArm" 2
9 "ValveBiped.Bip01_R_Forearm" 8
10 "ValveBiped.Bip01_R_Hand" 9
11 "ValveBiped.Bip01_L_Thigh" 0
12 "ValveBiped.Bip01_L_Calf" 11
13 "ValveBiped.Bip01_L_Foot" 12
14 "ValveBiped.Bip01_R_Thigh" 0
15 "ValveBiped.Bip01_R_Calf" 14
16 "ValveBiped.Bip01_R_Foot" 15
end
skeleton
time 0
0 0.000000 0.000000 38.000000 0.000000 0.000000 0.000000
1 0.000000 0.000000 4.000000 0.000000 0.000000 0.000000
2 0.000000 0.000000 10.000000 0.000000 0.000000 0.000000
3 0.000000 0.000000 10.000000 0.000000 0.000000 0.000000
4 0.000000 0.000000 4.000000 0.000000 0.000000 0.000000
5 0.000000 6.000000 8.000000 0.000000 0.000000 1.570796
6 11.000000 0.000000 0.000000 0.000000 0.000000 0.000000
7 10.000000 0.000000 0.000000 0.000000 0.000000 0.000000
8 0.000000 -6.000000 8.000000 0.000000 0.000000 -1.570796
9 11.000000 0.000000 0.000000 0.000000 0.000000 0.000000
10 10.000000 0.000000 0.000000 0.000000 0.000000 0.000000
11 0.000000 4.000000 -2.000000 0.000000 0.000000 0.000000
12 0.000000 0.000000 -17.000000 0.000000 0.000000 0.000000
13 0.000000 0.000000 -17.000000 0.000000 0.000000 0.000000
14 0.000000 -4.000000 -2.000000 0.000000 0.000000 0.000000
15 0.000000 0.000000 -17.000000 0.000000 0.000000 0.000000
16 0.000000 0.000000 -17.000000 0.000000 0.000000 0.000000
time 1
0 0.000000 0.000000 38.154508 0.000000 0.000000 0.000000
1 0.000000 0.000000 4.000000 0.000000 0.000000 0.000000
2 0.000000 0.000000 10.000000 0.015451 0.000000 0.000000
3 0.000000 0.000000 10.000000 0.000000 0.000000 0.000000
4 0.000000 0.000000 4.000000 0.000000 0.000000 0.061803
5 0.000000 6.000000 8.000000 0.000000 0.000000 1.570796
6 11.000000 0.000000 0.000000 0.000000 0.000000 0.000000
7 10.000000 0.000000 0.000000 0.000000 0.000000 0.000000
8 0.000000 -6.000000 8.000000 0.000000 0.000000 -1.570796
9 11.000000 0.000000 0.000000 0.000000 0.000000 0.000000
10 10.000000 0.000000 0.000000 0.000000 0.000000 0.000000
11 0.000000 4.000000 -2.000000 0.000000 0.000000 0.000000
12 0.000000 0.000000 -17.000000 0.000000 0.000000 0.000000
13 0.000000 0.000000 -17.000000 0.000000 0.000000 0.000000
14 0.000000 -4.000000 -2.000000 0.000000 0.000000 0.000000
15 0.000000 0.000000 -17.000000 0.000000 0.000000 0.000000
16 0.000000 0.000000 -17.000000 0.000000 0.000000 0.000000
time 2
0 0.000000 0.000000 38.293893 0.000000 0.000000 0.000000
1 0.000000 0.000000 4.000000 0.000000 0.000000 0.000000
2 0.000000 0.000000 10.000000 0.029389 0.000000 0.000000
3 0.000000 0.000000 10.000000 0.000000 0.000000 0.000000
4 0.000000 0.000000 4.000000 0.000000 0.000000 0.117557
5 0.000000 6.000000 8.000000 0.000000 0.000000 1.570796
6 11.000000 0.000000 0.000000 0.000000 0.000000 0.000000
7 10.000000 0.000000 0.000000 0.000000 0.000000 0.000000
8 0.000000 -6.000000 8.000000 0.000000 0.000000 -1.570796
9 11.000000 0.000000 0.000000 0.000000 0.000000 0.000000
10 10.000000 0.000000 0.000000 0.000000 0.000000 0.000000
11 0.000000 4.000000 -2.000000 0.000000 0.000000 0.000000
12 0.000000 0.000000 -17.000000 0.000000 0.000000 0.000000
13 0.000000 0.000000 -17.000000 0.000000 0.000000 0.000000
14 0.000000 -4.000000 -2.000000 0.000000 0.000000 0.000000
15 0.000000 0.000000 -17.000000 0.000000 0.000000 0.000000
16 0.000000 0.000000 -17.000000 0.000000 0.000000 0.000000
time 3
0 0.000000 0.000000 38.404508 0.000000 0.000000 0.000000
1 0.000000 0.000000 4.000000 0.000000 0.000000 0.000000
2 0.000000 0.000000 10.000000 0.040451 0.000000 0.000000
3 0.000000 0.000000 10.000000 0.000000 0.000000 0.000000
4 0.000000 0.000000 4.000000 0.000000 0.000000 0.161803
5 0.000000 6.000000 8.000000 0.000000 0.000000 1.570796
6 11.000000 0.000000 0.000000 0.000000 0.000000 0.000000
7 10.000000 0.000000 0.000000 0.000000 0.000000 0.000000
8 0.000000 -6.000000 8.000000 0.000000 0.000000 -1.570796
9 11.000000 0.000000 0.000000 0.000000 0.000000 0.000000
10 10.000000 0.000000 0.000000 0.000000 0.000000 0.000000
11 0.000000 4.000000 -2.000000 0.000000 0.000000 0.000000
12 0.000000 0.000000 -17.000000 0.000000 0.000000 0.000000
13 0.000000 0.000000 -17.000000 0.000000 0.000000 0.000000
14 0.000000 -4.000000 -2.000000 0.000000 0.000000 0.000000
15 0.000000 0.000000 -17.000000 0.000000 0.000000 0.000000
16 0.000000 0.000000 -17.000000 0.000000 0.000000 0.000000
time 4
0 0.000000 0.000000 38.475528 0.000000 0.000000 0.000000
1 0.000000 0.000000 4.000000 0.000000 0.000000 0.000000
2 0.000000 0.000000 10.000000 0.047553 0.000000 0.000000
3 0.000000 0.000000 10.000000 0.000000 0.000000 0.000000
4 0.000000 0.000000 4.000000 0.000000 0.000000 0.190211
5 0.000000 6.000000 8.000000 0.000000 0.000000 1.570796
6 11.000000 0.000000 0.000000 0.000000 0.000000 0.000000
7 10.000000 0.000000 0.000000 0.000000 0.000000 0.000000
8 0.000000 -6.000000 8.000000 0.000000 0.000000 -1.570796
9 11.000000 0.000000 0.000000 0.000000 0.000000 0.000000
10 10.000000 0.000000 0.000000 0.000000 0.000000 0.000000
11 0.000000 4.000000 -2.000000 0.000000 0.000000 0.000000
12 0.000000 0.000000 -17.000000 0.000000 0.000000 0.000000
13 0.000000 0.000000 -17.000000 0.000000 0.000000 0.000000
14 0.000000 -4.000000 -2.000000 0.000000 0.000000 0.000000
15 0.000000 0.000000 -17.000000 0.000000 0.000000 0.000000
16 0.000000 0.000000 -17.000000 0.000000 0.000000 0.000000
time 5
0 0.000000 0.000000 38.500000 0.000000 0.000000 0.000000
1 0.000000 0.000000 4.000000 0.000000 0.000000 0.000000
2 0.000000 0.000000 10.000000 0.050000 0.000000 0.000000
3 0.000000 0.000000 10.000000 0.000000 0.000000 0.000000
4 0.000000 0.000000 4.000000 0.000000 0.000000 0.200000
5 0.000000 6.000000 8.000000 0.000000 0.000000 1.570796
6 11.000000 0.000000 0.000000 0.000000 0.000000 0.000000
7 10.000000 0.000000 0.000000 0.000000 0.000000 0.000000
8 0.000000 -6.000000 8.000000 0.000000 0.000000 -1.570796
9 11.000000 0.000000 0.000000 0.000000 0.000000 0.000000
10 10.000000 0.000000 0.000000 0.000000 0.000000 0.000000
11 0.000000 4.000000 -2.000000 0.000000 0.000000 0.000000
12 0.000000 0.000000 -17.000000 0.000000 0.000000 0.000000
13 0.000000 0.000000 -17.000000 0.000000 0.000000 0.000000
14 0.000000 -4.000000 -2.000000 0.000000 0.000000 0.000000
15 0.000000 0.000000 -17.000000 0.000000 0.000000 0.000000
16 0.000000 0.000000 -17.000000 0.000000 0.000000 0.000000
time 6
0 0.000000 0.000000 38.475528 0.000000 0.000000 0.000000
1 0.000000 0.000000 4.000000 0.000000 0.000000 0.000000
2 0.000000 0.000000 10.000000 0.047553 0.000000 0.000000
3 0.000000 0.000000 10.000000 0.000000 0.000000 0.000000
4 0.000000 0.000000 4.000000 0.000000 0.000000 0.190211
5 0.000000 6.000000 8.000000 0.000000 0.000000 1.570796
6 11.000000 0.000000 0.000000 0.000000 0.000000 0.000000
7 10.000000 0.000000 0.000000 0.000000 0.000000 0.000000
8 0.000000 -6.000000 8.000000 0.000000 0.000000 -1.570796
9 11.000000 0.000000 0.000000 0.000000 0.000000 0.000000
10 10.000000 0.000000 0.000000 0.000000 0.000000 0.000000
11 0.000000 4.000000 -2.000000 0.000000 0.000000 0.000000
12 0.000000 0.000000 -17.000000 0.000000 0.000000 0.000000
13 0.000000 0.000000 -17.000000 0.000000 0.000000 0.000000
14 0.000000 -4.000000 -2.000000 0.000000 0.000000 0.000000
15 0.000000 0.000000 -17.000000 0.000000 0.000000 0.000000
16 0.000000 0.000000 -17.000000 0.000000 0.000000 0.000000
time 7
0 0.000000 0.000000 38.404508 0.000000 0.000000 0.000000
1 0.000000 0.000000 4.000000 0.000000 0.000000 0.000000
2 0.000000 0.000000 10.000000 0.040451 0.000000 0.000000
3 0.000000 0.000000 10.000000 0.000000 0.000000 0.000000
4 0.000000 0.000000 4.000000 0.000000 0.000000 0.161803
5 0.000000 6.000000 8.000000 0.000000 0.000000 1.570796
6 11.000000 0.000000 0.000000 0.000000 0.000000 0.000000
7 10.000000 0.000000 0.000000 0.000000 0.000000 0.000000
8 0.000000 -6.000000 8.000000 0.000000 0.000000 -1.570796
9 11.000000 0.000000 0.000000 0.000000 0.000000 0.000000
10 10.000000 0.000000 0.000000 0.000000 0.000000 0.000000
11 0.000000 4.000000 -2.000000 0.000000 0.000000 0.000000
12 0.000000 0.000000 -17.000000 0.000000 0.000000 0.000000
13 0.000000 0.000000 -17.000000 0.000000 0.000000 0.000000
14 0.000000 -4.000000 -2.000000 0.000000 0.000000 0.000000
15 0.000000 0.000000 -17.000000 0.000000 0.000000 0.000000
16 0.000000 0.000000 -17.000000 0.000000 0.000000 0.000000
time 8
0 0.000000 0.000000 38.293893 0.000000 0.000000 0.000000
1 0.000000 0.000000 4.000000 0.000000 0.000000 0.000000
2 0.000000 0.000000 10.000000 0.029389 0.000000 0.000000
3 0.000000 0.000000 10.000000 0.000000 0.000000 0.000000
4 0.000000 0.000000 4.000000 0.000000 0.000000 0.117557
5 0.000000 6.000000 8.000000 0.000000 0.000000 1.570796
6 11.000000 0.000000 0.000000 0.000000 0.000000 0.000000
7 10.000000 0.000000 0.000000 0.000000 0.000000 0.000000
8 0.000000 -6.000000 8.000000 0.000000 0.000000 -1.570796
9 11.000000 0.000000 0.000000 0.000000 0.000000 0.000000
10 10.000000 0.000000 0.000000 0.000000 0.000000 0.000000
11 0.000000 4.000000 -2.000000 0.000000 0.000000 0.000000
12 0.000000 0.000000 -17.000000 0.000000 0.000000 0.000000
13 0.000000 0.000000 -17.000000 0.000000 0.000000 0.000000
14 0.000000 -4.000000 -2.000000 0.000000 0.000000 0.000000
15 0.000000 0.000000 -17.000000 0.000000 0.000000 0.000000
16 0.000000 0.000000 -17.000000 0.000000 0.000000 0.000000
time 9
0 0.000000 0.000000 38.154508 0.000000 0.000000 0.000000
1 0.000000 0.000000 4.000000 0.000000 0.000000 0.000000
2 0.000000 0.000000 10.000000 0.015451 0.000000 0.000000
3 0.000000 0.000000 10.000000 0.000000 0.000000 0.000000
4 0.000000 0.000000 4.000000 0.000000 0.000000 0.061803
5 0.000000 6.000000 8.000000 0.000000 0.000000 1.570796
6 11.000000 0.000000 0.000000 0.000000 0.000000 0.000000
7 10.000000 0.000000 0.000000 0.000000 0.000000 0.000000
8 0.000000 -6.000000 8.000000 0.000000 0.000000 -1.570796
9 11.000000 0.000000 0.000000 0.000000 0.000000 0.000000
10 10.000000 0.000000 0.000000 0.000000 0.000000 0.000000
11 0.000000 4.000000 -2.000000 0.000000 0.000000 0.000000
12 0.000000 0.000000 -17.000000 0.000000 0.000000 0.000000
13 0.000000 0.000000 -17.000000 0.000000 0.000000 0.000000
14 0.000000 -4.000000 -2.000000 0.000000 0.000000 0.000000
15 0.000000 0.000000 -17.000000 0.000000 0.000000 0.000000
16 0.000000 0.000000 -17.000000 0.000000 0.000000 0.000000
time 10
0 0.000000 0.000000 38.000000 0.000000 0.000000 0.000000
1 0.000000 0.000000 4.000000 0.000000 0.000000 0.000000
2 0.000000 0.000000 10.000000 0.000000 0.000000 0.000000
3 0.000000 0.000000 10.000000 0.000000 0.000000 0.000000
4 0.000000 0.000000 4.000000 0.000000 0.000000 0.000000
5 0.000000 6.000000 8.000000 0.000000 0.000000 1.570796
6 11.000000 0.000000 0.000000 0.000000 0.000000 0.000000
7 10.000000 0.000000 0.000000 0.000000 0.000000 0.000000
8 0.000000 -6.000000 8.000000 0.000000 0.000000 -1.570796
9 11.000000 0.000000 0.000000 0.000000 0.000000 0.000000
10 10.000000 0.000000 0.000000 0.000000 0.000000 0.000000
11 0.000000 4.000000 -2.000000 0.000000 0.000000 0.000000
12 0.000000 0.000000 -17.000000 0.000000 0.000000 0.000000
13 0.000000 0.000000 -17.000000 0.000000 0.000000 0.000000
14 0.000000 -4.000000 -2.000000 0.000000 0.000000 0.000000
15 0.000000 0.000000 -17.000000 0.000000 0.000000 0.000000
16 0.000000 0.000000 -17.000000 0.000000 0.000000 0.000000
time 11
0 0.000000 0.000000 37.845492 0.000000 0.000000 0.000000
1 0.000000 0.000000 4.000000 0.000000 0.000000 0.000000
2 0.000000 0.000000 10.000000 -0.015451 0.000000 0.000000
3 0.000000 0.000000 10.000000 0.000000 0.000000 0.000000
4 0.000000 0.000000 4.000000 0.000000 0.000000 -0.061803
5 0.000000 6.000000 8.000000 0.000000 0.000000 1.570796
6 11.000000 0.000000 0.000000 0.000000 0.000000 0.000000
7 10.000000 0.000000 0.000000 0.000000 0.000000 0.000000
8 0.000000 -6.000000 8.000000 0.000000 0.000000 -1.570796
9 11.000000 0.000000 0.000000 0.000000 0.000000 0.000000
10 10.000000 0.000000 0.000000 0.000000 0.000000 0.000000
11 0.000000 4.000000 -2.000000 0.000000 0.000000 0.000000
12 0.000000 0.000000 -17.000000 0.000000 0.000000 0.000000
13 0.000000 0.000000 -17.000000 0.000000 0.000000 0.000000
14 0.000000 -4.000000 -2.000000 0.000000 0.000000 0.000000
15 0.000000 0.000000 -17.000000 0.000000 0.000000 0.000000
16 0.000000 0.000000 -17.000000 0.000000 0.000000 0.000000
time 12
0 0.000000 0.000000 37.706107 0.000000 0.000000 0.000000
1 0.000000 0.000000 4.000000 0.000000 0.000000 0.000000
2 0.000000 0.000000 10.000000 -0.029389 0.000000 0.000000
3 0.000000 0.000000 10.000000 0.000000 0.000000 0.000000
4 0.000000 0.000000 4.000000 0.000000 0.000000 -0.117557
5 0.000000 6.000000 8.000000 0.000000 0.000000 1.570796
6 11.000000 0.000000 0.000000 0.000000 0.000000 0.000000
7 10.000000 0.000000 0.000000 0.000000 0.000000 0.000000
8 0.000000 -6.000000 8.000000 0.000000 0.000000 -1.570796
9 11.000000 0.000000 0.000000 0.000000 0.000000 0.000000
10 10.000000 0.000000 0.000000 0.000000 0.000000 0.000000
11 0.000000 4.000000 -2.000000 0.000000 0.000000 0.000000
12 0.000000 0.000000 -17.000000 0.000000 0.000000 0.000000
13 0.000000 0.000000 -17.000000 0.000000 0.000000 0.000000
14 0.000000 -4.000000 -2.000000 0.000000 0.000000 0.000000
15 0.000000 0.000000 -17.000000 0.000000 0.000000 0.000000
16 0.000000 0.000000 -17.000000 0.000000 0.000000 0.000000
time 13
0 0.000000 0.000000 37.595492 0.000000 0.000000 0.000000
1 0.000000 0.000000 4.000000 0.000000 0.000000 0.000000
2 0.000000 0.000000 10.000000 -0.040451 0.000000 0.000000
3 0.000000 0.000000 10.000000 0.000000 0.000000 0.000000
4 0.000000 0.000000 4.000000 0.000000 0.000000 -0.161803
5 0.000000 6.000000 8.000000 0.000000 0.000000 1.570796
6 11.000000 0.000000 0.000000 0.000000 0.000000 0.000000
7 10.000000 0.000000 0.000000 0.000000 0.000000 0.000000
8 0.000000 -6.000000 8.000000 0.000000 0.000000 -1.570796
9 11.000000 0.000000 0.000000 0.000000 0.000000 0.000000
10 10.000000 0.000000 0.000000 0.000000 0.000000 0.000000
11 0.000000 4.000000 -2.000000 0.000000 0.000000 0.000000
12 0.000000 0.000000 -17.000000 0.000000 0.000000 0.000000
13 0.000000 0.000000 -17.000000 0.000000 0.000000 0.000000
14 0.000000 -4.000000 -2.000000 0.000000 0.000000 0.000000
15 0.000000 0.000000 -17.000000 0.000000 0.000000 0.000000
16 0.000000 0.000000 -17.000000 0.000000 0.000000 0.000000
time 14
0 0.000000 0.000000 37.524472 0.000000 0.000000 0.000000
1 0.000000 0.000000 4.000000 0.000000 0.000000 0.000000
2 0.000000 0.000000 10.000000 -0.047553 0.000000 0.000000
3 0.000000 0.000000 10.000000 0.000000 0.000000 0.000000
4 0.000000 0.000000 4.000000 0.000000 0.000000 -0.190211
5 0.000000 6.000000 8.000000 0.000000 0.000000 1.570796
6 11.000000 0.000000 0.000000 0.000000 0.000000 0.000000
7 10.000000 0.000000 0.000000 0.000000 0.000000 0.000000
8 0.000000 -6.000000 8.000000 0.000000 0.000000 -1.570796
9 11.000000 0.000000 0.000000 0.000000 0.000000 0.000000
10 10.000000 0.000000 0.000000 0.000000 0.000000 0.000000
11 0.000000 4.000000 -2.000000 0.000000 0.000000 0.000000
12 0.000000 0.000000 -17.000000 0.000000 0.000000 0.000000
13 0.000000 0.000000 -17.000000 0.000000 0.000000 0.000000
14 0.000000 -4.000000 -2.000000 0.000000 0.000000 0.000000
15 0.000000 0.000000 -17.000000 0.000000 0.000000 0.000000
16 0.000000 0.000000 -17.000000 0.000000 0.000000 0.000000
time 15
0 0.000000 0.000000 37.500000 0.000000 0.000000 0.000000
1 0.000000 0.000000 4.000000 0.000000 0.000000 0.000000
2 0.000000 0.000000 10.000000 -0.050000 0.000000 0.000000
3 0.000000 0.000000 10.000000 0.000000 0.000000 0.000000
4 0.000000 0.000000 4.000000 0.000000 0.000000 -0.200000
5 0.000000 6.000000 8.000000 0.000000 0.000000 1.570796
6 11.000000 0.000000 0.000000 0.000000 0.000000 0.000000
7 10.000000 0.000000 0.000000 0.000000 0.000000 0.000000
8 0.000000 -6.000000 8.000000 0.000000 0.000000 -1.570796
9 11.000000 0.000000 0.000000 0.000000 0.000000 0.000000
10 10.000000 0.000000 0.000000 0.000000 0.000000 0.000000
11 0.000000 4.000000 -2.000000 0.000000 0.000000 0.000000
12 0.000000 0.000000 -17.000000 0.000000 0.000000 0.000000
13 0.000000 0.000000 -17.000000 0.000000 0.000000 0.000000
14 0.000000 -4.000000 -2.000000 0.000000 0.000000 0.000000
15 0.000000 0.000000 -17.000000 0.000000 0.000000 0.000000
16 0.000000 0.000000 -17.000000 0.000000 0.000000 0.000000
time 16
0 0.000000 0.000000 37.524472 0.000000 0.000000 0.000000
1 0.000000 0.000000 4.000000 0.000000 0.000000 0.000000
2 0.000000 0.000000 10.000000 -0.047553 0.000000 0.000000
3 0.000000 0.000000 10.000000 0.000000 0.000000 0.000000
4 0.000000 0.000000 4.000000 0.000000 0.000000 -0.190211
5 0.000000 6.000000 8.000000 0.000000 0.000000 1.570796
6 11.000000 0.000000 0.000000 0.000000 0.000000 0.000000
7 10.000000 0.000000 0.000000 0.000000 0.000000 0.000000
8 0.000000 -6.000000 8.000000 0.000000 0.000000 -1.570796
9 11.000000 0.000000 0.000000 0.000000 0.000000 0.000000
10 10.000000 0.000000 0.000000 0.000000 0.000000 0.000000
11 0.000000 4.000000 -2.000000 0.000000 0.000000 0.000000
12 0.000000 0.000000 -17.000000 0.000000 0.000000 0.000000
13 0.000000 0.000000 -17.000000 0.000000 0.000000 0.000000
14 0.000000 -4.000000 -2.000000 0.000000 0.000000 0.000000
15 0.000000 0.000000 -17.000000 0.000000 0.000000 0.000000
16 0.000000 0.000000 -17.000000 0.000000 0.000000 0.000000
time 17
0 0.000000 0.000000 37.595492 0.000000 0.000000 0.000000
1 0.000000 0.000000 4.000000 0.000000 0.000000 0.000000
2 0.000000 0.000000 10.000000 -0.040451 0.000000 0.000000
3 0.000000 0.000000 10.000000 0.000000 0.000000 0.000000
4 0.000000 0.000000 4.000000 0.000000 0.000000 -0.161803
5 0.000000 6.000000 8.000000 0.000000 0.000000 1.570796
6 11.000000 0.000000 0.000000 0.000000 0.000000 0.000000
7 10.000000 0.000000 0.000000 0.000000 0.000000 0.000000
8 0.000000 -6.000000 8.000000 0.000000 0.000000 -1.570796
9 11.000000 0.000000 0.000000 0.000000 0.000000 0.000000
10 10.000000 0.000000 0.000000 0.000000 0.000000 0.000000
11 0.000000 4.000000 -2.000000 0.000000 0.000000 0.000000
12 0.000000 0.000000 -17.000000 0.000000 0.000000 0.000000
13 0.000000 0.000000 -17.000000 0.000000 0.000000 0.000000
14 0.000000 -4.000000 -2.000000 0.000000 0.000000 0.000000
15 0.000000 0.000000 -17.000000 0.000000 0.000000 0.000000
16 0.000000 0.000000 -17.000000 0.000000 0.000000 0.000000
time 18
0 0.000000 0.000000 37.706107 0.000000 0.000000 0.000000
1 0.000000 0.000000 4.000000 0.000000 0.000000 0.000000
2 0.000000 0.000000 10.000000 -0.029389 0.000000 0.000000
3 0.000000 0.000000 10.000000 0.000000 0.000000 0.000000
4 0.000000 0.000000 4.000000 0.000000 0.000000 -0.117557
5 0.000000 6.000000 8.000000 0.000000 0.000000 1.570796
6 11.000000 0.000000 0.000000 0.000000 0.000000 0.000000
7 10.000000 0.000000 0.000000 0.000000 0.000000 0.000000
8 0.000000 -6.000000 8.000000 0.000000 0.000000 -1.570796
9 11.000000 0.000000 0.000000 0.000000 0.000000 0.000000
10 10.000000 0.000000 0.000000 0.000000 0.000000 0.000000
11 0.000000 4.000000 -2.000000 0.000000 0.000000 0.000000
12 0.000000 0.000000 -17.000000 0.000000 0.000000 0.000000
13 0.000000 0.000000 -17.000000 0.000000 0.000000 0.000000
14 0.000000 -4.000000 -2.000000 0.000000 0.000000 0.000000
15 0.000000 0.000000 -17.000000 0.000000 0.000000 0.000000
16 0.000000 0.000000 -17.000000 0.000000 0.000000 0.000000
time 19
0 0.000000 0.000000 37.845492 0.000000 0.000000 0.000000
1 0.000000 0.000000 4.000000 0.000000 0.000000 0.000000
2 0.000000 0.000000 10.000000 -0.015451 0.000000 0.000000
3 0.000000 0.000000 10.000000 0.000000 0.000000 0.000000
4 0.000000 0.000000 4.000000 0.000000 0.000000 -0.061803
5 0.000000 6.000000 8.000000 0.000000 0.000000 1.570796
6 11.000000 0.000000 0.000000 0.000000 0.000000 0.000000
7 10.000000 0.000000 0.000000 0.000000 0.000000 0.000000
8 0.000000 -6.000000 8.000000 0.000000 0.000000 -1.570796
9 11.000000 0.000000 0.000000 0.000000 0.000000 0.000000
10 10.000000 0.000000 0.000000 0.000000 0.000000 0.000000
11 0.000000 4.000000 -2.000000 0.000000 0.000000 0.000000
12 0.000000 0.000000 -17.000000 0.000000 0.000000 0.000000
13 0.000000 0.000000 -17.000000 0.000000 0.000000 0.000000
14 0.000000 -4.000000 -2.000000 0.000000 0.000000 0.000000
15 0.000000 0.000000 -17.000000 0.000000 0.000000 0.000000
16 0.000000 0.000000 -17.000000 0.000000 0.000000 0.000000
end
