version 1
nodes
0 "body" -1
1 "wheel_fl" 0
2 "wheel_fr" 0
3 "wheel_rl" 0
4 "wheel_rr" 0
end
skeleton
time 0
0 0.000000 0.000000 0.000000 0.000000 0.000000 0.000000
1 38.000000 30.000000 14.000000 0.000000 0.000000 0.000000
2 38.000000 -30.000000 14.000000 0.000000 0.000000 0.000000
3 -36.000000 30.000000 14.000000 0.000000 0.000000 0.000000
4 -36.000000 -30.000000 14.000000 0.000000 0.000000 0.000000
end
triangles
sb_buggy_paint
0 -50.000000 -26.000000 12.000000 0.000000 0.000000 -1.000000 0.000000 0.000000 1 0 1.000000
0 -50.000000 26.000000 12.000000 0.000000 0.000000 -1.000000 1.000000 0.000000 1 0 1.000000
0 50.000000 26.000000 12.000000 0.000000 0.000000 -1.000000 1.000000 1.000000 1 0 1.000000
sb_buggy_paint
0 -50.000000 -26.000000 12.000000 0.000000 0.000000 -1.000000 0.000000 0.000000 1 0 1.000000
0 50.000000 26.000000 12.000000 0.000000 0.000000 -1.000000 1.000000 1.000000 1 0 1.000000
0 50.000000 -26.000000 12.000000 0.000000 0.000000 -1.000000 0.000000 1.000000 1 0 1.000000
sb_buggy_paint
0 -50.000000 -26.000000 30.000000 0.000000 0.000000 1.000000 0.000000 0.000000 1 0 1.000000
0 50.000000 -26.000000 30.000000 0.000000 0.000000 1.000000 1.000000 0.000000 1 0 1.000000
0 50.000000 26.000000 30.000000 0.000000 0.000000 1.000000 1.000000 1.000000 1 0 1.000000
sb_buggy_paint
0 -50.000000 -26.000000 30.000000 0.000000 0.000000 1.000000 0.000000 0.000000 1 0 1.000000
0 50.000000 26.000000 30.000000 0.000000 0.000000 1.000000 1.000000 1.000000 1 0 1.000000
0 -50.000000 26.000000 30.000000 0.000000 0.000000 1.000000 0.000000 1.000000 1 0 1.000000
sb_buggy_paint
0 -50.000000 -26.000000 12.000000 0.000000 -1.000000 0.000000 0.000000 0.000000 1 0 1.000000
0 50.000000 -26.000000 12.000000 0.000000 -1.000000 0.000000 1.000000 0.000000 1 0 1.000000
0 50.000000 -26.000000 30.000000 0.000000 -1.000000 0.000000 1.000000 1.000000 1 0 1.000000
sb_buggy_paint
0 -50.000000 -26.000000 12.000000 0.000000 -1.000000 0.000000 0.000000 0.000000 1 0 1.000000
0 50.000000 -26.000000 30.000000 0.000000 -1.000000 0.000000 1.000000 1.000000 1 0 1.000000
0 -50.000000 -26.000000 30.000000 0.000000 -1.000000 0.000000 0.000000 1.000000 1 0 1.000000
sb_buggy_paint
0 50.000000 -26.000000 12.000000 1.000000 0.000000 0.000000 0.000000 0.000000 1 0 1.000000
0 50.000000 26.000000 12.000000 1.000000 0.000000 0.000000 1.000000 0.000000 1 0 1.000000
0 50.000000 26.000000 30.000000 1.000000 0.000000 0.000000 1.000000 1.000000 1 0 1.000000
sb_buggy_paint
0 50.000000 -26.000000 12.000000 1.000000 0.000000 0.000000 0.000000 0.000000 1 0 1.000000
0 50.000000 26.000000 30.000000 1.000000 0.000000 0.000000 1.000000 1.000000 1 0 1.000000
0 50.000000 -26.000000 30.000000 1.000000 0.000000 0.000000 0.000000 1.000000 1 0 1.000000
sb_buggy_paint
0 50.000000 26.000000 12.000000 0.000000 1.000000 0.000000 0.000000 0.000000 1 0 1.000000
0 -50.000000 26.000000 12.000000 0.000000 1.000000 0.000000 1.000000 0.000000 1 0 1.000000
0 -50.000000 26.000000 30.000000 0.000000 1.000000 0.000000 1.000000 1.000000 1 0 1.000000
sb_buggy_paint
0 50.000000 26.000000 12.000000 0.000000 1.000000 0.000000 0.000000 0.000000 1 0 1.000000
0 -50.000000 26.000000 30.000000 0.000000 1.000000 0.000000 1.000000 1.000000 1 0 1.000000
0 50.000000 26.000000 30.000000 0.000000 1.000000 0.000000 0.000000 1.000000 1 0 1.000000
sb_buggy_paint
0 -50.000000 26.000000 12.000000 -1.000000 0.000000 0.000000 0.000000 0.000000 1 0 1.000000
0 -50.000000 -26.000000 12.000000 -1.000000 0.000000 0.000000 1.000000 0.000000 1 0 1.000000
0 -50.000000 -26.000000 30.000000 -1.000000 0.000000 0.000000 1.000000 1.000000 1 0 1.000000
sb_buggy_paint
0 -50.000000 26.000000 12.000000 -1.000000 0.000000 0.000000 0.000000 0.000000 1 0 1.000000
0 -50.000000 -26.000000 30.000000 -1.000000 0.000000 0.000000 1.000000 1.000000 1 0 1.000000
0 -50.000000 26.000000 30.000000 -1.000000 0.000000 0.000000 0.000000 1.000000 1 0 1.000000
sb_buggy_paint
0 -22.000000 -22.000000 30.000000 0.000000 0.000000 -1.000000 0.000000 0.000000 1 0 1.000000
0 -22.000000 22.000000 30.000000 0.000000 0.000000 -1.000000 1.000000 0.000000 1 0 1.000000
0 18.000000 22.000000 30.000000 0.000000 0.000000 -1.000000 1.000000 1.000000 1 0 1.000000
sb_buggy_paint
0 -22.000000 -22.000000 30.000000 0.000000 0.000000 -1.000000 0.000000 0.000000 1 0 1.000000
0 18.000000 22.000000 30.000000 0.000000 0.000000 -1.000000 1.000000 1.000000 1 0 1.000000
0 18.000000 -22.000000 30.000000 0.000000 0.000000 -1.000000 0.000000 1.000000 1 0 1.000000
sb_buggy_paint
0 -22.000000 -22.000000 46.000000 0.000000 0.000000 1.000000 0.000000 0.000000 1 0 1.000000
0 18.000000 -22.000000 46.000000 0.000000 0.000000 1.000000 1.000000 0.000000 1 0 1.000000
0 18.000000 22.000000 46.000000 0.000000 0.000000 1.000000 1.000000 1.000000 1 0 1.000000
sb_buggy_paint
0 -22.000000 -22.000000 46.000000 0.000000 0.000000 1.000000 0.000000 0.000000 1 0 1.000000
0 18.000000 22.000000 46.000000 0.000000 0.000000 1.000000 1.000000 1.000000 1 0 1.000000
0 -22.000000 22.000000 46.000000 0.000000 0.000000 1.000000 0.000000 1.000000 1 0 1.000000
sb_buggy_paint
0 -22.000000 -22.000000 30.000000 0.000000 -1.000000 0.000000 0.000000 0.000000 1 0 1.000000
0 18.000000 -22.000000 30.000000 0.000000 -1.000000 0.000000 1.000000 0.000000 1 0 1.000000
0 18.000000 -22.000000 46.000000 0.000000 -1.000000 0.000000 1.000000 1.000000 1 0 1.000000
sb_buggy_paint
0 -22.000000 -22.000000 30.000000 0.000000 -1.000000 0.000000 0.000000 0.000000 1 0 1.000000
0 18.000000 -22.000000 46.000000 0.000000 -1.000000 0.000000 1.000000 1.000000 1 0 1.000000
0 -22.000000 -22.000000 46.000000 0.000000 -1.000000 0.000000 0.000000 1.000000 1 0 1.000000
sb_buggy_paint
0 18.000000 -22.000000 30.000000 1.000000 0.000000 0.000000 0.000000 0.000000 1 0 1.000000
0 18.000000 22.000000 30.000000 1.000000 0.000000 0.000000 1.000000 0.000000 1 0 1.000000
0 18.000000 22.000000 46.000000 1.000000 0.000000 0.000000 1.000000 1.000000 1 0 1.000000
sb_buggy_paint
0 18.000000 -22.000000 30.000000 1.000000 0.000000 0.000000 0.000000 0.000000 1 0 1.000000
0 18.000000 22.000000 46.000000 1.000000 0.000000 0.000000 1.000000 1.000000 1 0 1.000000
0 18.000000 -22.000000 46.000000 1.000000 0.000000 0.000000 0.000000 1.000000 1 0 1.000000
sb_buggy_paint
0 18.000000 22.000000 30.000000 0.000000 1.000000 0.000000 0.000000 0.000000 1 0 1.000000
0 -22.000000 22.000000 30.000000 0.000000 1.000000 0.000000 1.000000 0.000000 1 0 1.000000
0 -22.000000 22.000000 46.000000 0.000000 1.000000 0.000000 1.000000 1.000000 1 0 1.000000
sb_buggy_paint
0 18.000000 22.000000 30.000000 0.000000 1.000000 0.000000 0.000000 0.000000 1 0 1.000000
0 -22.000000 22.000000 46.000000 0.000000 1.000000 0.000000 1.000000 1.000000 1 0 1.000000
0 18.000000 22.000000 46.000000 0.000000 1.000000 0.000000 0.000000 1.000000 1 0 1.000000
sb_buggy_paint
0 -22.000000 22.000000 30.000000 -1.000000 0.000000 0.000000 0.000000 0.000000 1 0 1.000000
0 -22.000000 -22.000000 30.000000 -1.000000 0.000000 0.000000 1.000000 0.000000 1 0 1.000000
0 -22.000000 -22.000000 46.000000 -1.000000 0.000000 0.000000 1.000000 1.000000 1 0 1.000000
sb_buggy_paint
0 -22.000000 22.000000 30.000000 -1.000000 0.000000 0.000000 0.000000 0.000000 1 0 1.000000
0 -22.000000 -22.000000 46.000000 -1.000000 0.000000 0.000000 1.000000 1.000000 1 0 1.000000
0 -22.000000 22.000000 46.000000 -1.000000 0.000000 0.000000 0.000000 1.000000 1 0 1.000000
end
