version 1
nodes
0 "body" -1
1 "wheel_fl" 0
2 "wheel_fr" 0
3 "wheel_rl" 0
4 "wheel_rr" 0
end
skeleton
time 0
0 0.000000 0.000000 0.000000 0.000000 0.000000 0.000000
1 38.000000 30.000000 14.000000 0.000000 0.000000 0.000000
2 38.000000 -30.000000 14.000000 0.000000 0.000000 0.000000
3 -36.000000 30.000000 14.000000 0.000000 0.000000 0.000000
4 -36.000000 -30.000000 14.000000 0.000000 0.000000 0.000000
end
triangles
sb_buggy_paint
0 -50.000000 -26.000000 12.000000 0.000000 0.000000 -1.000000 0.000000 0.000000 1 0 1.000000
0 -50.000000 26.000000 12.000000 0.000000 0.000000 -1.000000 1.000000 0.000000 1 0 1.000000
0 50.000000 26.000000 12.000000 0.000000 0.000000 -1.000000 1.000000 1.000000 1 0 1.000000
sb_buggy_paint
0 -50.000000 -26.000000 12.000000 0.000000 0.000000 -1.000000 0.000000 0.000000 1 0 1.000000
0 50.000000 26.000000 12.000000 0.000000 0.000000 -1.000000 1.000000 1.000000 1 0 1.000000
0 50.000000 -26.000000 12.000000 0.000000 0.000000 -1.000000 0.000000 1.000000 1 0 1.000000
sb_buggy_paint
0 -50.000000 -26.000000 30.000000 0.000000 0.000000 1.000000 0.000000 0.000000 1 0 1.000000
0 50.000000 -26.000000 30.000000 0.000000 0.000000 1.000000 1.000000 0.000000 1 0 1.000000
0 50.000000 26.000000 30.000000 0.000000 0.000000 1.000000 1.000000 1.000000 1 0 1.000000
sb_buggy_paint
0 -50.000000 -26.000000 30.000000 0.000000 0.000000 1.000000 0.000000 0.000000 1 0 1.000000
0 50.000000 26.000000 30.000000 0.000000 0.000000 1.000000 1.000000 1.000000 1 0 1.000000
0 -50.000000 26.000000 30.000000 0.000000 0.000000 1.000000 0.000000 1.000000 1 0 1.000000
sb_buggy_paint
0 -50.000000 -26.000000 12.000000 0.000000 -1.000000 0.000000 0.000000 0.000000 1 0 1.000000
0 50.000000 -26.000000 12.000000 0.000000 -1.000000 0.000000 1.000000 0.000000 1 0 1.000000
0 50.000000 -26.000000 30.000000 0.000000 -1.000000 0.000000 1.000000 1.000000 1 0 1.000000
sb_buggy_paint
0 -50.000000 -26.000000 12.000000 0.000000 -1.000000 0.000000 0.000000 0.000000 1 0 1.000000
0 50.000000 -26.000000 30.000000 0.000000 -1.000000 0.000000 1.000000 1.000000 1 0 1.000000
0 -50.000000 -26.000000 30.000000 0.000000 -1.000000 0.000000 0.000000 1.000000 1 0 1.000000
sb_buggy_paint
0 50.000000 -26.000000 12.000000 1.000000 0.000000 0.000000 0.000000 0.000000 1 0 1.000000
0 50.000000 26.000000 12.000000 1.000000 0.000000 0.000000 1.000000 0.000000 1 0 1.000000
0 50.000000 26.000000 30.000000 1.000000 0.000000 0.000000 1.000000 1.000000 1 0 1.000000
sb_buggy_paint
0 50.000000 -26.000000 12.000000 1.000000 0.000000 0.000000 0.000000 0.000000 1 0 1.000000
0 50.000000 26.000000 30.000000 1.000000 0.000000 0.000000 1.000000 1.000000 1 0 1.000000
0 50.000000 -26.000000 30.000000 1.000000 0.000000 0.000000 0.000000 1.000000 1 0 1.000000
sb_buggy_paint
0 50.000000 26.000000 12.000000 0.000000 1.000000 0.000000 0.000000 0.000000 1 0 1.000000
0 -50.000000 26.000000 12.000000 0.000000 1.000000 0.000000 1.000000 0.000000 1 0 1.000000
0 -50.000000 26.000000 30.000000 0.000000 1.000000 0.000000 1.000000 1.000000 1 0 1.000000
sb_buggy_paint
0 50.000000 26.000000 12.000000 0.000000 1.000000 0.000000 0.000000 0.000000 1 0 1.000000
0 -50.000000 26.000000 30.000000 0.000000 1.000000 0.000000 1.000000 1.000000 1 0 1.000000
0 50.000000 26.000000 30.000000 0.000000 1.000000 0.000000 0.000000 1.000000 1 0 1.000000
sb_buggy_paint
0 -50.000000 26.000000 12.000000 -1.000000 0.000000 0.000000 0.000000 0.000000 1 0 1.000000
0 -50.000000 -26.000000 12.000000 -1.000000 0.000000 0.000000 1.000000 0.000000 1 0 1.000000
0 -50.000000 -26.000000 30.000000 -1.000000 0.000000 0.000000 1.000000 1.000000 1 0 1.000000
sb_buggy_paint
0 -50.000000 26.000000 12.000000 -1.000000 0.000000 0.000000 0.000000 0.000000 1 0 1.000000
0 -50.000000 -26.000000 30.000000 -1.000000 0.000000 0.000000 1.000000 1.000000 1 0 1.000000
0 -50.000000 26.000000 30.000000 -1.000000 0.000000 0.000000 0.000000 1.000000 1 0 1.000000
sb_buggy_paint
0 -22.000000 -22.000000 30.000000 0.000000 0.000000 -1.000000 0.000000 0.000000 1 0 1.000000
0 -22.000000 22.000000 30.000000 0.000000 0.000000 -1.000000 1.000000 0.000000 1 0 1.000000
0 18.000000 22.000000 30.000000 0.000000 0.000000 -1.000000 1.000000 1.000000 1 0 1.000000
sb_buggy_paint
0 -22.000000 -22.000000 30.000000 0.000000 0.000000 -1.000000 0.000000 0.000000 1 0 1.000000
0 18.000000 22.000000 30.000000 0.000000 0.000000 -1.000000 1.000000 1.000000 1 0 1.000000
0 18.000000 -22.000000 30.000000 0.000000 0.000000 -1.000000 0.000000 1.000000 1 0 1.000000
sb_buggy_paint
0 -22.000000 -22.000000 46.000000 0.000000 0.000000 1.000000 0.000000 0.000000 1 0 1.000000
0 18.000000 -22.000000 46.000000 0.000000 0.000000 1.000000 1.000000 0.000000 1 0 1.000000
0 18.000000 22.000000 46.000000 0.000000 0.000000 1.000000 1.000000 1.000000 1 0 1.000000
sb_buggy_paint
0 -22.000000 -22.000000 46.000000 0.000000 0.000000 1.000000 0.000000 0.000000 1 0 1.000000
0 18.000000 22.000000 46.000000 0.000000 0.000000 1.000000 1.000000 1.000000 1 0 1.000000
0 -22.000000 22.000000 46.000000 0.000000 0.000000 1.000000 0.000000 1.000000 1 0 1.000000
sb_buggy_paint
0 -22.000000 -22.000000 30.000000 0.000000 -1.000000 0.000000 0.000000 0.000000 1 0 1.000000
0 18.000000 -22.000000 30.000000 0.000000 -1.000000 0.000000 1.000000 0.000000 1 0 1.000000
0 18.000000 -22.000000 46.000000 0.000000 -1.000000 0.000000 1.000000 1.000000 1 0 1.000000
sb_buggy_paint
0 -22.000000 -22.000000 30.000000 0.000000 -1.000000 0.000000 0.000000 0.000000 1 0 1.000000
0 18.000000 -22.000000 46.000000 0.000000 -1.000000 0.000000 1.000000 1.000000 1 0 1.000000
0 -22.000000 -22.000000 46.000000 0.000000 -1.000000 0.000000 0.000000 1.000000 1 0 1.000000
sb_buggy_paint
0 18.000000 -22.000000 30.000000 1.000000 0.000000 0.000000 0.000000 0.000000 1 0 1.000000
0 18.000000 22.000000 30.000000 1.000000 0.000000 0.000000 1.000000 0.000000 1 0 1.000000
0 18.000000 22.000000 46.000000 1.000000 0.000000 0.000000 1.000000 1.000000 1 0 1.000000
sb_buggy_paint
0 18.000000 -22.000000 30.000000 1.000000 0.000000 0.000000 0.000000 0.000000 1 0 1.000000
0 18.000000 22.000000 46.000000 1.000000 0.000000 0.000000 1.000000 1.000000 1 0 1.000000
0 18.000000 -22.000000 46.000000 1.000000 0.000000 0.000000 0.000000 1.000000 1 0 1.000000
sb_buggy_paint
0 18.000000 22.000000 30.000000 0.000000 1.000000 0.000000 0.000000 0.000000 1 0 1.000000
0 -22.000000 22.000000 30.000000 0.000000 1.000000 0.000000 1.000000 0.000000 1 0 1.000000
0 -22.000000 22.000000 46.000000 0.000000 1.000000 0.000000 1.000000 1.000000 1 0 1.000000
sb_buggy_paint
0 18.000000 22.000000 30.000000 0.000000 1.000000 0.000000 0.000000 0.000000 1 0 1.000000
0 -22.000000 22.000000 46.000000 0.000000 1.000000 0.000000 1.000000 1.000000 1 0 1.000000
0 18.000000 22.000000 46.000000 0.000000 1.000000 0.000000 0.000000 1.000000 1 0 1.000000
sb_buggy_paint
0 -22.000000 22.000000 30.000000 -1.000000 0.000000 0.000000 0.000000 0.000000 1 0 1.000000
0 -22.000000 -22.000000 30.000000 -1.000000 0.000000 0.000000 1.000000 0.000000 1 0 1.000000
0 -22.000000 -22.000000 46.000000 -1.000000 0.000000 0.000000 1.000000 1.000000 1 0 1.000000
sb_buggy_paint
0 -22.000000 22.000000 30.000000 -1.000000 0.000000 0.000000 0.000000 0.000000 1 0 1.000000
0 -22.000000 -22.000000 46.000000 -1.000000 0.000000 0.000000 1.000000 1.000000 1 0 1.000000
0 -22.000000 22.000000 46.000000 -1.000000 0.000000 0.000000 0.000000 1.000000 1 0 1.000000
sb_buggy_tire
1 52.000000 26.000000 14.000000 0.965926 0.000000 0.258819 0.000000 0.000000 1 1 1.000000
1 52.000000 34.000000 14.000000 0.965926 0.000000 0.258819 0.000000 1.000000 1 1 1.000000
1 50.124356 34.000000 21.000000 0.965926 0.000000 0.258819 0.083333 1.000000 1 1 1.000000
sb_buggy_tire
1 52.000000 26.000000 14.000000 0.965926 0.000000 0.258819 0.000000 0.000000 1 1 1.000000
1 50.124356 34.000000 21.000000 0.965926 0.000000 0.258819 0.083333 1.000000 1 1 1.000000
1 50.124356 26.000000 21.000000 0.965926 0.000000 0.258819 0.083333 0.000000 1 1 1.000000
sb_buggy_tire
1 38.000000 26.000000 14.000000 0.000000 -1.000000 0.000000 0.500000 0.500000 1 1 1.000000
1 52.000000 26.000000 14.000000 0.000000 -1.000000 0.000000 0.500000 0.500000 1 1 1.000000
1 50.124356 26.000000 21.000000 0.000000 -1.000000 0.000000 0.500000 0.500000 1 1 1.000000
sb_buggy_tire
1 38.000000 34.000000 14.000000 0.000000 1.000000 0.000000 0.500000 0.500000 1 1 1.000000
1 50.124356 34.000000 21.000000 0.000000 1.000000 0.000000 0.500000 0.500000 1 1 1.000000
1 52.000000 34.000000 14.000000 0.000000 1.000000 0.000000 0.500000 0.500000 1 1 1.000000
sb_buggy_tire
1 50.124356 26.000000 21.000000 0.707107 0.000000 0.707107 0.083333 0.000000 1 1 1.000000
1 50.124356 34.000000 21.000000 0.707107 0.000000 0.707107 0.083333 1.000000 1 1 1.000000
1 45.000000 34.000000 26.124356 0.707107 0.000000 0.707107 0.166667 1.000000 1 1 1.000000
sb_buggy_tire
1 50.124356 26.000000 21.000000 0.707107 0.000000 0.707107 0.083333 0.000000 1 1 1.000000
1 45.000000 34.000000 26.124356 0.707107 0.000000 0.707107 0.166667 1.000000 1 1 1.000000
1 45.000000 26.000000 26.124356 0.707107 0.000000 0.707107 0.166667 0.000000 1 1 1.000000
sb_buggy_tire
1 38.000000 26.000000 14.000000 0.000000 -1.000000 0.000000 0.500000 0.500000 1 1 1.000000
1 50.124356 26.000000 21.000000 0.000000 -1.000000 0.000000 0.500000 0.500000 1 1 1.000000
1 45.000000 26.000000 26.124356 0.000000 -1.000000 0.000000 0.500000 0.500000 1 1 1.000000
sb_buggy_tire
1 38.000000 34.000000 14.000000 0.000000 1.000000 0.000000 0.500000 0.500000 1 1 1.000000
1 45.000000 34.000000 26.124356 0.000000 1.000000 0.000000 0.500000 0.500000 1 1 1.000000
1 50.124356 34.000000 21.000000 0.000000 1.000000 0.000000 0.500000 0.500000 1 1 1.000000
sb_buggy_tire
1 45.000000 26.000000 26.124356 0.258819 0.000000 0.965926 0.166667 0.000000 1 1 1.000000
1 45.000000 34.000000 26.124356 0.258819 0.000000 0.965926 0.166667 1.000000 1 1 1.000000
1 38.000000 34.000000 28.000000 0.258819 0.000000 0.965926 0.250000 1.000000 1 1 1.000000
sb_buggy_tire
1 45.000000 26.000000 26.124356 0.258819 0.000000 0.965926 0.166667 0.000000 1 1 1.000000
1 38.000000 34.000000 28.000000 0.258819 0.000000 0.965926 0.250000 1.000000 1 1 1.000000
1 38.000000 26.000000 28.000000 0.258819 0.000000 0.965926 0.250000 0.000000 1 1 1.000000
sb_buggy_tire
1 38.000000 26.000000 14.000000 0.000000 -1.000000 0.000000 0.500000 0.500000 1 1 1.000000
1 45.000000 26.000000 26.124356 0.000000 -1.000000 0.000000 0.500000 0.500000 1 1 1.000000
1 38.000000 26.000000 28.000000 0.000000 -1.000000 0.000000 0.500000 0.500000 1 1 1.000000
sb_buggy_tire
1 38.000000 34.000000 14.000000 0.000000 1.000000 0.000000 0.500000 0.500000 1 1 1.000000
1 38.000000 34.000000 28.000000 0.000000 1.000000 0.000000 0.500000 0.500000 1 1 1.000000
1 45.000000 34.000000 26.124356 0.000000 1.000000 0.000000 0.500000 0.500000 1 1 1.000000
sb_buggy_tire
1 38.000000 26.000000 28.000000 -0.258819 0.000000 0.965926 0.250000 0.000000 1 1 1.000000
1 38.000000 34.000000 28.000000 -0.258819 0.000000 0.965926 0.250000 1.000000 1 1 1.000000
1 31.000000 34.000000 26.124356 -0.258819 0.000000 0.965926 0.333333 1.000000 1 1 1.000000
sb_buggy_tire
1 38.000000 26.000000 28.000000 -0.258819 0.000000 0.965926 0.250000 0.000000 1 1 1.000000
1 31.000000 34.000000 26.124356 -0.258819 0.000000 0.965926 0.333333 1.000000 1 1 1.000000
1 31.000000 26.000000 26.124356 -0.258819 0.000000 0.965926 0.333333 0.000000 1 1 1.000000
sb_buggy_tire
1 38.000000 26.000000 14.000000 0.000000 -1.000000 0.000000 0.500000 0.500000 1 1 1.000000
1 38.000000 26.000000 28.000000 0.000000 -1.000000 0.000000 0.500000 0.500000 1 1 1.000000
1 31.000000 26.000000 26.124356 0.000000 -1.000000 0.000000 0.500000 0.500000 1 1 1.000000
sb_buggy_tire
1 38.000000 34.000000 14.000000 0.000000 1.000000 0.000000 0.500000 0.500000 1 1 1.000000
1 31.000000 34.000000 26.124356 0.000000 1.000000 0.000000 0.500000 0.500000 1 1 1.000000
1 38.000000 34.000000 28.000000 0.000000 1.000000 0.000000 0.500000 0.500000 1 1 1.000000
sb_buggy_tire
1 31.000000 26.000000 26.124356 -0.707107 0.000000 0.707107 0.333333 0.000000 1 1 1.000000
1 31.000000 34.000000 26.124356 -0.707107 0.000000 0.707107 0.333333 1.000000 1 1 1.000000
1 25.875644 34.000000 21.000000 -0.707107 0.000000 0.707107 0.416667 1.000000 1 1 1.000000
sb_buggy_tire
1 31.000000 26.000000 26.124356 -0.707107 0.000000 0.707107 0.333333 0.000000 1 1 1.000000
1 25.875644 34.000000 21.000000 -0.707107 0.000000 0.707107 0.416667 1.000000 1 1 1.000000
1 25.875644 26.000000 21.000000 -0.707107 0.000000 0.707107 0.416667 0.000000 1 1 1.000000
sb_buggy_tire
1 38.000000 26.000000 14.000000 0.000000 -1.000000 0.000000 0.500000 0.500000 1 1 1.000000
1 31.000000 26.000000 26.124356 0.000000 -1.000000 0.000000 0.500000 0.500000 1 1 1.000000
1 25.875644 26.000000 21.000000 0.000000 -1.000000 0.000000 0.500000 0.500000 1 1 1.000000
sb_buggy_tire
1 38.000000 34.000000 14.000000 0.000000 1.000000 0.000000 0.500000 0.500000 1 1 1.000000
1 25.875644 34.000000 21.000000 0.000000 1.000000 0.000000 0.500000 0.500000 1 1 1.000000
1 31.000000 34.000000 26.124356 0.000000 1.000000 0.000000 0.500000 0.500000 1 1 1.000000
sb_buggy_tire
1 25.875644 26.000000 21.000000 -0.965926 0.000000 0.258819 0.416667 0.000000 1 1 1.000000
1 25.875644 34.000000 21.000000 -0.965926 0.000000 0.258819 0.416667 1.000000 1 1 1.000000
1 24.000000 34.000000 14.000000 -0.965926 0.000000 0.258819 0.500000 1.000000 1 1 1.000000
sb_buggy_tire
1 25.875644 26.000000 21.000000 -0.965926 0.000000 0.258819 0.416667 0.000000 1 1 1.000000
1 24.000000 34.000000 14.000000 -0.965926 0.000000 0.258819 0.500000 1.000000 1 1 1.000000
1 24.000000 26.000000 14.000000 -0.965926 0.000000 0.258819 0.500000 0.000000 1 1 1.000000
sb_buggy_tire
1 38.000000 26.000000 14.000000 0.000000 -1.000000 0.000000 0.500000 0.500000 1 1 1.000000
1 25.875644 26.000000 21.000000 0.000000 -1.000000 0.000000 0.500000 0.500000 1 1 1.000000
1 24.000000 26.000000 14.000000 0.000000 -1.000000 0.000000 0.500000 0.500000 1 1 1.000000
sb_buggy_tire
1 38.000000 34.000000 14.000000 0.000000 1.000000 0.000000 0.500000 0.500000 1 1 1.000000
1 24.000000 34.000000 14.000000 0.000000 1.000000 0.000000 0.500000 0.500000 1 1 1.000000
1 25.875644 34.000000 21.000000 0.000000 1.000000 0.000000 0.500000 0.500000 1 1 1.000000
sb_buggy_tire
1 24.000000 26.000000 14.000000 -0.965926 0.000000 -0.258819 0.500000 0.000000 1 1 1.000000
1 24.000000 34.000000 14.000000 -0.965926 0.000000 -0.258819 0.500000 1.000000 1 1 1.000000
1 25.875644 34.000000 7.000000 -0.965926 0.000000 -0.258819 0.583333 1.000000 1 1 1.000000
sb_buggy_tire
1 24.000000 26.000000 14.000000 -0.965926 0.000000 -0.258819 0.500000 0.000000 1 1 1.000000
1 25.875644 34.000000 7.000000 -0.965926 0.000000 -0.258819 0.583333 1.000000 1 1 1.000000
1 25.875644 26.000000 7.000000 -0.965926 0.000000 -0.258819 0.583333 0.000000 1 1 1.000000
sb_buggy_tire
1 38.000000 26.000000 14.000000 0.000000 -1.000000 0.000000 0.500000 0.500000 1 1 1.000000
1 24.000000 26.000000 14.000000 0.000000 -1.000000 0.000000 0.500000 0.500000 1 1 1.000000
1 25.875644 26.000000 7.000000 0.000000 -1.000000 0.000000 0.500000 0.500000 1 1 1.000000
sb_buggy_tire
1 38.000000 34.000000 14.000000 0.000000 1.000000 0.000000 0.500000 0.500000 1 1 1.000000
1 25.875644 34.000000 7.000000 0.000000 1.000000 0.000000 0.500000 0.500000 1 1 1.000000
1 24.000000 34.000000 14.000000 0.000000 1.000000 0.000000 0.500000 0.500000 1 1 1.000000
sb_buggy_tire
1 25.875644 26.000000 7.000000 -0.707107 0.000000 -0.707107 0.583333 0.000000 1 1 1.000000
1 25.875644 34.000000 7.000000 -0.707107 0.000000 -0.707107 0.583333 1.000000 1 1 1.000000
1 31.000000 34.000000 1.875644 -0.707107 0.000000 -0.707107 0.666667 1.000000 1 1 1.000000
sb_buggy_tire
1 25.875644 26.000000 7.000000 -0.707107 0.000000 -0.707107 0.583333 0.000000 1 1 1.000000
1 31.000000 34.000000 1.875644 -0.707107 0.000000 -0.707107 0.666667 1.000000 1 1 1.000000
1 31.000000 26.000000 1.875644 -0.707107 0.000000 -0.707107 0.666667 0.000000 1 1 1.000000
sb_buggy_tire
1 38.000000 26.000000 14.000000 0.000000 -1.000000 0.000000 0.500000 0.500000 1 1 1.000000
1 25.875644 26.000000 7.000000 0.000000 -1.000000 0.000000 0.500000 0.500000 1 1 1.000000
1 31.000000 26.000000 1.875644 0.000000 -1.000000 0.000000 0.500000 0.500000 1 1 1.000000
sb_buggy_tire
1 38.000000 34.000000 14.000000 0.000000 1.000000 0.000000 0.500000 0.500000 1 1 1.000000
1 31.000000 34.000000 1.875644 0.000000 1.000000 0.000000 0.500000 0.500000 1 1 1.000000
1 25.875644 34.000000 7.000000 0.000000 1.000000 0.000000 0.500000 0.500000 1 1 1.000000
sb_buggy_tire
1 31.000000 26.000000 1.875644 -0.258819 0.000000 -0.965926 0.666667 0.000000 1 1 1.000000
1 31.000000 34.000000 1.875644 -0.258819 0.000000 -0.965926 0.666667 1.000000 1 1 1.000000
1 38.000000 34.000000 0.000000 -0.258819 0.000000 -0.965926 0.750000 1.000000 1 1 1.000000
sb_buggy_tire
1 31.000000 26.000000 1.875644 -0.258819 0.000000 -0.965926 0.666667 0.000000 1 1 1.000000
1 38.000000 34.000000 0.000000 -0.258819 0.000000 -0.965926 0.750000 1.000000 1 1 1.000000
1 38.000000 26.000000 0.000000 -0.258819 0.000000 -0.965926 0.750000 0.000000 1 1 1.000000
sb_buggy_tire
1 38.000000 26.000000 14.000000 0.000000 -1.000000 0.000000 0.500000 0.500000 1 1 1.000000
1 31.000000 26.000000 1.875644 0.000000 -1.000000 0.000000 0.500000 0.500000 1 1 1.000000
1 38.000000 26.000000 0.000000 0.000000 -1.000000 0.000000 0.500000 0.500000 1 1 1.000000
sb_buggy_tire
1 38.000000 34.000000 14.000000 0.000000 1.000000 0.000000 0.500000 0.500000 1 1 1.000000
1 38.000000 34.000000 0.000000 0.000000 1.000000 0.000000 0.500000 0.500000 1 1 1.000000
1 31.000000 34.000000 1.875644 0.000000 1.000000 0.000000 0.500000 0.500000 1 1 1.000000
sb_buggy_tire
1 38.000000 26.000000 0.000000 0.258819 0.000000 -0.965926 0.750000 0.000000 1 1 1.000000
1 38.000000 34.000000 0.000000 0.258819 0.000000 -0.965926 0.750000 1.000000 1 1 1.000000
1 45.000000 34.000000 1.875644 0.258819 0.000000 -0.965926 0.833333 1.000000 1 1 1.000000
sb_buggy_tire
1 38.000000 26.000000 0.000000 0.258819 0.000000 -0.965926 0.750000 0.000000 1 1 1.000000
1 45.000000 34.000000 1.875644 0.258819 0.000000 -0.965926 0.833333 1.000000 1 1 1.000000
1 45.000000 26.000000 1.875644 0.258819 0.000000 -0.965926 0.833333 0.000000 1 1 1.000000
sb_buggy_tire
1 38.000000 26.000000 14.000000 0.000000 -1.000000 0.000000 0.500000 0.500000 1 1 1.000000
1 38.000000 26.000000 0.000000 0.000000 -1.000000 0.000000 0.500000 0.500000 1 1 1.000000
1 45.000000 26.000000 1.875644 0.000000 -1.000000 0.000000 0.500000 0.500000 1 1 1.000000
sb_buggy_tire
1 38.000000 34.000000 14.000000 0.000000 1.000000 0.000000 0.500000 0.500000 1 1 1.000000
1 45.000000 34.000000 1.875644 0.000000 1.000000 0.000000 0.500000 0.500000 1 1 1.000000
1 38.000000 34.000000 0.000000 0.000000 1.000000 0.000000 0.500000 0.500000 1 1 1.000000
sb_buggy_tire
1 45.000000 26.000000 1.875644 0.707107 0.000000 -0.707107 0.833333 0.000000 1 1 1.000000
1 45.000000 34.000000 1.875644 0.707107 0.000000 -0.707107 0.833333 1.000000 1 1 1.000000
1 50.124356 34.000000 7.000000 0.707107 0.000000 -0.707107 0.916667 1.000000 1 1 1.000000
sb_buggy_tire
1 45.000000 26.000000 1.875644 0.707107 0.000000 -0.707107 0.833333 0.000000 1 1 1.000000
1 50.124356 34.000000 7.000000 0.707107 0.000000 -0.707107 0.916667 1.000000 1 1 1.000000
1 50.124356 26.000000 7.000000 0.707107 0.000000 -0.707107 0.916667 0.000000 1 1 1.000000
sb_buggy_tire
1 38.000000 26.000000 14.000000 0.000000 -1.000000 0.000000 0.500000 0.500000 1 1 1.000000
1 45.000000 26.000000 1.875644 0.000000 -1.000000 0.000000 0.500000 0.500000 1 1 1.000000
1 50.124356 26.000000 7.000000 0.000000 -1.000000 0.000000 0.500000 0.500000 1 1 1.000000
sb_buggy_tire
1 38.000000 34.000000 14.000000 0.000000 1.000000 0.000000 0.500000 0.500000 1 1 1.000000
1 50.124356 34.000000 7.000000 0.000000 1.000000 0.000000 0.500000 0.500000 1 1 1.000000
1 45.000000 34.000000 1.875644 0.000000 1.000000 0.000000 0.500000 0.500000 1 1 1.000000
sb_buggy_tire
1 50.124356 26.000000 7.000000 0.965926 0.000000 -0.258819 0.916667 0.000000 1 1 1.000000
1 50.124356 34.000000 7.000000 0.965926 0.000000 -0.258819 0.916667 1.000000 1 1 1.000000
1 52.000000 34.000000 14.000000 0.965926 0.000000 -0.258819 1.000000 1.000000 1 1 1.000000
sb_buggy_tire
1 50.124356 26.000000 7.000000 0.965926 0.000000 -0.258819 0.916667 0.000000 1 1 1.000000
1 52.000000 34.000000 14.000000 0.965926 0.000000 -0.258819 1.000000 1.000000 1 1 1.000000
1 52.000000 26.000000 14.000000 0.965926 0.000000 -0.258819 1.000000 0.000000 1 1 1.000000
sb_buggy_tire
1 38.000000 26.000000 14.000000 0.000000 -1.000000 0.000000 0.500000 0.500000 1 1 1.000000
1 50.124356 26.000000 7.000000 0.000000 -1.000000 0.000000 0.500000 0.500000 1 1 1.000000
1 52.000000 26.000000 14.000000 0.000000 -1.000000 0.000000 0.500000 0.500000 1 1 1.000000
sb_buggy_tire
1 38.000000 34.000000 14.000000 0.000000 1.000000 0.000000 0.500000 0.500000 1 1 1.000000
1 52.000000 34.000000 14.000000 0.000000 1.000000 0.000000 0.500000 0.500000 1 1 1.000000
1 50.124356 34.000000 7.000000 0.000000 1.000000 0.000000 0.500000 0.500000 1 1 1.000000
sb_buggy_tire
2 52.000000 -34.000000 14.000000 0.965926 0.000000 0.258819 0.000000 0.000000 1 2 1.000000
2 52.000000 -26.000000 14.000000 0.965926 0.000000 0.258819 0.000000 1.000000 1 2 1.000000
2 50.124356 -26.000000 21.000000 0.965926 0.000000 0.258819 0.083333 1.000000 1 2 1.000000
sb_buggy_tire
2 52.000000 -34.000000 14.000000 0.965926 0.000000 0.258819 0.000000 0.000000 1 2 1.000000
2 50.124356 -26.000000 21.000000 0.965926 0.000000 0.258819 0.083333 1.000000 1 2 1.000000
2 50.124356 -34.000000 21.000000 0.965926 0.000000 0.258819 0.083333 0.000000 1 2 1.000000
sb_buggy_tire
2 38.000000 -34.000000 14.000000 0.000000 -1.000000 0.000000 0.500000 0.500000 1 2 1.000000
2 52.000000 -34.000000 14.000000 0.000000 -1.000000 0.000000 0.500000 0.500000 1 2 1.000000
2 50.124356 -34.000000 21.000000 0.000000 -1.000000 0.000000 0.500000 0.500000 1 2 1.000000
sb_buggy_tire
2 38.000000 -26.000000 14.000000 0.000000 1.000000 0.000000 0.500000 0.500000 1 2 1.000000
2 50.124356 -26.000000 21.000000 0.000000 1.000000 0.000000 0.500000 0.500000 1 2 1.000000
2 52.000000 -26.000000 14.000000 0.000000 1.000000 0.000000 0.500000 0.500000 1 2 1.000000
sb_buggy_tire
2 50.124356 -34.000000 21.000000 0.707107 0.000000 0.707107 0.083333 0.000000 1 2 1.000000
2 50.124356 -26.000000 21.000000 0.707107 0.000000 0.707107 0.083333 1.000000 1 2 1.000000
2 45.000000 -26.000000 26.124356 0.707107 0.000000 0.707107 0.166667 1.000000 1 2 1.000000
sb_buggy_tire
2 50.124356 -34.000000 21.000000 0.707107 0.000000 0.707107 0.083333 0.000000 1 2 1.000000
2 45.000000 -26.000000 26.124356 0.707107 0.000000 0.707107 0.166667 1.000000 1 2 1.000000
2 45.000000 -34.000000 26.124356 0.707107 0.000000 0.707107 0.166667 0.000000 1 2 1.000000
sb_buggy_tire
2 38.000000 -34.000000 14.000000 0.000000 -1.000000 0.000000 0.500000 0.500000 1 2 1.000000
2 50.124356 -34.000000 21.000000 0.000000 -1.000000 0.000000 0.500000 0.500000 1 2 1.000000
2 45.000000 -34.000000 26.124356 0.000000 -1.000000 0.000000 0.500000 0.500000 1 2 1.000000
sb_buggy_tire
2 38.000000 -26.000000 14.000000 0.000000 1.000000 0.000000 0.500000 0.500000 1 2 1.000000
2 45.000000 -26.000000 26.124356 0.000000 1.000000 0.000000 0.500000 0.500000 1 2 1.000000
2 50.124356 -26.000000 21.000000 0.000000 1.000000 0.000000 0.500000 0.500000 1 2 1.000000
sb_buggy_tire
2 45.000000 -34.000000 26.124356 0.258819 0.000000 0.965926 0.166667 0.000000 1 2 1.000000
2 45.000000 -26.000000 26.124356 0.258819 0.000000 0.965926 0.166667 1.000000 1 2 1.000000
2 38.000000 -26.000000 28.000000 0.258819 0.000000 0.965926 0.250000 1.000000 1 2 1.000000
sb_buggy_tire
2 45.000000 -34.000000 26.124356 0.258819 0.000000 0.965926 0.166667 0.000000 1 2 1.000000
2 38.000000 -26.000000 28.000000 0.258819 0.000000 0.965926 0.250000 1.000000 1 2 1.000000
2 38.000000 -34.000000 28.000000 0.258819 0.000000 0.965926 0.250000 0.000000 1 2 1.000000
sb_buggy_tire
2 38.000000 -34.000000 14.000000 0.000000 -1.000000 0.000000 0.500000 0.500000 1 2 1.000000
2 45.000000 -34.000000 26.124356 0.000000 -1.000000 0.000000 0.500000 0.500000 1 2 1.000000
2 38.000000 -34.000000 28.000000 0.000000 -1.000000 0.000000 0.500000 0.500000 1 2 1.000000
sb_buggy_tire
2 38.000000 -26.000000 14.000000 0.000000 1.000000 0.000000 0.500000 0.500000 1 2 1.000000
2 38.000000 -26.000000 28.000000 0.000000 1.000000 0.000000 0.500000 0.500000 1 2 1.000000
2 45.000000 -26.000000 26.124356 0.000000 1.000000 0.000000 0.500000 0.500000 1 2 1.000000
sb_buggy_tire
2 38.000000 -34.000000 28.000000 -0.258819 0.000000 0.965926 0.250000 0.000000 1 2 1.000000
2 38.000000 -26.000000 28.000000 -0.258819 0.000000 0.965926 0.250000 1.000000 1 2 1.000000
2 31.000000 -26.000000 26.124356 -0.258819 0.000000 0.965926 0.333333 1.000000 1 2 1.000000
sb_buggy_tire
2 38.000000 -34.000000 28.000000 -0.258819 0.000000 0.965926 0.250000 0.000000 1 2 1.000000
2 31.000000 -26.000000 26.124356 -0.258819 0.000000 0.965926 0.333333 1.000000 1 2 1.000000
2 31.000000 -34.000000 26.124356 -0.258819 0.000000 0.965926 0.333333 0.000000 1 2 1.000000
sb_buggy_tire
2 38.000000 -34.000000 14.000000 0.000000 -1.000000 0.000000 0.500000 0.500000 1 2 1.000000
2 38.000000 -34.000000 28.000000 0.000000 -1.000000 0.000000 0.500000 0.500000 1 2 1.000000
2 31.000000 -34.000000 26.124356 0.000000 -1.000000 0.000000 0.500000 0.500000 1 2 1.000000
sb_buggy_tire
2 38.000000 -26.000000 14.000000 0.000000 1.000000 0.000000 0.500000 0.500000 1 2 1.000000
2 31.000000 -26.000000 26.124356 0.000000 1.000000 0.000000 0.500000 0.500000 1 2 1.000000
2 38.000000 -26.000000 28.000000 0.000000 1.000000 0.000000 0.500000 0.500000 1 2 1.000000
sb_buggy_tire
2 31.000000 -34.000000 26.124356 -0.707107 0.000000 0.707107 0.333333 0.000000 1 2 1.000000
2 31.000000 -26.000000 26.124356 -0.707107 0.000000 0.707107 0.333333 1.000000 1 2 1.000000
2 25.875644 -26.000000 21.000000 -0.707107 0.000000 0.707107 0.416667 1.000000 1 2 1.000000
sb_buggy_tire
2 31.000000 -34.000000 26.124356 -0.707107 0.000000 0.707107 0.333333 0.000000 1 2 1.000000
2 25.875644 -26.000000 21.000000 -0.707107 0.000000 0.707107 0.416667 1.000000 1 2 1.000000
2 25.875644 -34.000000 21.000000 -0.707107 0.000000 0.707107 0.416667 0.000000 1 2 1.000000
sb_buggy_tire
2 38.000000 -34.000000 14.000000 0.000000 -1.000000 0.000000 0.500000 0.500000 1 2 1.000000
2 31.000000 -34.000000 26.124356 0.000000 -1.000000 0.000000 0.500000 0.500000 1 2 1.000000
2 25.875644 -34.000000 21.000000 0.000000 -1.000000 0.000000 0.500000 0.500000 1 2 1.000000
sb_buggy_tire
2 38.000000 -26.000000 14.000000 0.000000 1.000000 0.000000 0.500000 0.500000 1 2 1.000000
2 25.875644 -26.000000 21.000000 0.000000 1.000000 0.000000 0.500000 0.500000 1 2 1.000000
2 31.000000 -26.000000 26.124356 0.000000 1.000000 0.000000 0.500000 0.500000 1 2 1.000000
sb_buggy_tire
2 25.875644 -34.000000 21.000000 -0.965926 0.000000 0.258819 0.416667 0.000000 1 2 1.000000
2 25.875644 -26.000000 21.000000 -0.965926 0.000000 0.258819 0.416667 1.000000 1 2 1.000000
2 24.000000 -26.000000 14.000000 -0.965926 0.000000 0.258819 0.500000 1.000000 1 2 1.000000
sb_buggy_tire
2 25.875644 -34.000000 21.000000 -0.965926 0.000000 0.258819 0.416667 0.000000 1 2 1.000000
2 24.000000 -26.000000 14.000000 -0.965926 0.000000 0.258819 0.500000 1.000000 1 2 1.000000
2 24.000000 -34.000000 14.000000 -0.965926 0.000000 0.258819 0.500000 0.000000 1 2 1.000000
sb_buggy_tire
2 38.000000 -34.000000 14.000000 0.000000 -1.000000 0.000000 0.500000 0.500000 1 2 1.000000
2 25.875644 -34.000000 21.000000 0.000000 -1.000000 0.000000 0.500000 0.500000 1 2 1.000000
2 24.000000 -34.000000 14.000000 0.000000 -1.000000 0.000000 0.500000 0.500000 1 2 1.000000
sb_buggy_tire
2 38.000000 -26.000000 14.000000 0.000000 1.000000 0.000000 0.500000 0.500000 1 2 1.000000
2 24.000000 -26.000000 14.000000 0.000000 1.000000 0.000000 0.500000 0.500000 1 2 1.000000
2 25.875644 -26.000000 21.000000 0.000000 1.000000 0.000000 0.500000 0.500000 1 2 1.000000
sb_buggy_tire
2 24.000000 -34.000000 14.000000 -0.965926 0.000000 -0.258819 0.500000 0.000000 1 2 1.000000
2 24.000000 -26.000000 14.000000 -0.965926 0.000000 -0.258819 0.500000 1.000000 1 2 1.000000
2 25.875644 -26.000000 7.000000 -0.965926 0.000000 -0.258819 0.583333 1.000000 1 2 1.000000
sb_buggy_tire
2 24.000000 -34.000000 14.000000 -0.965926 0.000000 -0.258819 0.500000 0.000000 1 2 1.000000
2 25.875644 -26.000000 7.000000 -0.965926 0.000000 -0.258819 0.583333 1.000000 1 2 1.000000
2 25.875644 -34.000000 7.000000 -0.965926 0.000000 -0.258819 0.583333 0.000000 1 2 1.000000
sb_buggy_tire
2 38.000000 -34.000000 14.000000 0.000000 -1.000000 0.000000 0.500000 0.500000 1 2 1.000000
2 24.000000 -34.000000 14.000000 0.000000 -1.000000 0.000000 0.500000 0.500000 1 2 1.000000
2 25.875644 -34.000000 7.000000 0.000000 -1.000000 0.000000 0.500000 0.500000 1 2 1.000000
sb_buggy_tire
2 38.000000 -26.000000 14.000000 0.000000 1.000000 0.000000 0.500000 0.500000 1 2 1.000000
2 25.875644 -26.000000 7.000000 0.000000 1.000000 0.000000 0.500000 0.500000 1 2 1.000000
2 24.000000 -26.000000 14.000000 0.000000 1.000000 0.000000 0.500000 0.500000 1 2 1.000000
sb_buggy_tire
2 25.875644 -34.000000 7.000000 -0.707107 0.000000 -0.707107 0.583333 0.000000 1 2 1.000000
2 25.875644 -26.000000 7.000000 -0.707107 0.000000 -0.707107 0.583333 1.000000 1 2 1.000000
2 31.000000 -26.000000 1.875644 -0.707107 0.000000 -0.707107 0.666667 1.000000 1 2 1.000000
sb_buggy_tire
2 25.875644 -34.000000 7.000000 -0.707107 0.000000 -0.707107 0.583333 0.000000 1 2 1.000000
2 31.000000 -26.000000 1.875644 -0.707107 0.000000 -0.707107 0.666667 1.000000 1 2 1.000000
2 31.000000 -34.000000 1.875644 -0.707107 0.000000 -0.707107 0.666667 0.000000 1 2 1.000000
sb_buggy_tire
2 38.000000 -34.000000 14.000000 0.000000 -1.000000 0.000000 0.500000 0.500000 1 2 1.000000
2 25.875644 -34.000000 7.000000 0.000000 -1.000000 0.000000 0.500000 0.500000 1 2 1.000000
2 31.000000 -34.000000 1.875644 0.000000 -1.000000 0.000000 0.500000 0.500000 1 2 1.000000
sb_buggy_tire
2 38.000000 -26.000000 14.000000 0.000000 1.000000 0.000000 0.500000 0.500000 1 2 1.000000
2 31.000000 -26.000000 1.875644 0.000000 1.000000 0.000000 0.500000 0.500000 1 2 1.000000
2 25.875644 -26.000000 7.000000 0.000000 1.000000 0.000000 0.500000 0.500000 1 2 1.000000
sb_buggy_tire
2 31.000000 -34.000000 1.875644 -0.258819 0.000000 -0.965926 0.666667 0.000000 1 2 1.000000
2 31.000000 -26.000000 1.875644 -0.258819 0.000000 -0.965926 0.666667 1.000000 1 2 1.000000
2 38.000000 -26.000000 0.000000 -0.258819 0.000000 -0.965926 0.750000 1.000000 1 2 1.000000
sb_buggy_tire
2 31.000000 -34.000000 1.875644 -0.258819 0.000000 -0.965926 0.666667 0.000000 1 2 1.000000
2 38.000000 -26.000000 0.000000 -0.258819 0.000000 -0.965926 0.750000 1.000000 1 2 1.000000
2 38.000000 -34.000000 0.000000 -0.258819 0.000000 -0.965926 0.750000 0.000000 1 2 1.000000
sb_buggy_tire
2 38.000000 -34.000000 14.000000 0.000000 -1.000000 0.000000 0.500000 0.500000 1 2 1.000000
2 31.000000 -34.000000 1.875644 0.000000 -1.000000 0.000000 0.500000 0.500000 1 2 1.000000
2 38.000000 -34.000000 0.000000 0.000000 -1.000000 0.000000 0.500000 0.500000 1 2 1.000000
sb_buggy_tire
2 38.000000 -26.000000 14.000000 0.000000 1.000000 0.000000 0.500000 0.500000 1 2 1.000000
2 38.000000 -26.000000 0.000000 0.000000 1.000000 0.000000 0.500000 0.500000 1 2 1.000000
2 31.000000 -26.000000 1.875644 0.000000 1.000000 0.000000 0.500000 0.500000 1 2 1.000000
sb_buggy_tire
2 38.000000 -34.000000 0.000000 0.258819 0.000000 -0.965926 0.750000 0.000000 1 2 1.000000
2 38.000000 -26.000000 0.000000 0.258819 0.000000 -0.965926 0.750000 1.000000 1 2 1.000000
2 45.000000 -26.000000 1.875644 0.258819 0.000000 -0.965926 0.833333 1.000000 1 2 1.000000
sb_buggy_tire
2 38.000000 -34.000000 0.000000 0.258819 0.000000 -0.965926 0.750000 0.000000 1 2 1.000000
2 45.000000 -26.000000 1.875644 0.258819 0.000000 -0.965926 0.833333 1.000000 1 2 1.000000
2 45.000000 -34.000000 1.875644 0.258819 0.000000 -0.965926 0.833333 0.000000 1 2 1.000000
sb_buggy_tire
2 38.000000 -34.000000 14.000000 0.000000 -1.000000 0.000000 0.500000 0.500000 1 2 1.000000
2 38.000000 -34.000000 0.000000 0.000000 -1.000000 0.000000 0.500000 0.500000 1 2 1.000000
2 45.000000 -34.000000 1.875644 0.000000 -1.000000 0.000000 0.500000 0.500000 1 2 1.000000
sb_buggy_tire
2 38.000000 -26.000000 14.000000 0.000000 1.000000 0.000000 0.500000 0.500000 1 2 1.000000
2 45.000000 -26.000000 1.875644 0.000000 1.000000 0.000000 0.500000 0.500000 1 2 1.000000
2 38.000000 -26.000000 0.000000 0.000000 1.000000 0.000000 0.500000 0.500000 1 2 1.000000
sb_buggy_tire
2 45.000000 -34.000000 1.875644 0.707107 0.000000 -0.707107 0.833333 0.000000 1 2 1.000000
2 45.000000 -26.000000 1.875644 0.707107 0.000000 -0.707107 0.833333 1.000000 1 2 1.000000
2 50.124356 -26.000000 7.000000 0.707107 0.000000 -0.707107 0.916667 1.000000 1 2 1.000000
sb_buggy_tire
2 45.000000 -34.000000 1.875644 0.707107 0.000000 -0.707107 0.833333 0.000000 1 2 1.000000
2 50.124356 -26.000000 7.000000 0.707107 0.000000 -0.707107 0.916667 1.000000 1 2 1.000000
2 50.124356 -34.000000 7.000000 0.707107 0.000000 -0.707107 0.916667 0.000000 1 2 1.000000
sb_buggy_tire
2 38.000000 -34.000000 14.000000 0.000000 -1.000000 0.000000 0.500000 0.500000 1 2 1.000000
2 45.000000 -34.000000 1.875644 0.000000 -1.000000 0.000000 0.500000 0.500000 1 2 1.000000
2 50.124356 -34.000000 7.000000 0.000000 -1.000000 0.000000 0.500000 0.500000 1 2 1.000000
sb_buggy_tire
2 38.000000 -26.000000 14.000000 0.000000 1.000000 0.000000 0.500000 0.500000 1 2 1.000000
2 50.124356 -26.000000 7.000000 0.000000 1.000000 0.000000 0.500000 0.500000 1 2 1.000000
2 45.000000 -26.000000 1.875644 0.000000 1.000000 0.000000 0.500000 0.500000 1 2 1.000000
sb_buggy_tire
2 50.124356 -34.000000 7.000000 0.965926 0.000000 -0.258819 0.916667 0.000000 1 2 1.000000
2 50.124356 -26.000000 7.000000 0.965926 0.000000 -0.258819 0.916667 1.000000 1 2 1.000000
2 52.000000 -26.000000 14.000000 0.965926 0.000000 -0.258819 1.000000 1.000000 1 2 1.000000
sb_buggy_tire
2 50.124356 -34.000000 7.000000 0.965926 0.000000 -0.258819 0.916667 0.000000 1 2 1.000000
2 52.000000 -26.000000 14.000000 0.965926 0.000000 -0.258819 1.000000 1.000000 1 2 1.000000
2 52.000000 -34.000000 14.000000 0.965926 0.000000 -0.258819 1.000000 0.000000 1 2 1.000000
sb_buggy_tire
2 38.000000 -34.000000 14.000000 0.000000 -1.000000 0.000000 0.500000 0.500000 1 2 1.000000
2 50.124356 -34.000000 7.000000 0.000000 -1.000000 0.000000 0.500000 0.500000 1 2 1.000000
2 52.000000 -34.000000 14.000000 0.000000 -1.000000 0.000000 0.500000 0.500000 1 2 1.000000
sb_buggy_tire
2 38.000000 -26.000000 14.000000 0.000000 1.000000 0.000000 0.500000 0.500000 1 2 1.000000
2 52.000000 -26.000000 14.000000 0.000000 1.000000 0.000000 0.500000 0.500000 1 2 1.000000
2 50.124356 -26.000000 7.000000 0.000000 1.000000 0.000000 0.500000 0.500000 1 2 1.000000
sb_buggy_tire
3 -22.000000 26.000000 14.000000 0.965926 0.000000 0.258819 0.000000 0.000000 1 3 1.000000
3 -22.000000 34.000000 14.000000 0.965926 0.000000 0.258819 0.000000 1.000000 1 3 1.000000
3 -23.875644 34.000000 21.000000 0.965926 0.000000 0.258819 0.083333 1.000000 1 3 1.000000
sb_buggy_tire
3 -22.000000 26.000000 14.000000 0.965926 0.000000 0.258819 0.000000 0.000000 1 3 1.000000
3 -23.875644 34.000000 21.000000 0.965926 0.000000 0.258819 0.083333 1.000000 1 3 1.000000
3 -23.875644 26.000000 21.000000 0.965926 0.000000 0.258819 0.083333 0.000000 1 3 1.000000
sb_buggy_tire
3 -36.000000 26.000000 14.000000 0.000000 -1.000000 0.000000 0.500000 0.500000 1 3 1.000000
3 -22.000000 26.000000 14.000000 0.000000 -1.000000 0.000000 0.500000 0.500000 1 3 1.000000
3 -23.875644 26.000000 21.000000 0.000000 -1.000000 0.000000 0.500000 0.500000 1 3 1.000000
sb_buggy_tire
3 -36.000000 34.000000 14.000000 0.000000 1.000000 0.000000 0.500000 0.500000 1 3 1.000000
3 -23.875644 34.000000 21.000000 0.000000 1.000000 0.000000 0.500000 0.500000 1 3 1.000000
3 -22.000000 34.000000 14.000000 0.000000 1.000000 0.000000 0.500000 0.500000 1 3 1.000000
sb_buggy_tire
3 -23.875644 26.000000 21.000000 0.707107 0.000000 0.707107 0.083333 0.000000 1 3 1.000000
3 -23.875644 34.000000 21.000000 0.707107 0.000000 0.707107 0.083333 1.000000 1 3 1.000000
3 -29.000000 34.000000 26.124356 0.707107 0.000000 0.707107 0.166667 1.000000 1 3 1.000000
sb_buggy_tire
3 -23.875644 26.000000 21.000000 0.707107 0.000000 0.707107 0.083333 0.000000 1 3 1.000000
3 -29.000000 34.000000 26.124356 0.707107 0.000000 0.707107 0.166667 1.000000 1 3 1.000000
3 -29.000000 26.000000 26.124356 0.707107 0.000000 0.707107 0.166667 0.000000 1 3 1.000000
sb_buggy_tire
3 -36.000000 26.000000 14.000000 0.000000 -1.000000 0.000000 0.500000 0.500000 1 3 1.000000
3 -23.875644 26.000000 21.000000 0.000000 -1.000000 0.000000 0.500000 0.500000 1 3 1.000000
3 -29.000000 26.000000 26.124356 0.000000 -1.000000 0.000000 0.500000 0.500000 1 3 1.000000
sb_buggy_tire
3 -36.000000 34.000000 14.000000 0.000000 1.000000 0.000000 0.500000 0.500000 1 3 1.000000
3 -29.000000 34.000000 26.124356 0.000000 1.000000 0.000000 0.500000 0.500000 1 3 1.000000
3 -23.875644 34.000000 21.000000 0.000000 1.000000 0.000000 0.500000 0.500000 1 3 1.000000
sb_buggy_tire
3 -29.000000 26.000000 26.124356 0.258819 0.000000 0.965926 0.166667 0.000000 1 3 1.000000
3 -29.000000 34.000000 26.124356 0.258819 0.000000 0.965926 0.166667 1.000000 1 3 1.000000
3 -36.000000 34.000000 28.000000 0.258819 0.000000 0.965926 0.250000 1.000000 1 3 1.000000
sb_buggy_tire
3 -29.000000 26.000000 26.124356 0.258819 0.000000 0.965926 0.166667 0.000000 1 3 1.000000
3 -36.000000 34.000000 28.000000 0.258819 0.000000 0.965926 0.250000 1.000000 1 3 1.000000
3 -36.000000 26.000000 28.000000 0.258819 0.000000 0.965926 0.250000 0.000000 1 3 1.000000
sb_buggy_tire
3 -36.000000 26.000000 14.000000 0.000000 -1.000000 0.000000 0.500000 0.500000 1 3 1.000000
3 -29.000000 26.000000 26.124356 0.000000 -1.000000 0.000000 0.500000 0.500000 1 3 1.000000
3 -36.000000 26.000000 28.000000 0.000000 -1.000000 0.000000 0.500000 0.500000 1 3 1.000000
sb_buggy_tire
3 -36.000000 34.000000 14.000000 0.000000 1.000000 0.000000 0.500000 0.500000 1 3 1.000000
3 -36.000000 34.000000 28.000000 0.000000 1.000000 0.000000 0.500000 0.500000 1 3 1.000000
3 -29.000000 34.000000 26.124356 0.000000 1.000000 0.000000 0.500000 0.500000 1 3 1.000000
sb_buggy_tire
3 -36.000000 26.000000 28.000000 -0.258819 0.000000 0.965926 0.250000 0.000000 1 3 1.000000
3 -36.000000 34.000000 28.000000 -0.258819 0.000000 0.965926 0.250000 1.000000 1 3 1.000000
3 -43.000000 34.000000 26.124356 -0.258819 0.000000 0.965926 0.333333 1.000000 1 3 1.000000
sb_buggy_tire
3 -36.000000 26.000000 28.000000 -0.258819 0.000000 0.965926 0.250000 0.000000 1 3 1.000000
3 -43.000000 34.000000 26.124356 -0.258819 0.000000 0.965926 0.333333 1.000000 1 3 1.000000
3 -43.000000 26.000000 26.124356 -0.258819 0.000000 0.965926 0.333333 0.000000 1 3 1.000000
sb_buggy_tire
3 -36.000000 26.000000 14.000000 0.000000 -1.000000 0.000000 0.500000 0.500000 1 3 1.000000
3 -36.000000 26.000000 28.000000 0.000000 -1.000000 0.000000 0.500000 0.500000 1 3 1.000000
3 -43.000000 26.000000 26.124356 0.000000 -1.000000 0.000000 0.500000 0.500000 1 3 1.000000
sb_buggy_tire
3 -36.000000 34.000000 14.000000 0.000000 1.000000 0.000000 0.500000 0.500000 1 3 1.000000
3 -43.000000 34.000000 26.124356 0.000000 1.000000 0.000000 0.500000 0.500000 1 3 1.000000
3 -36.000000 34.000000 28.000000 0.000000 1.000000 0.000000 0.500000 0.500000 1 3 1.000000
sb_buggy_tire
3 -43.000000 26.000000 26.124356 -0.707107 0.000000 0.707107 0.333333 0.000000 1 3 1.000000
3 -43.000000 34.000000 26.124356 -0.707107 0.000000 0.707107 0.333333 1.000000 1 3 1.000000
3 -48.124356 34.000000 21.000000 -0.707107 0.000000 0.707107 0.416667 1.000000 1 3 1.000000
sb_buggy_tire
3 -43.000000 26.000000 26.124356 -0.707107 0.000000 0.707107 0.333333 0.000000 1 3 1.000000
3 -48.124356 34.000000 21.000000 -0.707107 0.000000 0.707107 0.416667 1.000000 1 3 1.000000
3 -48.124356 26.000000 21.000000 -0.707107 0.000000 0.707107 0.416667 0.000000 1 3 1.000000
sb_buggy_tire
3 -36.000000 26.000000 14.000000 0.000000 -1.000000 0.000000 0.500000 0.500000 1 3 1.000000
3 -43.000000 26.000000 26.124356 0.000000 -1.000000 0.000000 0.500000 0.500000 1 3 1.000000
3 -48.124356 26.000000 21.000000 0.000000 -1.000000 0.000000 0.500000 0.500000 1 3 1.000000
sb_buggy_tire
3 -36.000000 34.000000 14.000000 0.000000 1.000000 0.000000 0.500000 0.500000 1 3 1.000000
3 -48.124356 34.000000 21.000000 0.000000 1.000000 0.000000 0.500000 0.500000 1 3 1.000000
3 -43.000000 34.000000 26.124356 0.000000 1.000000 0.000000 0.500000 0.500000 1 3 1.000000
sb_buggy_tire
3 -48.124356 26.000000 21.000000 -0.965926 0.000000 0.258819 0.416667 0.000000 1 3 1.000000
3 -48.124356 34.000000 21.000000 -0.965926 0.000000 0.258819 0.416667 1.000000 1 3 1.000000
3 -50.000000 34.000000 14.000000 -0.965926 0.000000 0.258819 0.500000 1.000000 1 3 1.000000
sb_buggy_tire
3 -48.124356 26.000000 21.000000 -0.965926 0.000000 0.258819 0.416667 0.000000 1 3 1.000000
3 -50.000000 34.000000 14.000000 -0.965926 0.000000 0.258819 0.500000 1.000000 1 3 1.000000
3 -50.000000 26.000000 14.000000 -0.965926 0.000000 0.258819 0.500000 0.000000 1 3 1.000000
sb_buggy_tire
3 -36.000000 26.000000 14.000000 0.000000 -1.000000 0.000000 0.500000 0.500000 1 3 1.000000
3 -48.124356 26.000000 21.000000 0.000000 -1.000000 0.000000 0.500000 0.500000 1 3 1.000000
3 -50.000000 26.000000 14.000000 0.000000 -1.000000 0.000000 0.500000 0.500000 1 3 1.000000
sb_buggy_tire
3 -36.000000 34.000000 14.000000 0.000000 1.000000 0.000000 0.500000 0.500000 1 3 1.000000
3 -50.000000 34.000000 14.000000 0.000000 1.000000 0.000000 0.500000 0.500000 1 3 1.000000
3 -48.124356 34.000000 21.000000 0.000000 1.000000 0.000000 0.500000 0.500000 1 3 1.000000
sb_buggy_tire
3 -50.000000 26.000000 14.000000 -0.965926 0.000000 -0.258819 0.500000 0.000000 1 3 1.000000
3 -50.000000 34.000000 14.000000 -0.965926 0.000000 -0.258819 0.500000 1.000000 1 3 1.000000
3 -48.124356 34.000000 7.000000 -0.965926 0.000000 -0.258819 0.583333 1.000000 1 3 1.000000
sb_buggy_tire
3 -50.000000 26.000000 14.000000 -0.965926 0.000000 -0.258819 0.500000 0.000000 1 3 1.000000
3 -48.124356 34.000000 7.000000 -0.965926 0.000000 -0.258819 0.583333 1.000000 1 3 1.000000
3 -48.124356 26.000000 7.000000 -0.965926 0.000000 -0.258819 0.583333 0.000000 1 3 1.000000
sb_buggy_tire
3 -36.000000 26.000000 14.000000 0.000000 -1.000000 0.000000 0.500000 0.500000 1 3 1.000000
3 -50.000000 26.000000 14.000000 0.000000 -1.000000 0.000000 0.500000 0.500000 1 3 1.000000
3 -48.124356 26.000000 7.000000 0.000000 -1.000000 0.000000 0.500000 0.500000 1 3 1.000000
sb_buggy_tire
3 -36.000000 34.000000 14.000000 0.000000 1.000000 0.000000 0.500000 0.500000 1 3 1.000000
3 -48.124356 34.000000 7.000000 0.000000 1.000000 0.000000 0.500000 0.500000 1 3 1.000000
3 -50.000000 34.000000 14.000000 0.000000 1.000000 0.000000 0.500000 0.500000 1 3 1.000000
sb_buggy_tire
3 -48.124356 26.000000 7.000000 -0.707107 0.000000 -0.707107 0.583333 0.000000 1 3 1.000000
3 -48.124356 34.000000 7.000000 -0.707107 0.000000 -0.707107 0.583333 1.000000 1 3 1.000000
3 -43.000000 34.000000 1.875644 -0.707107 0.000000 -0.707107 0.666667 1.000000 1 3 1.000000
sb_buggy_tire
3 -48.124356 26.000000 7.000000 -0.707107 0.000000 -0.707107 0.583333 0.000000 1 3 1.000000
3 -43.000000 34.000000 1.875644 -0.707107 0.000000 -0.707107 0.666667 1.000000 1 3 1.000000
3 -43.000000 26.000000 1.875644 -0.707107 0.000000 -0.707107 0.666667 0.000000 1 3 1.000000
sb_buggy_tire
3 -36.000000 26.000000 14.000000 0.000000 -1.000000 0.000000 0.500000 0.500000 1 3 1.000000
3 -48.124356 26.000000 7.000000 0.000000 -1.000000 0.000000 0.500000 0.500000 1 3 1.000000
3 -43.000000 26.000000 1.875644 0.000000 -1.000000 0.000000 0.500000 0.500000 1 3 1.000000
sb_buggy_tire
3 -36.000000 34.000000 14.000000 0.000000 1.000000 0.000000 0.500000 0.500000 1 3 1.000000
3 -43.000000 34.000000 1.875644 0.000000 1.000000 0.000000 0.500000 0.500000 1 3 1.000000
3 -48.124356 34.000000 7.000000 0.000000 1.000000 0.000000 0.500000 0.500000 1 3 1.000000
sb_buggy_tire
3 -43.000000 26.000000 1.875644 -0.258819 0.000000 -0.965926 0.666667 0.000000 1 3 1.000000
3 -43.000000 34.000000 1.875644 -0.258819 0.000000 -0.965926 0.666667 1.000000 1 3 1.000000
3 -36.000000 34.000000 0.000000 -0.258819 0.000000 -0.965926 0.750000 1.000000 1 3 1.000000
sb_buggy_tire
3 -43.000000 26.000000 1.875644 -0.258819 0.000000 -0.965926 0.666667 0.000000 1 3 1.000000
3 -36.000000 34.000000 0.000000 -0.258819 0.000000 -0.965926 0.750000 1.000000 1 3 1.000000
3 -36.000000 26.000000 0.000000 -0.258819 0.000000 -0.965926 0.750000 0.000000 1 3 1.000000
sb_buggy_tire
3 -36.000000 26.000000 14.000000 0.000000 -1.000000 0.000000 0.500000 0.500000 1 3 1.000000
3 -43.000000 26.000000 1.875644 0.000000 -1.000000 0.000000 0.500000 0.500000 1 3 1.000000
3 -36.000000 26.000000 0.000000 0.000000 -1.000000 0.000000 0.500000 0.500000 1 3 1.000000
sb_buggy_tire
3 -36.000000 34.000000 14.000000 0.000000 1.000000 0.000000 0.500000 0.500000 1 3 1.000000
3 -36.000000 34.000000 0.000000 0.000000 1.000000 0.000000 0.500000 0.500000 1 3 1.000000
3 -43.000000 34.000000 1.875644 0.000000 1.000000 0.000000 0.500000 0.500000 1 3 1.000000
sb_buggy_tire
3 -36.000000 26.000000 0.000000 0.258819 0.000000 -0.965926 0.750000 0.000000 1 3 1.000000
3 -36.000000 34.000000 0.000000 0.258819 0.000000 -0.965926 0.750000 1.000000 1 3 1.000000
3 -29.000000 34.000000 1.875644 0.258819 0.000000 -0.965926 0.833333 1.000000 1 3 1.000000
sb_buggy_tire
3 -36.000000 26.000000 0.000000 0.258819 0.000000 -0.965926 0.750000 0.000000 1 3 1.000000
3 -29.000000 34.000000 1.875644 0.258819 0.000000 -0.965926 0.833333 1.000000 1 3 1.000000
3 -29.000000 26.000000 1.875644 0.258819 0.000000 -0.965926 0.833333 0.000000 1 3 1.000000
sb_buggy_tire
3 -36.000000 26.000000 14.000000 0.000000 -1.000000 0.000000 0.500000 0.500000 1 3 1.000000
3 -36.000000 26.000000 0.000000 0.000000 -1.000000 0.000000 0.500000 0.500000 1 3 1.000000
3 -29.000000 26.000000 1.875644 0.000000 -1.000000 0.000000 0.500000 0.500000 1 3 1.000000
sb_buggy_tire
3 -36.000000 34.000000 14.000000 0.000000 1.000000 0.000000 0.500000 0.500000 1 3 1.000000
3 -29.000000 34.000000 1.875644 0.000000 1.000000 0.000000 0.500000 0.500000 1 3 1.000000
3 -36.000000 34.000000 0.000000 0.000000 1.000000 0.000000 0.500000 0.500000 1 3 1.000000
sb_buggy_tire
3 -29.000000 26.000000 1.875644 0.707107 0.000000 -0.707107 0.833333 0.000000 1 3 1.000000
3 -29.000000 34.000000 1.875644 0.707107 0.000000 -0.707107 0.833333 1.000000 1 3 1.000000
3 -23.875644 34.000000 7.000000 0.707107 0.000000 -0.707107 0.916667 1.000000 1 3 1.000000
sb_buggy_tire
3 -29.000000 26.000000 1.875644 0.707107 0.000000 -0.707107 0.833333 0.000000 1 3 1.000000
3 -23.875644 34.000000 7.000000 0.707107 0.000000 -0.707107 0.916667 1.000000 1 3 1.000000
3 -23.875644 26.000000 7.000000 0.707107 0.000000 -0.707107 0.916667 0.000000 1 3 1.000000
sb_buggy_tire
3 -36.000000 26.000000 14.000000 0.000000 -1.000000 0.000000 0.500000 0.500000 1 3 1.000000
3 -29.000000 26.000000 1.875644 0.000000 -1.000000 0.000000 0.500000 0.500000 1 3 1.000000
3 -23.875644 26.000000 7.000000 0.000000 -1.000000 0.000000 0.500000 0.500000 1 3 1.000000
sb_buggy_tire
3 -36.000000 34.000000 14.000000 0.000000 1.000000 0.000000 0.500000 0.500000 1 3 1.000000
3 -23.875644 34.000000 7.000000 0.000000 1.000000 0.000000 0.500000 0.500000 1 3 1.000000
3 -29.000000 34.000000 1.875644 0.000000 1.000000 0.000000 0.500000 0.500000 1 3 1.000000
sb_buggy_tire
3 -23.875644 26.000000 7.000000 0.965926 0.000000 -0.258819 0.916667 0.000000 1 3 1.000000
3 -23.875644 34.000000 7.000000 0.965926 0.000000 -0.258819 0.916667 1.000000 1 3 1.000000
3 -22.000000 34.000000 14.000000 0.965926 0.000000 -0.258819 1.000000 1.000000 1 3 1.000000
sb_buggy_tire
3 -23.875644 26.000000 7.000000 0.965926 0.000000 -0.258819 0.916667 0.000000 1 3 1.000000
3 -22.000000 34.000000 14.000000 0.965926 0.000000 -0.258819 1.000000 1.000000 1 3 1.000000
3 -22.000000 26.000000 14.000000 0.965926 0.000000 -0.258819 1.000000 0.000000 1 3 1.000000
sb_buggy_tire
3 -36.000000 26.000000 14.000000 0.000000 -1.000000 0.000000 0.500000 0.500000 1 3 1.000000
3 -23.875644 26.000000 7.000000 0.000000 -1.000000 0.000000 0.500000 0.500000 1 3 1.000000
3 -22.000000 26.000000 14.000000 0.000000 -1.000000 0.000000 0.500000 0.500000 1 3 1.000000
sb_buggy_tire
3 -36.000000 34.000000 14.000000 0.000000 1.000000 0.000000 0.500000 0.500000 1 3 1.000000
3 -22.000000 34.000000 14.000000 0.000000 1.000000 0.000000 0.500000 0.500000 1 3 1.000000
3 -23.875644 34.000000 7.000000 0.000000 1.000000 0.000000 0.500000 0.500000 1 3 1.000000
sb_buggy_tire
4 -22.000000 -34.000000 14.000000 0.965926 0.000000 0.258819 0.000000 0.000000 1 4 1.000000
4 -22.000000 -26.000000 14.000000 0.965926 0.000000 0.258819 0.000000 1.000000 1 4 1.000000
4 -23.875644 -26.000000 21.000000 0.965926 0.000000 0.258819 0.083333 1.000000 1 4 1.000000
sb_buggy_tire
4 -22.000000 -34.000000 14.000000 0.965926 0.000000 0.258819 0.000000 0.000000 1 4 1.000000
4 -23.875644 -26.000000 21.000000 0.965926 0.000000 0.258819 0.083333 1.000000 1 4 1.000000
4 -23.875644 -34.000000 21.000000 0.965926 0.000000 0.258819 0.083333 0.000000 1 4 1.000000
sb_buggy_tire
4 -36.000000 -34.000000 14.000000 0.000000 -1.000000 0.000000 0.500000 0.500000 1 4 1.000000
4 -22.000000 -34.000000 14.000000 0.000000 -1.000000 0.000000 0.500000 0.500000 1 4 1.000000
4 -23.875644 -34.000000 21.000000 0.000000 -1.000000 0.000000 0.500000 0.500000 1 4 1.000000
sb_buggy_tire
4 -36.000000 -26.000000 14.000000 0.000000 1.000000 0.000000 0.500000 0.500000 1 4 1.000000
4 -23.875644 -26.000000 21.000000 0.000000 1.000000 0.000000 0.500000 0.500000 1 4 1.000000
4 -22.000000 -26.000000 14.000000 0.000000 1.000000 0.000000 0.500000 0.500000 1 4 1.000000
sb_buggy_tire
4 -23.875644 -34.000000 21.000000 0.707107 0.000000 0.707107 0.083333 0.000000 1 4 1.000000
4 -23.875644 -26.000000 21.000000 0.707107 0.000000 0.707107 0.083333 1.000000 1 4 1.000000
4 -29.000000 -26.000000 26.124356 0.707107 0.000000 0.707107 0.166667 1.000000 1 4 1.000000
sb_buggy_tire
4 -23.875644 -34.000000 21.000000 0.707107 0.000000 0.707107 0.083333 0.000000 1 4 1.000000
4 -29.000000 -26.000000 26.124356 0.707107 0.000000 0.707107 0.166667 1.000000 1 4 1.000000
4 -29.000000 -34.000000 26.124356 0.707107 0.000000 0.707107 0.166667 0.000000 1 4 1.000000
sb_buggy_tire
4 -36.000000 -34.000000 14.000000 0.000000 -1.000000 0.000000 0.500000 0.500000 1 4 1.000000
4 -23.875644 -34.000000 21.000000 0.000000 -1.000000 0.000000 0.500000 0.500000 1 4 1.000000
4 -29.000000 -34.000000 26.124356 0.000000 -1.000000 0.000000 0.500000 0.500000 1 4 1.000000
sb_buggy_tire
4 -36.000000 -26.000000 14.000000 0.000000 1.000000 0.000000 0.500000 0.500000 1 4 1.000000
4 -29.000000 -26.000000 26.124356 0.000000 1.000000 0.000000 0.500000 0.500000 1 4 1.000000
4 -23.875644 -26.000000 21.000000 0.000000 1.000000 0.000000 0.500000 0.500000 1 4 1.000000
sb_buggy_tire
4 -29.000000 -34.000000 26.124356 0.258819 0.000000 0.965926 0.166667 0.000000 1 4 1.000000
4 -29.000000 -26.000000 26.124356 0.258819 0.000000 0.965926 0.166667 1.000000 1 4 1.000000
4 -36.000000 -26.000000 28.000000 0.258819 0.000000 0.965926 0.250000 1.000000 1 4 1.000000
sb_buggy_tire
4 -29.000000 -34.000000 26.124356 0.258819 0.000000 0.965926 0.166667 0.000000 1 4 1.000000
4 -36.000000 -26.000000 28.000000 0.258819 0.000000 0.965926 0.250000 1.000000 1 4 1.000000
4 -36.000000 -34.000000 28.000000 0.258819 0.000000 0.965926 0.250000 0.000000 1 4 1.000000
sb_buggy_tire
4 -36.000000 -34.000000 14.000000 0.000000 -1.000000 0.000000 0.500000 0.500000 1 4 1.000000
4 -29.000000 -34.000000 26.124356 0.000000 -1.000000 0.000000 0.500000 0.500000 1 4 1.000000
4 -36.000000 -34.000000 28.000000 0.000000 -1.000000 0.000000 0.500000 0.500000 1 4 1.000000
sb_buggy_tire
4 -36.000000 -26.000000 14.000000 0.000000 1.000000 0.000000 0.500000 0.500000 1 4 1.000000
4 -36.000000 -26.000000 28.000000 0.000000 1.000000 0.000000 0.500000 0.500000 1 4 1.000000
4 -29.000000 -26.000000 26.124356 0.000000 1.000000 0.000000 0.500000 0.500000 1 4 1.000000
sb_buggy_tire
4 -36.000000 -34.000000 28.000000 -0.258819 0.000000 0.965926 0.250000 0.000000 1 4 1.000000
4 -36.000000 -26.000000 28.000000 -0.258819 0.000000 0.965926 0.250000 1.000000 1 4 1.000000
4 -43.000000 -26.000000 26.124356 -0.258819 0.000000 0.965926 0.333333 1.000000 1 4 1.000000
sb_buggy_tire
4 -36.000000 -34.000000 28.000000 -0.258819 0.000000 0.965926 0.250000 0.000000 1 4 1.000000
4 -43.000000 -26.000000 26.124356 -0.258819 0.000000 0.965926 0.333333 1.000000 1 4 1.000000
4 -43.000000 -34.000000 26.124356 -0.258819 0.000000 0.965926 0.333333 0.000000 1 4 1.000000
sb_buggy_tire
4 -36.000000 -34.000000 14.000000 0.000000 -1.000000 0.000000 0.500000 0.500000 1 4 1.000000
4 -36.000000 -34.000000 28.000000 0.000000 -1.000000 0.000000 0.500000 0.500000 1 4 1.000000
4 -43.000000 -34.000000 26.124356 0.000000 -1.000000 0.000000 0.500000 0.500000 1 4 1.000000
sb_buggy_tire
4 -36.000000 -26.000000 14.000000 0.000000 1.000000 0.000000 0.500000 0.500000 1 4 1.000000
4 -43.000000 -26.000000 26.124356 0.000000 1.000000 0.000000 0.500000 0.500000 1 4 1.000000
4 -36.000000 -26.000000 28.000000 0.000000 1.000000 0.000000 0.500000 0.500000 1 4 1.000000
sb_buggy_tire
4 -43.000000 -34.000000 26.124356 -0.707107 0.000000 0.707107 0.333333 0.000000 1 4 1.000000
4 -43.000000 -26.000000 26.124356 -0.707107 0.000000 0.707107 0.333333 1.000000 1 4 1.000000
4 -48.124356 -26.000000 21.000000 -0.707107 0.000000 0.707107 0.416667 1.000000 1 4 1.000000
sb_buggy_tire
4 -43.000000 -34.000000 26.124356 -0.707107 0.000000 0.707107 0.333333 0.000000 1 4 1.000000
4 -48.124356 -26.000000 21.000000 -0.707107 0.000000 0.707107 0.416667 1.000000 1 4 1.000000
4 -48.124356 -34.000000 21.000000 -0.707107 0.000000 0.707107 0.416667 0.000000 1 4 1.000000
sb_buggy_tire
4 -36.000000 -34.000000 14.000000 0.000000 -1.000000 0.000000 0.500000 0.500000 1 4 1.000000
4 -43.000000 -34.000000 26.124356 0.000000 -1.000000 0.000000 0.500000 0.500000 1 4 1.000000
4 -48.124356 -34.000000 21.000000 0.000000 -1.000000 0.000000 0.500000 0.500000 1 4 1.000000
sb_buggy_tire
4 -36.000000 -26.000000 14.000000 0.000000 1.000000 0.000000 0.500000 0.500000 1 4 1.000000
4 -48.124356 -26.000000 21.000000 0.000000 1.000000 0.000000 0.500000 0.500000 1 4 1.000000
4 -43.000000 -26.000000 26.124356 0.000000 1.000000 0.000000 0.500000 0.500000 1 4 1.000000
sb_buggy_tire
4 -48.124356 -34.000000 21.000000 -0.965926 0.000000 0.258819 0.416667 0.000000 1 4 1.000000
4 -48.124356 -26.000000 21.000000 -0.965926 0.000000 0.258819 0.416667 1.000000 1 4 1.000000
4 -50.000000 -26.000000 14.000000 -0.965926 0.000000 0.258819 0.500000 1.000000 1 4 1.000000
sb_buggy_tire
4 -48.124356 -34.000000 21.000000 -0.965926 0.000000 0.258819 0.416667 0.000000 1 4 1.000000
4 -50.000000 -26.000000 14.000000 -0.965926 0.000000 0.258819 0.500000 1.000000 1 4 1.000000
4 -50.000000 -34.000000 14.000000 -0.965926 0.000000 0.258819 0.500000 0.000000 1 4 1.000000
sb_buggy_tire
4 -36.000000 -34.000000 14.000000 0.000000 -1.000000 0.000000 0.500000 0.500000 1 4 1.000000
4 -48.124356 -34.000000 21.000000 0.000000 -1.000000 0.000000 0.500000 0.500000 1 4 1.000000
4 -50.000000 -34.000000 14.000000 0.000000 -1.000000 0.000000 0.500000 0.500000 1 4 1.000000
sb_buggy_tire
4 -36.000000 -26.000000 14.000000 0.000000 1.000000 0.000000 0.500000 0.500000 1 4 1.000000
4 -50.000000 -26.000000 14.000000 0.000000 1.000000 0.000000 0.500000 0.500000 1 4 1.000000
4 -48.124356 -26.000000 21.000000 0.000000 1.000000 0.000000 0.500000 0.500000 1 4 1.000000
sb_buggy_tire
4 -50.000000 -34.000000 14.000000 -0.965926 0.000000 -0.258819 0.500000 0.000000 1 4 1.000000
4 -50.000000 -26.000000 14.000000 -0.965926 0.000000 -0.258819 0.500000 1.000000 1 4 1.000000
4 -48.124356 -26.000000 7.000000 -0.965926 0.000000 -0.258819 0.583333 1.000000 1 4 1.000000
sb_buggy_tire
4 -50.000000 -34.000000 14.000000 -0.965926 0.000000 -0.258819 0.500000 0.000000 1 4 1.000000
4 -48.124356 -26.000000 7.000000 -0.965926 0.000000 -0.258819 0.583333 1.000000 1 4 1.000000
4 -48.124356 -34.000000 7.000000 -0.965926 0.000000 -0.258819 0.583333 0.000000 1 4 1.000000
sb_buggy_tire
4 -36.000000 -34.000000 14.000000 0.000000 -1.000000 0.000000 0.500000 0.500000 1 4 1.000000
4 -50.000000 -34.000000 14.000000 0.000000 -1.000000 0.000000 0.500000 0.500000 1 4 1.000000
4 -48.124356 -34.000000 7.000000 0.000000 -1.000000 0.000000 0.500000 0.500000 1 4 1.000000
sb_buggy_tire
4 -36.000000 -26.000000 14.000000 0.000000 1.000000 0.000000 0.500000 0.500000 1 4 1.000000
4 -48.124356 -26.000000 7.000000 0.000000 1.000000 0.000000 0.500000 0.500000 1 4 1.000000
4 -50.000000 -26.000000 14.000000 0.000000 1.000000 0.000000 0.500000 0.500000 1 4 1.000000
sb_buggy_tire
4 -48.124356 -34.000000 7.000000 -0.707107 0.000000 -0.707107 0.583333 0.000000 1 4 1.000000
4 -48.124356 -26.000000 7.000000 -0.707107 0.000000 -0.707107 0.583333 1.000000 1 4 1.000000
4 -43.000000 -26.000000 1.875644 -0.707107 0.000000 -0.707107 0.666667 1.000000 1 4 1.000000
sb_buggy_tire
4 -48.124356 -34.000000 7.000000 -0.707107 0.000000 -0.707107 0.583333 0.000000 1 4 1.000000
4 -43.000000 -26.000000 1.875644 -0.707107 0.000000 -0.707107 0.666667 1.000000 1 4 1.000000
4 -43.000000 -34.000000 1.875644 -0.707107 0.000000 -0.707107 0.666667 0.000000 1 4 1.000000
sb_buggy_tire
4 -36.000000 -34.000000 14.000000 0.000000 -1.000000 0.000000 0.500000 0.500000 1 4 1.000000
4 -48.124356 -34.000000 7.000000 0.000000 -1.000000 0.000000 0.500000 0.500000 1 4 1.000000
4 -43.000000 -34.000000 1.875644 0.000000 -1.000000 0.000000 0.500000 0.500000 1 4 1.000000
sb_buggy_tire
4 -36.000000 -26.000000 14.000000 0.000000 1.000000 0.000000 0.500000 0.500000 1 4 1.000000
4 -43.000000 -26.000000 1.875644 0.000000 1.000000 0.000000 0.500000 0.500000 1 4 1.000000
4 -48.124356 -26.000000 7.000000 0.000000 1.000000 0.000000 0.500000 0.500000 1 4 1.000000
sb_buggy_tire
4 -43.000000 -34.000000 1.875644 -0.258819 0.000000 -0.965926 0.666667 0.000000 1 4 1.000000
4 -43.000000 -26.000000 1.875644 -0.258819 0.000000 -0.965926 0.666667 1.000000 1 4 1.000000
4 -36.000000 -26.000000 0.000000 -0.258819 0.000000 -0.965926 0.750000 1.000000 1 4 1.000000
sb_buggy_tire
4 -43.000000 -34.000000 1.875644 -0.258819 0.000000 -0.965926 0.666667 0.000000 1 4 1.000000
4 -36.000000 -26.000000 0.000000 -0.258819 0.000000 -0.965926 0.750000 1.000000 1 4 1.000000
4 -36.000000 -34.000000 0.000000 -0.258819 0.000000 -0.965926 0.750000 0.000000 1 4 1.000000
sb_buggy_tire
4 -36.000000 -34.000000 14.000000 0.000000 -1.000000 0.000000 0.500000 0.500000 1 4 1.000000
4 -43.000000 -34.000000 1.875644 0.000000 -1.000000 0.000000 0.500000 0.500000 1 4 1.000000
4 -36.000000 -34.000000 0.000000 0.000000 -1.000000 0.000000 0.500000 0.500000 1 4 1.000000
sb_buggy_tire
4 -36.000000 -26.000000 14.000000 0.000000 1.000000 0.000000 0.500000 0.500000 1 4 1.000000
4 -36.000000 -26.000000 0.000000 0.000000 1.000000 0.000000 0.500000 0.500000 1 4 1.000000
4 -43.000000 -26.000000 1.875644 0.000000 1.000000 0.000000 0.500000 0.500000 1 4 1.000000
sb_buggy_tire
4 -36.000000 -34.000000 0.000000 0.258819 0.000000 -0.965926 0.750000 0.000000 1 4 1.000000
4 -36.000000 -26.000000 0.000000 0.258819 0.000000 -0.965926 0.750000 1.000000 1 4 1.000000
4 -29.000000 -26.000000 1.875644 0.258819 0.000000 -0.965926 0.833333 1.000000 1 4 1.000000
sb_buggy_tire
4 -36.000000 -34.000000 0.000000 0.258819 0.000000 -0.965926 0.750000 0.000000 1 4 1.000000
4 -29.000000 -26.000000 1.875644 0.258819 0.000000 -0.965926 0.833333 1.000000 1 4 1.000000
4 -29.000000 -34.000000 1.875644 0.258819 0.000000 -0.965926 0.833333 0.000000 1 4 1.000000
sb_buggy_tire
4 -36.000000 -34.000000 14.000000 0.000000 -1.000000 0.000000 0.500000 0.500000 1 4 1.000000
4 -36.000000 -34.000000 0.000000 0.000000 -1.000000 0.000000 0.500000 0.500000 1 4 1.000000
4 -29.000000 -34.000000 1.875644 0.000000 -1.000000 0.000000 0.500000 0.500000 1 4 1.000000
sb_buggy_tire
4 -36.000000 -26.000000 14.000000 0.000000 1.000000 0.000000 0.500000 0.500000 1 4 1.000000
4 -29.000000 -26.000000 1.875644 0.000000 1.000000 0.000000 0.500000 0.500000 1 4 1.000000
4 -36.000000 -26.000000 0.000000 0.000000 1.000000 0.000000 0.500000 0.500000 1 4 1.000000
sb_buggy_tire
4 -29.000000 -34.000000 1.875644 0.707107 0.000000 -0.707107 0.833333 0.000000 1 4 1.000000
4 -29.000000 -26.000000 1.875644 0.707107 0.000000 -0.707107 0.833333 1.000000 1 4 1.000000
4 -23.875644 -26.000000 7.000000 0.707107 0.000000 -0.707107 0.916667 1.000000 1 4 1.000000
sb_buggy_tire
4 -29.000000 -34.000000 1.875644 0.707107 0.000000 -0.707107 0.833333 0.000000 1 4 1.000000
4 -23.875644 -26.000000 7.000000 0.707107 0.000000 -0.707107 0.916667 1.000000 1 4 1.000000
4 -23.875644 -34.000000 7.000000 0.707107 0.000000 -0.707107 0.916667 0.000000 1 4 1.000000
sb_buggy_tire
4 -36.000000 -34.000000 14.000000 0.000000 -1.000000 0.000000 0.500000 0.500000 1 4 1.000000
4 -29.000000 -34.000000 1.875644 0.000000 -1.000000 0.000000 0.500000 0.500000 1 4 1.000000
4 -23.875644 -34.000000 7.000000 0.000000 -1.000000 0.000000 0.500000 0.500000 1 4 1.000000
sb_buggy_tire
4 -36.000000 -26.000000 14.000000 0.000000 1.000000 0.000000 0.500000 0.500000 1 4 1.000000
4 -23.875644 -26.000000 7.000000 0.000000 1.000000 0.000000 0.500000 0.500000 1 4 1.000000
4 -29.000000 -26.000000 1.875644 0.000000 1.000000 0.000000 0.500000 0.500000 1 4 1.000000
sb_buggy_tire
4 -23.875644 -34.000000 7.000000 0.965926 0.000000 -0.258819 0.916667 0.000000 1 4 1.000000
4 -23.875644 -26.000000 7.000000 0.965926 0.000000 -0.258819 0.916667 1.000000 1 4 1.000000
4 -22.000000 -26.000000 14.000000 0.965926 0.000000 -0.258819 1.000000 1.000000 1 4 1.000000
sb_buggy_tire
4 -23.875644 -34.000000 7.000000 0.965926 0.000000 -0.258819 0.916667 0.000000 1 4 1.000000
4 -22.000000 -26.000000 14.000000 0.965926 0.000000 -0.258819 1.000000 1.000000 1 4 1.000000
4 -22.000000 -34.000000 14.000000 0.965926 0.000000 -0.258819 1.000000 0.000000 1 4 1.000000
sb_buggy_tire
4 -36.000000 -34.000000 14.000000 0.000000 -1.000000 0.000000 0.500000 0.500000 1 4 1.000000
4 -23.875644 -34.000000 7.000000 0.000000 -1.000000 0.000000 0.500000 0.500000 1 4 1.000000
4 -22.000000 -34.000000 14.000000 0.000000 -1.000000 0.000000 0.500000 0.500000 1 4 1.000000
sb_buggy_tire
4 -36.000000 -26.000000 14.000000 0.000000 1.000000 0.000000 0.500000 0.500000 1 4 1.000000
4 -22.000000 -26.000000 14.000000 0.000000 1.000000 0.000000 0.500000 0.500000 1 4 1.000000
4 -23.875644 -26.000000 7.000000 0.000000 1.000000 0.000000 0.500000 0.500000 1 4 1.000000
end
