version 1
nodes
0 "ValveBiped.Bip01_Pelvis" -1
1 "ValveBiped.Bip01_Spine" 0
2 "ValveBiped.Bip01_Spine2" 1
3 "ValveBiped.Bip01_Neck1" 2
4 "ValveBiped.Bip01_Head1" 3
5 "ValveBiped.Bip01_L_UpperArm" 2
6 "ValveBiped.Bip01_L_Forearm" 5
7 "ValveBiped.Bip01_L_Hand" 6
8 "ValveBiped.Bip01_R_UpperArm" 2
9 "ValveBiped.Bip01_R_Forearm" 8
10 "ValveBiped.Bip01_R_Hand" 9
11 "ValveBiped.Bip01_L_Thigh" 0
12 "ValveBiped.Bip01_L_Calf" 11
13 "ValveBiped.Bip01_L_Foot" 12
14 "ValveBiped.Bip01_R_Thigh" 0
15 "ValveBiped.Bip01_R_Calf" 14
16 "ValveBiped.Bip01_R_Foot" 15
end
skeleton
time 0
0 0.000000 0.000000 38.000000 0.000000 0.000000 0.000000
1 0.000000 0.000000 4.000000 0.000000 0.000000 0.000000
2 0.000000 0.000000 10.000000 0.000000 0.000000 0.000000
3 0.000000 0.000000 10.000000 0.000000 0.000000 0.000000
4 0.000000 0.000000 4.000000 0.000000 0.000000 0.000000
5 0.000000 6.000000 8.000000 0.000000 0.000000 1.570796
6 11.000000 0.000000 0.000000 0.000000 0.000000 0.000000
7 10.000000 0.000000 0.000000 0.000000 0.000000 0.000000
8 0.000000 -6.000000 8.000000 0.000000 0.000000 -1.570796
9 11.000000 0.000000 0.000000 0.000000 0.000000 0.000000
10 10.000000 0.000000 0.000000 0.000000 0.000000 0.000000
11 0.000000 4.000000 -2.000000 0.000000 0.000000 0.000000
12 0.000000 0.000000 -17.000000 0.000000 0.000000 0.000000
13 0.000000 0.000000 -17.000000 0.000000 0.000000 0.000000
14 0.000000 -4.000000 -2.000000 0.000000 0.000000 0.000000
15 0.000000 0.000000 -17.000000 0.000000 0.000000 0.000000
16 0.000000 0.000000 -17.000000 0.000000 0.000000 0.000000
end
triangles
phy
14 -2.500000 -6.500000 19.000000 0.000000 0.000000 -1.000000 0 0 1 14 1
14 -2.500000 -1.500000 19.000000 0.000000 0.000000 -1.000000 0 0 1 14 1
14 2.500000 -1.500000 19.000000 0.000000 0.000000 -1.000000 0 0 1 14 1
phy
14 -2.500000 -6.500000 19.000000 0.000000 0.000000 -1.000000 0 0 1 14 1
14 2.500000 -1.500000 19.000000 0.000000 0.000000 -1.000000 0 0 1 14 1
14 2.500000 -6.500000 19.000000 0.000000 0.000000 -1.000000 0 0 1 14 1
phy
14 2.500000 -1.500000 35.999999 0.000000 1.000000 0.000000 0 0 1 14 1
14 2.500000 -1.500000 19.000000 0.000000 1.000000 0.000000 0 0 1 14 1
14 -2.500000 -1.500000 19.000000 0.000000 1.000000 0.000000 0 0 1 14 1
phy
14 2.500000 -1.500000 35.999999 0.000000 1.000000 0.000000 0 0 1 14 1
14 -2.500000 -1.500000 19.000000 0.000000 1.000000 0.000000 0 0 1 14 1
14 -2.500000 -1.500000 35.999999 0.000000 1.000000 0.000000 0 0 1 14 1
phy
14 2.500000 -6.500000 35.999999 1.000000 0.000000 0.000000 0 0 1 14 1
14 2.500000 -6.500000 19.000000 1.000000 0.000000 0.000000 0 0 1 14 1
14 2.500000 -1.500000 19.000000 1.000000 0.000000 0.000000 0 0 1 14 1
phy
14 2.500000 -6.500000 35.999999 1.000000 0.000000 0.000000 0 0 1 14 1
14 2.500000 -1.500000 19.000000 1.000000 0.000000 0.000000 0 0 1 14 1
14 2.500000 -1.500000 35.999999 1.000000 0.000000 0.000000 0 0 1 14 1
phy
14 -2.500000 -6.500000 35.999999 0.000000 0.000000 1.000000 0 0 1 14 1
14 2.500000 -6.500000 35.999999 0.000000 0.000000 1.000000 0 0 1 14 1
14 2.500000 -1.500000 35.999999 0.000000 0.000000 1.000000 0 0 1 14 1
phy
14 -2.500000 -6.500000 35.999999 0.000000 0.000000 1.000000 0 0 1 14 1
14 2.500000 -1.500000 35.999999 0.000000 0.000000 1.000000 0 0 1 14 1
14 -2.500000 -1.500000 35.999999 0.000000 0.000000 1.000000 0 0 1 14 1
phy
14 -2.500000 -6.500000 35.999999 -1.000000 0.000000 0.000000 0 0 1 14 1
14 -2.500000 -1.500000 35.999999 -1.000000 0.000000 0.000000 0 0 1 14 1
14 -2.500000 -1.500000 19.000000 -1.000000 0.000000 0.000000 0 0 1 14 1
phy
14 -2.500000 -6.500000 35.999999 -1.000000 0.000000 0.000000 0 0 1 14 1
14 -2.500000 -1.500000 19.000000 -1.000000 0.000000 0.000000 0 0 1 14 1
14 -2.500000 -6.500000 19.000000 -1.000000 0.000000 0.000000 0 0 1 14 1
phy
14 -2.500000 -6.500000 35.999999 0.000000 -1.000000 0.000000 0 0 1 14 1
14 -2.500000 -6.500000 19.000000 0.000000 -1.000000 0.000000 0 0 1 14 1
14 2.500000 -6.500000 19.000000 0.000000 -1.000000 0.000000 0 0 1 14 1
phy
14 -2.500000 -6.500000 35.999999 0.000000 -1.000000 0.000000 0 0 1 14 1
14 2.500000 -6.500000 19.000000 0.000000 -1.000000 0.000000 0 0 1 14 1
14 2.500000 -6.500000 35.999999 0.000000 -1.000000 0.000000 0 0 1 14 1
end
