version 1
nodes
0 "ValveBiped.Bip01_Pelvis" -1
1 "ValveBiped.Bip01_Spine" 0
2 "ValveBiped.Bip01_Spine2" 1
3 "ValveBiped.Bip01_Neck1" 2
4 "ValveBiped.Bip01_Head1" 3
5 "ValveBiped.Bip01_L_UpperArm" 2
6 "ValveBiped.Bip01_L_Forearm" 5
7 "ValveBiped.Bip01_L_Hand" 6
8 "ValveBiped.Bip01_R_UpperArm" 2
9 "ValveBiped.Bip01_R_Forearm" 8
10 "ValveBiped.Bip01_R_Hand" 9
11 "ValveBiped.Bip01_L_Thigh" 0
12 "ValveBiped.Bip01_L_Calf" 11
13 "ValveBiped.Bip01_L_Foot" 12
14 "ValveBiped.Bip01_R_Thigh" 0
15 "ValveBiped.Bip01_R_Calf" 14
16 "ValveBiped.Bip01_R_Foot" 15
end
skeleton
time 0
0 0.000000 0.000000 38.000000 0.000000 0.000000 1.570795
1 0.000000 0.000000 4.000000 0.000000 0.000000 0.000000
2 0.000000 0.000000 10.000000 0.000000 0.000000 0.000000
3 0.000000 0.000000 10.000000 0.000000 0.000000 0.000000
4 0.000000 0.000000 4.000000 0.000000 0.000000 0.000000
5 0.000000 6.000000 8.000000 0.000000 0.000000 1.570796
6 11.000000 0.000000 0.000000 0.000000 0.000000 0.000000
7 10.000000 0.000000 0.000000 0.000000 0.000000 0.000000
8 0.000000 -6.000000 8.000000 0.000000 0.000000 -1.570796
9 11.000000 0.000000 0.000000 0.000000 0.000000 0.000000
10 10.000000 0.000000 0.000000 0.000000 0.000000 0.000000
11 0.000000 4.000000 -2.000000 0.000000 0.000000 0.000000
12 0.000000 0.000000 -17.000000 0.000000 0.000000 0.000000
13 0.000000 0.000000 -17.000000 0.000000 0.000000 0.000000
14 0.000000 -4.000000 -2.000000 0.000000 0.000000 0.000000
15 0.000000 0.000000 -17.000000 0.000000 0.000000 0.000000
16 0.000000 0.000000 -17.000000 0.000000 0.000000 0.000000
time 1
0 0.000000 0.000000 38.164068 0.000000 0.000000 1.570795
1 0.000000 0.000000 4.000000 0.000000 0.000000 0.000000
2 0.000000 0.000000 10.000000 0.000000 0.000000 0.000000
3 0.000000 0.000000 10.000000 0.000000 0.000000 0.000000
4 0.000000 0.000000 4.000000 0.000000 0.000000 0.000000
5 0.000000 6.000000 8.000000 0.000000 -0.083160 1.570796
6 11.000000 0.000000 0.000000 0.000000 0.000000 0.000000
7 10.000000 0.000000 0.000000 0.000000 0.000000 0.000000
8 0.000000 -6.000000 8.000000 0.000000 -0.083160 -1.570796
9 11.000000 0.000000 0.000000 0.000000 0.000000 0.000000
10 10.000000 0.000000 0.000000 0.000000 0.000000 0.000000
11 0.000000 4.000000 -2.000000 0.000000 0.103953 0.000000
12 0.000000 0.000000 -17.000000 0.000000 0.000000 0.000000
13 0.000000 0.000000 -17.000000 0.000000 0.000000 0.000000
14 0.000000 -4.000000 -2.000000 0.000000 -0.103950 0.000000
15 0.000000 0.000000 -17.000000 0.000000 0.166325 0.000000
16 0.000000 0.000000 -17.000000 0.000000 0.000000 0.000000
time 2
0 0.000000 0.000000 38.324229 0.000000 0.000000 1.570795
1 0.000000 0.000000 4.000000 0.000000 0.000000 0.000000
2 0.000000 0.000000 10.000000 0.000000 0.000000 0.000000
3 0.000000 0.000000 10.000000 0.000000 0.000000 0.000000
4 0.000000 0.000000 4.000000 0.000000 0.000000 0.000000
5 0.000000 6.000000 8.000000 0.000000 -0.162690 1.570796
6 11.000000 0.000000 0.000000 0.000000 0.000000 0.000000
7 10.000000 0.000000 0.000000 0.000000 0.000000 0.000000
8 0.000000 -6.000000 8.000000 0.000000 -0.162690 -1.570796
9 11.000000 0.000000 0.000000 0.000000 0.000000 0.000000
10 10.000000 0.000000 0.000000 0.000000 0.000000 0.000000
11 0.000000 4.000000 -2.000000 0.000000 0.203354 0.000000
12 0.000000 0.000000 -17.000000 0.000000 0.000000 0.000000
13 0.000000 0.000000 -17.000000 0.000000 0.000000 0.000000
14 0.000000 -4.000000 -2.000000 0.000000 -0.203363 0.000000
15 0.000000 0.000000 -17.000000 0.000000 0.325366 0.000000
16 0.000000 0.000000 -17.000000 0.000000 0.000000 0.000000
time 3
0 0.000000 0.000000 38.468764 0.000000 0.000000 1.570795
1 0.000000 0.000000 4.000000 0.000000 0.000000 0.000000
2 0.000000 0.000000 10.000000 0.000000 0.000000 0.000000
3 0.000000 0.000000 10.000000 0.000000 0.000000 0.000000
4 0.000000 0.000000 4.000000 0.000000 0.000000 0.000000
5 0.000000 6.000000 8.000000 0.000000 -0.235106 1.570796
6 11.000000 0.000000 0.000000 0.000000 0.000000 0.000000
7 10.000000 0.000000 0.000000 0.000000 0.000000 0.000000
8 0.000000 -6.000000 8.000000 0.000000 -0.235106 -1.570796
9 11.000000 0.000000 0.000000 0.000000 0.000000 0.000000
10 10.000000 0.000000 0.000000 0.000000 0.000000 0.000000
11 0.000000 4.000000 -2.000000 0.000000 0.293892 0.000000
12 0.000000 0.000000 -17.000000 0.000000 0.000000 0.000000
13 0.000000 0.000000 -17.000000 0.000000 0.000000 0.000000
14 0.000000 -4.000000 -2.000000 0.000000 -0.293883 0.000000
15 0.000000 0.000000 -17.000000 0.000000 0.470227 0.000000
16 0.000000 0.000000 -17.000000 0.000000 0.000000 0.000000
time 4
0 0.000000 0.000000 38.593768 0.000000 0.000000 1.570795
1 0.000000 0.000000 4.000000 0.000000 0.000000 0.000000
2 0.000000 0.000000 10.000000 0.000000 0.000000 0.000000
3 0.000000 0.000000 10.000000 0.000000 0.000000 0.000000
4 0.000000 0.000000 4.000000 0.000000 0.000000 0.000000
5 0.000000 6.000000 8.000000 0.000000 -0.297252 1.570796
6 11.000000 0.000000 0.000000 0.000000 0.000000 0.000000
7 10.000000 0.000000 0.000000 0.000000 0.000000 0.000000
8 0.000000 -6.000000 8.000000 0.000000 -0.297252 -1.570796
9 11.000000 0.000000 0.000000 0.000000 0.000000 0.000000
10 10.000000 0.000000 0.000000 0.000000 0.000000 0.000000
11 0.000000 4.000000 -2.000000 0.000000 0.371561 0.000000
12 0.000000 0.000000 -17.000000 0.000000 0.000000 0.000000
13 0.000000 0.000000 -17.000000 0.000000 0.000000 0.000000
14 0.000000 -4.000000 -2.000000 0.000000 -0.371565 0.000000
15 0.000000 0.000000 -17.000000 0.000000 0.594498 0.000000
16 0.000000 0.000000 -17.000000 0.000000 0.000000 0.000000
time 5
0 0.000000 0.000000 38.691427 0.000000 0.000000 1.570795
1 0.000000 0.000000 4.000000 0.000000 0.000000 0.000000
2 0.000000 0.000000 10.000000 0.000000 0.000000 0.000000
3 0.000000 0.000000 10.000000 0.000000 0.000000 0.000000
4 0.000000 0.000000 4.000000 0.000000 0.000000 0.000000
5 0.000000 6.000000 8.000000 0.000000 -0.346408 1.570796
6 11.000000 0.000000 0.000000 0.000000 0.000000 0.000000
7 10.000000 0.000000 0.000000 0.000000 0.000000 0.000000
8 0.000000 -6.000000 8.000000 0.000000 -0.346408 -1.570796
9 11.000000 0.000000 0.000000 0.000000 0.000000 0.000000
10 10.000000 0.000000 0.000000 0.000000 0.000000 0.000000
11 0.000000 4.000000 -2.000000 0.000000 0.433007 0.000000
12 0.000000 0.000000 -17.000000 0.000000 0.000000 0.000000
13 0.000000 0.000000 -17.000000 0.000000 0.000000 0.000000
14 0.000000 -4.000000 -2.000000 0.000000 -0.433009 0.000000
15 0.000000 0.000000 -17.000000 0.000000 0.692812 0.000000
16 0.000000 0.000000 -17.000000 0.000000 0.000000 0.000000
time 6
0 0.000000 0.000000 38.757836 0.000000 0.000000 1.570795
1 0.000000 0.000000 4.000000 0.000000 0.000000 0.000000
2 0.000000 0.000000 10.000000 0.000000 0.000000 0.000000
3 0.000000 0.000000 10.000000 0.000000 0.000000 0.000000
4 0.000000 0.000000 4.000000 0.000000 0.000000 0.000000
5 0.000000 6.000000 8.000000 0.000000 -0.380412 1.570796
6 11.000000 0.000000 0.000000 0.000000 0.000000 0.000000
7 10.000000 0.000000 0.000000 0.000000 0.000000 0.000000
8 0.000000 -6.000000 8.000000 0.000000 -0.380412 -1.570796
9 11.000000 0.000000 0.000000 0.000000 0.000000 0.000000
10 10.000000 0.000000 0.000000 0.000000 0.000000 0.000000
11 0.000000 4.000000 -2.000000 0.000000 0.475514 0.000000
12 0.000000 0.000000 -17.000000 0.000000 0.000000 0.000000
13 0.000000 0.000000 -17.000000 0.000000 0.000000 0.000000
14 0.000000 -4.000000 -2.000000 0.000000 -0.475515 0.000000
15 0.000000 0.000000 -17.000000 0.000000 0.760823 0.000000
16 0.000000 0.000000 -17.000000 0.000000 0.000000 0.000000
time 7
0 0.000000 0.000000 38.792993 0.000000 0.000000 1.570795
1 0.000000 0.000000 4.000000 0.000000 0.000000 0.000000
2 0.000000 0.000000 10.000000 0.000000 0.000000 0.000000
3 0.000000 0.000000 10.000000 0.000000 0.000000 0.000000
4 0.000000 0.000000 4.000000 0.000000 0.000000 0.000000
5 0.000000 6.000000 8.000000 0.000000 -0.397809 1.570796
6 11.000000 0.000000 0.000000 0.000000 0.000000 0.000000
7 10.000000 0.000000 0.000000 0.000000 0.000000 0.000000
8 0.000000 -6.000000 8.000000 0.000000 -0.397809 -1.570796
9 11.000000 0.000000 0.000000 0.000000 0.000000 0.000000
10 10.000000 0.000000 0.000000 0.000000 0.000000 0.000000
11 0.000000 4.000000 -2.000000 0.000000 0.497261 0.000000
12 0.000000 0.000000 -17.000000 0.000000 0.000000 0.000000
13 0.000000 0.000000 -17.000000 0.000000 0.000000 0.000000
14 0.000000 -4.000000 -2.000000 0.000000 -0.497261 0.000000
15 0.000000 0.000000 -17.000000 0.000000 0.795618 0.000000
16 0.000000 0.000000 -17.000000 0.000000 0.000000 0.000000
time 8
0 0.000000 0.000000 38.792993 0.000000 0.000000 1.570795
1 0.000000 0.000000 4.000000 0.000000 0.000000 0.000000
2 0.000000 0.000000 10.000000 0.000000 0.000000 0.000000
3 0.000000 0.000000 10.000000 0.000000 0.000000 0.000000
4 0.000000 0.000000 4.000000 0.000000 0.000000 0.000000
5 0.000000 6.000000 8.000000 0.000000 -0.397809 1.570796
6 11.000000 0.000000 0.000000 0.000000 0.000000 0.000000
7 10.000000 0.000000 0.000000 0.000000 0.000000 0.000000
8 0.000000 -6.000000 8.000000 0.000000 -0.397809 -1.570796
9 11.000000 0.000000 0.000000 0.000000 0.000000 0.000000
10 10.000000 0.000000 0.000000 0.000000 0.000000 0.000000
11 0.000000 4.000000 -2.000000 0.000000 0.497261 0.000000
12 0.000000 0.000000 -17.000000 0.000000 0.000000 0.000000
13 0.000000 0.000000 -17.000000 0.000000 0.000000 0.000000
14 0.000000 -4.000000 -2.000000 0.000000 -0.497261 0.000000
15 0.000000 0.000000 -17.000000 0.000000 0.795618 0.000000
16 0.000000 0.000000 -17.000000 0.000000 0.000000 0.000000
time 9
0 0.000000 0.000000 38.757836 0.000000 0.000000 1.570795
1 0.000000 0.000000 4.000000 0.000000 0.000000 0.000000
2 0.000000 0.000000 10.000000 0.000000 0.000000 0.000000
3 0.000000 0.000000 10.000000 0.000000 0.000000 0.000000
4 0.000000 0.000000 4.000000 0.000000 0.000000 0.000000
5 0.000000 6.000000 8.000000 0.000000 -0.380412 1.570796
6 11.000000 0.000000 0.000000 0.000000 0.000000 0.000000
7 10.000000 0.000000 0.000000 0.000000 0.000000 0.000000
8 0.000000 -6.000000 8.000000 0.000000 -0.380412 -1.570796
9 11.000000 0.000000 0.000000 0.000000 0.000000 0.000000
10 10.000000 0.000000 0.000000 0.000000 0.000000 0.000000
11 0.000000 4.000000 -2.000000 0.000000 0.475514 0.000000
12 0.000000 0.000000 -17.000000 0.000000 0.000000 0.000000
13 0.000000 0.000000 -17.000000 0.000000 0.000000 0.000000
14 0.000000 -4.000000 -2.000000 0.000000 -0.475515 0.000000
15 0.000000 0.000000 -17.000000 0.000000 0.760823 0.000000
16 0.000000 0.000000 -17.000000 0.000000 0.000000 0.000000
time 10
0 0.000000 0.000000 38.691427 0.000000 0.000000 1.570795
1 0.000000 0.000000 4.000000 0.000000 0.000000 0.000000
2 0.000000 0.000000 10.000000 0.000000 0.000000 0.000000
3 0.000000 0.000000 10.000000 0.000000 0.000000 0.000000
4 0.000000 0.000000 4.000000 0.000000 0.000000 0.000000
5 0.000000 6.000000 8.000000 0.000000 -0.346408 1.570796
6 11.000000 0.000000 0.000000 0.000000 0.000000 0.000000
7 10.000000 0.000000 0.000000 0.000000 0.000000 0.000000
8 0.000000 -6.000000 8.000000 0.000000 -0.346408 -1.570796
9 11.000000 0.000000 0.000000 0.000000 0.000000 0.000000
10 10.000000 0.000000 0.000000 0.000000 0.000000 0.000000
11 0.000000 4.000000 -2.000000 0.000000 0.433007 0.000000
12 0.000000 0.000000 -17.000000 0.000000 0.000000 0.000000
13 0.000000 0.000000 -17.000000 0.000000 0.000000 0.000000
14 0.000000 -4.000000 -2.000000 0.000000 -0.433009 0.000000
15 0.000000 0.000000 -17.000000 0.000000 0.692812 0.000000
16 0.000000 0.000000 -17.000000 0.000000 0.000000 0.000000
time 11
0 0.000000 0.000000 38.593768 0.000000 0.000000 1.570795
1 0.000000 0.000000 4.000000 0.000000 0.000000 0.000000
2 0.000000 0.000000 10.000000 0.000000 0.000000 0.000000
3 0.000000 0.000000 10.000000 0.000000 0.000000 0.000000
4 0.000000 0.000000 4.000000 0.000000 0.000000 0.000000
5 0.000000 6.000000 8.000000 0.000000 -0.297252 1.570796
6 11.000000 0.000000 0.000000 0.000000 0.000000 0.000000
7 10.000000 0.000000 0.000000 0.000000 0.000000 0.000000
8 0.000000 -6.000000 8.000000 0.000000 -0.297252 -1.570796
9 11.000000 0.000000 0.000000 0.000000 0.000000 0.000000
10 10.000000 0.000000 0.000000 0.000000 0.000000 0.000000
11 0.000000 4.000000 -2.000000 0.000000 0.371561 0.000000
12 0.000000 0.000000 -17.000000 0.000000 0.000000 0.000000
13 0.000000 0.000000 -17.000000 0.000000 0.000000 0.000000
14 0.000000 -4.000000 -2.000000 0.000000 -0.371565 0.000000
15 0.000000 0.000000 -17.000000 0.000000 0.594498 0.000000
16 0.000000 0.000000 -17.000000 0.000000 0.000000 0.000000
time 12
0 0.000000 0.000000 38.468764 0.000000 0.000000 1.570795
1 0.000000 0.000000 4.000000 0.000000 0.000000 0.000000
2 0.000000 0.000000 10.000000 0.000000 0.000000 0.000000
3 0.000000 0.000000 10.000000 0.000000 0.000000 0.000000
4 0.000000 0.000000 4.000000 0.000000 0.000000 0.000000
5 0.000000 6.000000 8.000000 0.000000 -0.235106 1.570796
6 11.000000 0.000000 0.000000 0.000000 0.000000 0.000000
7 10.000000 0.000000 0.000000 0.000000 0.000000 0.000000
8 0.000000 -6.000000 8.000000 0.000000 -0.235106 -1.570796
9 11.000000 0.000000 0.000000 0.000000 0.000000 0.000000
10 10.000000 0.000000 0.000000 0.000000 0.000000 0.000000
11 0.000000 4.000000 -2.000000 0.000000 0.293892 0.000000
12 0.000000 0.000000 -17.000000 0.000000 0.000000 0.000000
13 0.000000 0.000000 -17.000000 0.000000 0.000000 0.000000
14 0.000000 -4.000000 -2.000000 0.000000 -0.293883 0.000000
15 0.000000 0.000000 -17.000000 0.000000 0.470227 0.000000
16 0.000000 0.000000 -17.000000 0.000000 0.000000 0.000000
time 13
0 0.000000 0.000000 38.324229 0.000000 0.000000 1.570795
1 0.000000 0.000000 4.000000 0.000000 0.000000 0.000000
2 0.000000 0.000000 10.000000 0.000000 0.000000 0.000000
3 0.000000 0.000000 10.000000 0.000000 0.000000 0.000000
4 0.000000 0.000000 4.000000 0.000000 0.000000 0.000000
5 0.000000 6.000000 8.000000 0.000000 -0.162690 1.570796
6 11.000000 0.000000 0.000000 0.000000 0.000000 0.000000
7 10.000000 0.000000 0.000000 0.000000 0.000000 0.000000
8 0.000000 -6.000000 8.000000 0.000000 -0.162690 -1.570796
9 11.000000 0.000000 0.000000 0.000000 0.000000 0.000000
10 10.000000 0.000000 0.000000 0.000000 0.000000 0.000000
11 0.000000 4.000000 -2.000000 0.000000 0.203354 0.000000
12 0.000000 0.000000 -17.000000 0.000000 0.000000 0.000000
13 0.000000 0.000000 -17.000000 0.000000 0.000000 0.000000
14 0.000000 -4.000000 -2.000000 0.000000 -0.203363 0.000000
15 0.000000 0.000000 -17.000000 0.000000 0.325366 0.000000
16 0.000000 0.000000 -17.000000 0.000000 0.000000 0.000000
time 14
0 0.000000 0.000000 38.164068 0.000000 0.000000 1.570795
1 0.000000 0.000000 4.000000 0.000000 0.000000 0.000000
2 0.000000 0.000000 10.000000 0.000000 0.000000 0.000000
3 0.000000 0.000000 10.000000 0.000000 0.000000 0.000000
4 0.000000 0.000000 4.000000 0.000000 0.000000 0.000000
5 0.000000 6.000000 8.000000 0.000000 -0.083160 1.570796
6 11.000000 0.000000 0.000000 0.000000 0.000000 0.000000
7 10.000000 0.000000 0.000000 0.000000 0.000000 0.000000
8 0.000000 -6.000000 8.000000 0.000000 -0.083160 -1.570796
9 11.000000 0.000000 0.000000 0.000000 0.000000 0.000000
10 10.000000 0.000000 0.000000 0.000000 0.000000 0.000000
11 0.000000 4.000000 -2.000000 0.000000 0.103953 0.000000
12 0.000000 0.000000 -17.000000 0.000000 0.000000 0.000000
13 0.000000 0.000000 -17.000000 0.000000 0.000000 0.000000
14 0.000000 -4.000000 -2.000000 0.000000 -0.103950 0.000000
15 0.000000 0.000000 -17.000000 0.000000 0.166325 0.000000
16 0.000000 0.000000 -17.000000 0.000000 0.000000 0.000000
time 15
0 0.000000 0.000000 38.000000 0.000000 0.000000 1.570795
1 0.000000 0.000000 4.000000 0.000000 0.000000 0.000000
2 0.000000 0.000000 10.000000 0.000000 0.000000 0.000000
3 0.000000 0.000000 10.000000 0.000000 0.000000 0.000000
4 0.000000 0.000000 4.000000 0.000000 0.000000 0.000000
5 0.000000 6.000000 8.000000 0.000000 0.000000 1.570796
6 11.000000 0.000000 0.000000 0.000000 0.000000 0.000000
7 10.000000 0.000000 0.000000 0.000000 0.000000 0.000000
8 0.000000 -6.000000 8.000000 0.000000 0.000000 -1.570796
9 11.000000 0.000000 0.000000 0.000000 0.000000 0.000000
10 10.000000 0.000000 0.000000 0.000000 0.000000 0.000000
11 0.000000 4.000000 -2.000000 0.000000 0.000000 0.000000
12 0.000000 0.000000 -17.000000 0.000000 0.000000 0.000000
13 0.000000 0.000000 -17.000000 0.000000 0.000000 0.000000
14 0.000000 -4.000000 -2.000000 0.000000 0.000000 0.000000
15 0.000000 0.000000 -17.000000 0.000000 0.000000 0.000000
16 0.000000 0.000000 -17.000000 0.000000 0.000000 0.000000
time 16
0 0.000000 0.000000 38.164068 0.000000 0.000000 1.570795
1 0.000000 0.000000 4.000000 0.000000 0.000000 0.000000
2 0.000000 0.000000 10.000000 0.000000 0.000000 0.000000
3 0.000000 0.000000 10.000000 0.000000 0.000000 0.000000
4 0.000000 0.000000 4.000000 0.000000 0.000000 0.000000
5 0.000000 6.000000 8.000000 0.000000 0.083160 1.570796
6 11.000000 0.000000 0.000000 0.000000 0.000000 0.000000
7 10.000000 0.000000 0.000000 0.000000 0.000000 0.000000
8 0.000000 -6.000000 8.000000 0.000000 0.083160 -1.570796
9 11.000000 0.000000 0.000000 0.000000 0.000000 0.000000
10 10.000000 0.000000 0.000000 0.000000 0.000000 0.000000
11 0.000000 4.000000 -2.000000 0.000000 -0.103953 0.000000
12 0.000000 0.000000 -17.000000 0.000000 0.166325 0.000000
13 0.000000 0.000000 -17.000000 0.000000 0.000000 0.000000
14 0.000000 -4.000000 -2.000000 0.000000 0.103950 0.000000
15 0.000000 0.000000 -17.000000 0.000000 0.000000 0.000000
16 0.000000 0.000000 -17.000000 0.000000 0.000000 0.000000
time 17
0 0.000000 0.000000 38.324229 0.000000 0.000000 1.570795
1 0.000000 0.000000 4.000000 0.000000 0.000000 0.000000
2 0.000000 0.000000 10.000000 0.000000 0.000000 0.000000
3 0.000000 0.000000 10.000000 0.000000 0.000000 0.000000
4 0.000000 0.000000 4.000000 0.000000 0.000000 0.000000
5 0.000000 6.000000 8.000000 0.000000 0.162690 1.570796
6 11.000000 0.000000 0.000000 0.000000 0.000000 0.000000
7 10.000000 0.000000 0.000000 0.000000 0.000000 0.000000
8 0.000000 -6.000000 8.000000 0.000000 0.162690 -1.570796
9 11.000000 0.000000 0.000000 0.000000 0.000000 0.000000
10 10.000000 0.000000 0.000000 0.000000 0.000000 0.000000
11 0.000000 4.000000 -2.000000 0.000000 -0.203354 0.000000
12 0.000000 0.000000 -17.000000 0.000000 0.325366 0.000000
13 0.000000 0.000000 -17.000000 0.000000 0.000000 0.000000
14 0.000000 -4.000000 -2.000000 0.000000 0.203363 0.000000
15 0.000000 0.000000 -17.000000 0.000000 0.000000 0.000000
16 0.000000 0.000000 -17.000000 0.000000 0.000000 0.000000
time 18
0 0.000000 0.000000 38.468764 0.000000 0.000000 1.570795
1 0.000000 0.000000 4.000000 0.000000 0.000000 0.000000
2 0.000000 0.000000 10.000000 0.000000 0.000000 0.000000
3 0.000000 0.000000 10.000000 0.000000 0.000000 0.000000
4 0.000000 0.000000 4.000000 0.000000 0.000000 0.000000
5 0.000000 6.000000 8.000000 0.000000 0.235106 1.570796
6 11.000000 0.000000 0.000000 0.000000 0.000000 0.000000
7 10.000000 0.000000 0.000000 0.000000 0.000000 0.000000
8 0.000000 -6.000000 8.000000 0.000000 0.235106 -1.570796
9 11.000000 0.000000 0.000000 0.000000 0.000000 0.000000
10 10.000000 0.000000 0.000000 0.000000 0.000000 0.000000
11 0.000000 4.000000 -2.000000 0.000000 -0.293892 0.000000
12 0.000000 0.000000 -17.000000 0.000000 0.470227 0.000000
13 0.000000 0.000000 -17.000000 0.000000 0.000000 0.000000
14 0.000000 -4.000000 -2.000000 0.000000 0.293883 0.000000
15 0.000000 0.000000 -17.000000 0.000000 0.000000 0.000000
16 0.000000 0.000000 -17.000000 0.000000 0.000000 0.000000
time 19
0 0.000000 0.000000 38.593768 0.000000 0.000000 1.570795
1 0.000000 0.000000 4.000000 0.000000 0.000000 0.000000
2 0.000000 0.000000 10.000000 0.000000 0.000000 0.000000
3 0.000000 0.000000 10.000000 0.000000 0.000000 0.000000
4 0.000000 0.000000 4.000000 0.000000 0.000000 0.000000
5 0.000000 6.000000 8.000000 0.000000 0.297252 1.570796
6 11.000000 0.000000 0.000000 0.000000 0.000000 0.000000
7 10.000000 0.000000 0.000000 0.000000 0.000000 0.000000
8 0.000000 -6.000000 8.000000 0.000000 0.297252 -1.570796
9 11.000000 0.000000 0.000000 0.000000 0.000000 0.000000
10 10.000000 0.000000 0.000000 0.000000 0.000000 0.000000
11 0.000000 4.000000 -2.000000 0.000000 -0.371561 0.000000
12 0.000000 0.000000 -17.000000 0.000000 0.594498 0.000000
13 0.000000 0.000000 -17.000000 0.000000 0.000000 0.000000
14 0.000000 -4.000000 -2.000000 0.000000 0.371565 0.000000
15 0.000000 0.000000 -17.000000 0.000000 0.000000 0.000000
16 0.000000 0.000000 -17.000000 0.000000 0.000000 0.000000
time 20
0 0.000000 0.000000 38.691427 0.000000 0.000000 1.570795
1 0.000000 0.000000 4.000000 0.000000 0.000000 0.000000
2 0.000000 0.000000 10.000000 0.000000 0.000000 0.000000
3 0.000000 0.000000 10.000000 0.000000 0.000000 0.000000
4 0.000000 0.000000 4.000000 0.000000 0.000000 0.000000
5 0.000000 6.000000 8.000000 0.000000 0.346408 1.570796
6 11.000000 0.000000 0.000000 0.000000 0.000000 0.000000
7 10.000000 0.000000 0.000000 0.000000 0.000000 0.000000
8 0.000000 -6.000000 8.000000 0.000000 0.346408 -1.570796
9 11.000000 0.000000 0.000000 0.000000 0.000000 0.000000
10 10.000000 0.000000 0.000000 0.000000 0.000000 0.000000
11 0.000000 4.000000 -2.000000 0.000000 -0.433007 0.000000
12 0.000000 0.000000 -17.000000 0.000000 0.692812 0.000000
13 0.000000 0.000000 -17.000000 0.000000 0.000000 0.000000
14 0.000000 -4.000000 -2.000000 0.000000 0.433009 0.000000
15 0.000000 0.000000 -17.000000 0.000000 0.000000 0.000000
16 0.000000 0.000000 -17.000000 0.000000 0.000000 0.000000
time 21
0 0.000000 0.000000 38.757836 0.000000 0.000000 1.570795
1 0.000000 0.000000 4.000000 0.000000 0.000000 0.000000
2 0.000000 0.000000 10.000000 0.000000 0.000000 0.000000
3 0.000000 0.000000 10.000000 0.000000 0.000000 0.000000
4 0.000000 0.000000 4.000000 0.000000 0.000000 0.000000
5 0.000000 6.000000 8.000000 0.000000 0.380412 1.570796
6 11.000000 0.000000 0.000000 0.000000 0.000000 0.000000
7 10.000000 0.000000 0.000000 0.000000 0.000000 0.000000
8 0.000000 -6.000000 8.000000 0.000000 0.380412 -1.570796
9 11.000000 0.000000 0.000000 0.000000 0.000000 0.000000
10 10.000000 0.000000 0.000000 0.000000 0.000000 0.000000
11 0.000000 4.000000 -2.000000 0.000000 -0.475514 0.000000
12 0.000000 0.000000 -17.000000 0.000000 0.760823 0.000000
13 0.000000 0.000000 -17.000000 0.000000 0.000000 0.000000
14 0.000000 -4.000000 -2.000000 0.000000 0.475515 0.000000
15 0.000000 0.000000 -17.000000 0.000000 0.000000 0.000000
16 0.000000 0.000000 -17.000000 0.000000 0.000000 0.000000
time 22
0 0.000000 0.000000 38.792993 0.000000 0.000000 1.570795
1 0.000000 0.000000 4.000000 0.000000 0.000000 0.000000
2 0.000000 0.000000 10.000000 0.000000 0.000000 0.000000
3 0.000000 0.000000 10.000000 0.000000 0.000000 0.000000
4 0.000000 0.000000 4.000000 0.000000 0.000000 0.000000
5 0.000000 6.000000 8.000000 0.000000 0.397797 1.570796
6 11.000000 0.000000 0.000000 0.000000 0.000000 0.000000
7 10.000000 0.000000 0.000000 0.000000 0.000000 0.000000
8 0.000000 -6.000000 8.000000 0.000000 0.397797 -1.570796
9 11.000000 0.000000 0.000000 0.000000 0.000000 0.000000
10 10.000000 0.000000 0.000000 0.000000 0.000000 0.000000
11 0.000000 4.000000 -2.000000 0.000000 -0.497261 0.000000
12 0.000000 0.000000 -17.000000 0.000000 0.795618 0.000000
13 0.000000 0.000000 -17.000000 0.000000 0.000000 0.000000
14 0.000000 -4.000000 -2.000000 0.000000 0.497246 0.000000
15 0.000000 0.000000 -17.000000 0.000000 0.000000 0.000000
16 0.000000 0.000000 -17.000000 0.000000 0.000000 0.000000
time 23
0 0.000000 0.000000 38.792993 0.000000 0.000000 1.570795
1 0.000000 0.000000 4.000000 0.000000 0.000000 0.000000
2 0.000000 0.000000 10.000000 0.000000 0.000000 0.000000
3 0.000000 0.000000 10.000000 0.000000 0.000000 0.000000
4 0.000000 0.000000 4.000000 0.000000 0.000000 0.000000
5 0.000000 6.000000 8.000000 0.000000 0.397797 1.570796
6 11.000000 0.000000 0.000000 0.000000 0.000000 0.000000
7 10.000000 0.000000 0.000000 0.000000 0.000000 0.000000
8 0.000000 -6.000000 8.000000 0.000000 0.397797 -1.570796
9 11.000000 0.000000 0.000000 0.000000 0.000000 0.000000
10 10.000000 0.000000 0.000000 0.000000 0.000000 0.000000
11 0.000000 4.000000 -2.000000 0.000000 -0.497261 0.000000
12 0.000000 0.000000 -17.000000 0.000000 0.795618 0.000000
13 0.000000 0.000000 -17.000000 0.000000 0.000000 0.000000
14 0.000000 -4.000000 -2.000000 0.000000 0.497246 0.000000
15 0.000000 0.000000 -17.000000 0.000000 0.000000 0.000000
16 0.000000 0.000000 -17.000000 0.000000 0.000000 0.000000
time 24
0 0.000000 0.000000 38.757836 0.000000 0.000000 1.570795
1 0.000000 0.000000 4.000000 0.000000 0.000000 0.000000
2 0.000000 0.000000 10.000000 0.000000 0.000000 0.000000
3 0.000000 0.000000 10.000000 0.000000 0.000000 0.000000
4 0.000000 0.000000 4.000000 0.000000 0.000000 0.000000
5 0.000000 6.000000 8.000000 0.000000 0.380412 1.570796
6 11.000000 0.000000 0.000000 0.000000 0.000000 0.000000
7 10.000000 0.000000 0.000000 0.000000 0.000000 0.000000
8 0.000000 -6.000000 8.000000 0.000000 0.380412 -1.570796
9 11.000000 0.000000 0.000000 0.000000 0.000000 0.000000
10 10.000000 0.000000 0.000000 0.000000 0.000000 0.000000
11 0.000000 4.000000 -2.000000 0.000000 -0.475514 0.000000
12 0.000000 0.000000 -17.000000 0.000000 0.760823 0.000000
13 0.000000 0.000000 -17.000000 0.000000 0.000000 0.000000
14 0.000000 -4.000000 -2.000000 0.000000 0.475515 0.000000
15 0.000000 0.000000 -17.000000 0.000000 0.000000 0.000000
16 0.000000 0.000000 -17.000000 0.000000 0.000000 0.000000
time 25
0 0.000000 0.000000 38.691427 0.000000 0.000000 1.570795
1 0.000000 0.000000 4.000000 0.000000 0.000000 0.000000
2 0.000000 0.000000 10.000000 0.000000 0.000000 0.000000
3 0.000000 0.000000 10.000000 0.000000 0.000000 0.000000
4 0.000000 0.000000 4.000000 0.000000 0.000000 0.000000
5 0.000000 6.000000 8.000000 0.000000 0.346408 1.570796
6 11.000000 0.000000 0.000000 0.000000 0.000000 0.000000
7 10.000000 0.000000 0.000000 0.000000 0.000000 0.000000
8 0.000000 -6.000000 8.000000 0.000000 0.346408 -1.570796
9 11.000000 0.000000 0.000000 0.000000 0.000000 0.000000
10 10.000000 0.000000 0.000000 0.000000 0.000000 0.000000
11 0.000000 4.000000 -2.000000 0.000000 -0.433007 0.000000
12 0.000000 0.000000 -17.000000 0.000000 0.692812 0.000000
13 0.000000 0.000000 -17.000000 0.000000 0.000000 0.000000
14 0.000000 -4.000000 -2.000000 0.000000 0.433009 0.000000
15 0.000000 0.000000 -17.000000 0.000000 0.000000 0.000000
16 0.000000 0.000000 -17.000000 0.000000 0.000000 0.000000
time 26
0 0.000000 0.000000 38.593768 0.000000 0.000000 1.570795
1 0.000000 0.000000 4.000000 0.000000 0.000000 0.000000
2 0.000000 0.000000 10.000000 0.000000 0.000000 0.000000
3 0.000000 0.000000 10.000000 0.000000 0.000000 0.000000
4 0.000000 0.000000 4.000000 0.000000 0.000000 0.000000
5 0.000000 6.000000 8.000000 0.000000 0.297252 1.570796
6 11.000000 0.000000 0.000000 0.000000 0.000000 0.000000
7 10.000000 0.000000 0.000000 0.000000 0.000000 0.000000
8 0.000000 -6.000000 8.000000 0.000000 0.297252 -1.570796
9 11.000000 0.000000 0.000000 0.000000 0.000000 0.000000
10 10.000000 0.000000 0.000000 0.000000 0.000000 0.000000
11 0.000000 4.000000 -2.000000 0.000000 -0.371561 0.000000
12 0.000000 0.000000 -17.000000 0.000000 0.594498 0.000000
13 0.000000 0.000000 -17.000000 0.000000 0.000000 0.000000
14 0.000000 -4.000000 -2.000000 0.000000 0.371565 0.000000
15 0.000000 0.000000 -17.000000 0.000000 0.000000 0.000000
16 0.000000 0.000000 -17.000000 0.000000 0.000000 0.000000
time 27
0 0.000000 0.000000 38.468764 0.000000 0.000000 1.570795
1 0.000000 0.000000 4.000000 0.000000 0.000000 0.000000
2 0.000000 0.000000 10.000000 0.000000 0.000000 0.000000
3 0.000000 0.000000 10.000000 0.000000 0.000000 0.000000
4 0.000000 0.000000 4.000000 0.000000 0.000000 0.000000
5 0.000000 6.000000 8.000000 0.000000 0.235106 1.570796
6 11.000000 0.000000 0.000000 0.000000 0.000000 0.000000
7 10.000000 0.000000 0.000000 0.000000 0.000000 0.000000
8 0.000000 -6.000000 8.000000 0.000000 0.235106 -1.570796
9 11.000000 0.000000 0.000000 0.000000 0.000000 0.000000
10 10.000000 0.000000 0.000000 0.000000 0.000000 0.000000
11 0.000000 4.000000 -2.000000 0.000000 -0.293892 0.000000
12 0.000000 0.000000 -17.000000 0.000000 0.470227 0.000000
13 0.000000 0.000000 -17.000000 0.000000 0.000000 0.000000
14 0.000000 -4.000000 -2.000000 0.000000 0.293883 0.000000
15 0.000000 0.000000 -17.000000 0.000000 0.000000 0.000000
16 0.000000 0.000000 -17.000000 0.000000 0.000000 0.000000
time 28
0 0.000000 0.000000 38.324229 0.000000 0.000000 1.570795
1 0.000000 0.000000 4.000000 0.000000 0.000000 0.000000
2 0.000000 0.000000 10.000000 0.000000 0.000000 0.000000
3 0.000000 0.000000 10.000000 0.000000 0.000000 0.000000
4 0.000000 0.000000 4.000000 0.000000 0.000000 0.000000
5 0.000000 6.000000 8.000000 0.000000 0.162690 1.570796
6 11.000000 0.000000 0.000000 0.000000 0.000000 0.000000
7 10.000000 0.000000 0.000000 0.000000 0.000000 0.000000
8 0.000000 -6.000000 8.000000 0.000000 0.162690 -1.570796
9 11.000000 0.000000 0.000000 0.000000 0.000000 0.000000
10 10.000000 0.000000 0.000000 0.000000 0.000000 0.000000
11 0.000000 4.000000 -2.000000 0.000000 -0.203354 0.000000
12 0.000000 0.000000 -17.000000 0.000000 0.325366 0.000000
13 0.000000 0.000000 -17.000000 0.000000 0.000000 0.000000
14 0.000000 -4.000000 -2.000000 0.000000 0.203363 0.000000
15 0.000000 0.000000 -17.000000 0.000000 0.000000 0.000000
16 0.000000 0.000000 -17.000000 0.000000 0.000000 0.000000
time 29
0 0.000000 0.000000 38.164068 0.000000 0.000000 1.570795
1 0.000000 0.000000 4.000000 0.000000 0.000000 0.000000
2 0.000000 0.000000 10.000000 0.000000 0.000000 0.000000
3 0.000000 0.000000 10.000000 0.000000 0.000000 0.000000
4 0.000000 0.000000 4.000000 0.000000 0.000000 0.000000
5 0.000000 6.000000 8.000000 0.000000 0.000000 1.570796
6 11.000000 0.000000 0.000000 0.000000 0.000000 0.000000
7 10.000000 0.000000 0.000000 0.000000 0.000000 0.000000
8 0.000000 -6.000000 8.000000 0.000000 0.000000 -1.570796
9 11.000000 0.000000 0.000000 0.000000 0.000000 0.000000
10 10.000000 0.000000 0.000000 0.000000 0.000000 0.000000
11 0.000000 4.000000 -2.000000 0.000000 0.000000 0.000000
12 0.000000 0.000000 -17.000000 0.000000 0.000000 0.000000
13 0.000000 0.000000 -17.000000 0.000000 0.000000 0.000000
14 0.000000 -4.000000 -2.000000 0.000000 0.000000 0.000000
15 0.000000 0.000000 -17.000000 0.000000 0.000000 0.000000
16 0.000000 0.000000 -17.000000 0.000000 0.000000 0.000000
end
