version 1
nodes
0 "body" -1
1 "wheel_fl" 0
2 "wheel_fr" 0
3 "wheel_rl" 0
4 "wheel_rr" 0
end
skeleton
time 0
0 0.000000 0.000000 0.000000 0.000000 0.000000 1.570795
1 38.000000 30.000000 14.000000 0.000000 0.000000 0.000000
2 38.000000 -30.000000 14.000000 0.000000 0.000000 0.000000
3 -36.000000 30.000000 14.000000 0.000000 0.000000 0.000000
4 -36.000000 -30.000000 14.000000 0.000000 0.000000 0.000000
end
triangles
sb_buggy_paint
0 25.999925 -50.000039 12.000000 0.000000 0.000000 -1.000000 0.000000 0.000000 1 0 1.000000
0 -26.000075 -49.999961 12.000000 0.000000 0.000000 -1.000000 1.000000 0.000000 1 0 1.000000
0 -25.999925 50.000039 12.000000 0.000000 0.000000 -1.000000 1.000000 1.000000 1 0 1.000000
sb_buggy_paint
0 25.999925 -50.000039 12.000000 0.000000 0.000000 -1.000000 0.000000 0.000000 1 0 1.000000
0 -25.999925 50.000039 12.000000 0.000000 0.000000 -1.000000 1.000000 1.000000 1 0 1.000000
0 26.000075 49.999961 12.000000 0.000000 0.000000 -1.000000 0.000000 1.000000 1 0 1.000000
sb_buggy_paint
0 25.999925 -50.000039 30.000000 0.000000 0.000000 1.000000 0.000000 0.000000 1 0 1.000000
0 26.000075 49.999961 30.000000 0.000000 0.000000 1.000000 1.000000 0.000000 1 0 1.000000
0 -25.999925 50.000039 30.000000 0.000000 0.000000 1.000000 1.000000 1.000000 1 0 1.000000
sb_buggy_paint
0 25.999925 -50.000039 30.000000 0.000000 0.000000 1.000000 0.000000 0.000000 1 0 1.000000
0 -25.999925 50.000039 30.000000 0.000000 0.000000 1.000000 1.000000 1.000000 1 0 1.000000
0 -26.000075 -49.999961 30.000000 0.000000 0.000000 1.000000 0.000000 1.000000 1 0 1.000000
sb_buggy_paint
0 25.999925 -50.000039 12.000000 1.000000 -0.000001 0.000000 0.000000 0.000000 1 0 1.000000
0 26.000075 49.999961 12.000000 1.000000 -0.000001 0.000000 1.000000 0.000000 1 0 1.000000
0 26.000075 49.999961 30.000000 1.000000 -0.000001 0.000000 1.000000 1.000000 1 0 1.000000
sb_buggy_paint
0 25.999925 -50.000039 12.000000 1.000000 -0.000001 0.000000 0.000000 0.000000 1 0 1.000000
0 26.000075 49.999961 30.000000 1.000000 -0.000001 0.000000 1.000000 1.000000 1 0 1.000000
0 25.999925 -50.000039 30.000000 1.000000 -0.000001 0.000000 0.000000 1.000000 1 0 1.000000
sb_buggy_paint
0 26.000075 49.999961 12.000000 0.000001 1.000000 0.000000 0.000000 0.000000 1 0 1.000000
0 -25.999925 50.000039 12.000000 0.000001 1.000000 0.000000 1.000000 0.000000 1 0 1.000000
0 -25.999925 50.000039 30.000000 0.000001 1.000000 0.000000 1.000000 1.000000 1 0 1.000000
sb_buggy_paint
0 26.000075 49.999961 12.000000 0.000001 1.000000 0.000000 0.000000 0.000000 1 0 1.000000
0 -25.999925 50.000039 30.000000 0.000001 1.000000 0.000000 1.000000 1.000000 1 0 1.000000
0 26.000075 49.999961 30.000000 0.000001 1.000000 0.000000 0.000000 1.000000 1 0 1.000000
sb_buggy_paint
0 -25.999925 50.000039 12.000000 -1.000000 0.000001 0.000000 0.000000 0.000000 1 0 1.000000
0 -26.000075 -49.999961 12.000000 -1.000000 0.000001 0.000000 1.000000 0.000000 1 0 1.000000
0 -26.000075 -49.999961 30.000000 -1.000000 0.000001 0.000000 1.000000 1.000000 1 0 1.000000
sb_buggy_paint
0 -25.999925 50.000039 12.000000 -1.000000 0.000001 0.000000 0.000000 0.000000 1 0 1.000000
0 -26.000075 -49.999961 30.000000 -1.000000 0.000001 0.000000 1.000000 1.000000 1 0 1.000000
0 -25.999925 50.000039 30.000000 -1.000000 0.000001 0.000000 0.000000 1.000000 1 0 1.000000
sb_buggy_paint
0 -26.000075 -49.999961 12.000000 -0.000001 -1.000000 0.000000 0.000000 0.000000 1 0 1.000000
0 25.999925 -50.000039 12.000000 -0.000001 -1.000000 0.000000 1.000000 0.000000 1 0 1.000000
0 25.999925 -50.000039 30.000000 -0.000001 -1.000000 0.000000 1.000000 1.000000 1 0 1.000000
sb_buggy_paint
0 -26.000075 -49.999961 12.000000 -0.000001 -1.000000 0.000000 0.000000 0.000000 1 0 1.000000
0 25.999925 -50.000039 30.000000 -0.000001 -1.000000 0.000000 1.000000 1.000000 1 0 1.000000
0 -26.000075 -49.999961 30.000000 -0.000001 -1.000000 0.000000 0.000000 1.000000 1 0 1.000000
sb_buggy_paint
0 21.999967 -22.000033 30.000000 0.000000 0.000000 -1.000000 0.000000 0.000000 1 0 1.000000
0 -22.000033 -21.999967 30.000000 0.000000 0.000000 -1.000000 1.000000 0.000000 1 0 1.000000
0 -21.999973 18.000033 30.000000 0.000000 0.000000 -1.000000 1.000000 1.000000 1 0 1.000000
sb_buggy_paint
0 21.999967 -22.000033 30.000000 0.000000 0.000000 -1.000000 0.000000 0.000000 1 0 1.000000
0 -21.999973 18.000033 30.000000 0.000000 0.000000 -1.000000 1.000000 1.000000 1 0 1.000000
0 22.000027 17.999967 30.000000 0.000000 0.000000 -1.000000 0.000000 1.000000 1 0 1.000000
sb_buggy_paint
0 21.999967 -22.000033 46.000000 0.000000 0.000000 1.000000 0.000000 0.000000 1 0 1.000000
0 22.000027 17.999967 46.000000 0.000000 0.000000 1.000000 1.000000 0.000000 1 0 1.000000
0 -21.999973 18.000033 46.000000 0.000000 0.000000 1.000000 1.000000 1.000000 1 0 1.000000
sb_buggy_paint
0 21.999967 -22.000033 46.000000 0.000000 0.000000 1.000000 0.000000 0.000000 1 0 1.000000
0 -21.999973 18.000033 46.000000 0.000000 0.000000 1.000000 1.000000 1.000000 1 0 1.000000
0 -22.000033 -21.999967 46.000000 0.000000 0.000000 1.000000 0.000000 1.000000 1 0 1.000000
sb_buggy_paint
0 21.999967 -22.000033 30.000000 1.000000 -0.000001 0.000000 0.000000 0.000000 1 0 1.000000
0 22.000027 17.999967 30.000000 1.000000 -0.000001 0.000000 1.000000 0.000000 1 0 1.000000
0 22.000027 17.999967 46.000000 1.000000 -0.000001 0.000000 1.000000 1.000000 1 0 1.000000
sb_buggy_paint
0 21.999967 -22.000033 30.000000 1.000000 -0.000001 0.000000 0.000000 0.000000 1 0 1.000000
0 22.000027 17.999967 46.000000 1.000000 -0.000001 0.000000 1.000000 1.000000 1 0 1.000000
0 21.999967 -22.000033 46.000000 1.000000 -0.000001 0.000000 0.000000 1.000000 1 0 1.000000
sb_buggy_paint
0 22.000027 17.999967 30.000000 0.000001 1.000000 0.000000 0.000000 0.000000 1 0 1.000000
0 -21.999973 18.000033 30.000000 0.000001 1.000000 0.000000 1.000000 0.000000 1 0 1.000000
0 -21.999973 18.000033 46.000000 0.000001 1.000000 0.000000 1.000000 1.000000 1 0 1.000000
sb_buggy_paint
0 22.000027 17.999967 30.000000 0.000001 1.000000 0.000000 0.000000 0.000000 1 0 1.000000
0 -21.999973 18.000033 46.000000 0.000001 1.000000 0.000000 1.000000 1.000000 1 0 1.000000
0 22.000027 17.999967 46.000000 0.000001 1.000000 0.000000 0.000000 1.000000 1 0 1.000000
sb_buggy_paint
0 -21.999973 18.000033 30.000000 -1.000000 0.000001 0.000000 0.000000 0.000000 1 0 1.000000
0 -22.000033 -21.999967 30.000000 -1.000000 0.000001 0.000000 1.000000 0.000000 1 0 1.000000
0 -22.000033 -21.999967 46.000000 -1.000000 0.000001 0.000000 1.000000 1.000000 1 0 1.000000
sb_buggy_paint
0 -21.999973 18.000033 30.000000 -1.000000 0.000001 0.000000 0.000000 0.000000 1 0 1.000000
0 -22.000033 -21.999967 46.000000 -1.000000 0.000001 0.000000 1.000000 1.000000 1 0 1.000000
0 -21.999973 18.000033 46.000000 -1.000000 0.000001 0.000000 0.000000 1.000000 1 0 1.000000
sb_buggy_paint
0 -22.000033 -21.999967 30.000000 -0.000001 -1.000000 0.000000 0.000000 0.000000 1 0 1.000000
0 21.999967 -22.000033 30.000000 -0.000001 -1.000000 0.000000 1.000000 0.000000 1 0 1.000000
0 21.999967 -22.000033 46.000000 -0.000001 -1.000000 0.000000 1.000000 1.000000 1 0 1.000000
sb_buggy_paint
0 -22.000033 -21.999967 30.000000 -0.000001 -1.000000 0.000000 0.000000 0.000000 1 0 1.000000
0 21.999967 -22.000033 46.000000 -0.000001 -1.000000 0.000000 1.000000 1.000000 1 0 1.000000
0 -22.000033 -21.999967 46.000000 -0.000001 -1.000000 0.000000 0.000000 1.000000 1 0 1.000000
sb_buggy_tire
1 -25.999922 52.000039 14.000000 0.000001 0.965926 0.258819 0.000000 0.000000 1 1 1.000000
1 -33.999922 52.000051 14.000000 0.000001 0.965926 0.258819 0.000000 1.000000 1 1 1.000000
1 -33.999925 50.124406 21.000000 0.000001 0.965926 0.258819 0.083333 1.000000 1 1 1.000000
sb_buggy_tire
1 -25.999922 52.000039 14.000000 0.000001 0.965926 0.258819 0.000000 0.000000 1 1 1.000000
1 -33.999925 50.124406 21.000000 0.000001 0.965926 0.258819 0.083333 1.000000 1 1 1.000000
1 -25.999925 50.124394 21.000000 0.000001 0.965926 0.258819 0.083333 0.000000 1 1 1.000000
sb_buggy_tire
1 -25.999943 38.000039 14.000000 1.000000 -0.000001 0.000000 0.500000 0.500000 1 1 1.000000
1 -25.999922 52.000039 14.000000 1.000000 -0.000001 0.000000 0.500000 0.500000 1 1 1.000000
1 -25.999925 50.124394 21.000000 1.000000 -0.000001 0.000000 0.500000 0.500000 1 1 1.000000
sb_buggy_tire
1 -33.999943 38.000051 14.000000 -1.000000 0.000001 0.000000 0.500000 0.500000 1 1 1.000000
1 -33.999925 50.124406 21.000000 -1.000000 0.000001 0.000000 0.500000 0.500000 1 1 1.000000
1 -33.999922 52.000051 14.000000 -1.000000 0.000001 0.000000 0.500000 0.500000 1 1 1.000000
sb_buggy_tire
1 -25.999925 50.124394 21.000000 0.000001 0.707107 0.707107 0.083333 0.000000 1 1 1.000000
1 -33.999925 50.124406 21.000000 0.000001 0.707107 0.707107 0.083333 1.000000 1 1 1.000000
1 -33.999933 45.000051 26.124355 0.000001 0.707107 0.707107 0.166667 1.000000 1 1 1.000000
sb_buggy_tire
1 -25.999925 50.124394 21.000000 0.000001 0.707107 0.707107 0.083333 0.000000 1 1 1.000000
1 -33.999933 45.000051 26.124355 0.000001 0.707107 0.707107 0.166667 1.000000 1 1 1.000000
1 -25.999933 45.000039 26.124355 0.000001 0.707107 0.707107 0.166667 0.000000 1 1 1.000000
sb_buggy_tire
1 -25.999943 38.000039 14.000000 1.000000 -0.000001 0.000000 0.500000 0.500000 1 1 1.000000
1 -25.999925 50.124394 21.000000 1.000000 -0.000001 0.000000 0.500000 0.500000 1 1 1.000000
1 -25.999933 45.000039 26.124355 1.000000 -0.000001 0.000000 0.500000 0.500000 1 1 1.000000
sb_buggy_tire
1 -33.999943 38.000051 14.000000 -1.000000 0.000001 0.000000 0.500000 0.500000 1 1 1.000000
1 -33.999933 45.000051 26.124355 -1.000000 0.000001 0.000000 0.500000 0.500000 1 1 1.000000
1 -33.999925 50.124406 21.000000 -1.000000 0.000001 0.000000 0.500000 0.500000 1 1 1.000000
sb_buggy_tire
1 -25.999933 45.000039 26.124355 0.000000 0.258819 0.965926 0.166667 0.000000 1 1 1.000000
1 -33.999933 45.000051 26.124355 0.000000 0.258819 0.965926 0.166667 1.000000 1 1 1.000000
1 -33.999943 38.000051 28.000000 0.000000 0.258819 0.965926 0.250000 1.000000 1 1 1.000000
sb_buggy_tire
1 -25.999933 45.000039 26.124355 0.000000 0.258819 0.965926 0.166667 0.000000 1 1 1.000000
1 -33.999943 38.000051 28.000000 0.000000 0.258819 0.965926 0.250000 1.000000 1 1 1.000000
1 -25.999943 38.000039 28.000000 0.000000 0.258819 0.965926 0.250000 0.000000 1 1 1.000000
sb_buggy_tire
1 -25.999943 38.000039 14.000000 1.000000 -0.000001 0.000000 0.500000 0.500000 1 1 1.000000
1 -25.999933 45.000039 26.124355 1.000000 -0.000001 0.000000 0.500000 0.500000 1 1 1.000000
1 -25.999943 38.000039 28.000000 1.000000 -0.000001 0.000000 0.500000 0.500000 1 1 1.000000
sb_buggy_tire
1 -33.999943 38.000051 14.000000 -1.000000 0.000001 0.000000 0.500000 0.500000 1 1 1.000000
1 -33.999943 38.000051 28.000000 -1.000000 0.000001 0.000000 0.500000 0.500000 1 1 1.000000
1 -33.999933 45.000051 26.124355 -1.000000 0.000001 0.000000 0.500000 0.500000 1 1 1.000000
sb_buggy_tire
1 -25.999943 38.000039 28.000000 0.000000 -0.258819 0.965926 0.250000 0.000000 1 1 1.000000
1 -33.999943 38.000051 28.000000 0.000000 -0.258819 0.965926 0.250000 1.000000 1 1 1.000000
1 -33.999954 31.000051 26.124355 0.000000 -0.258819 0.965926 0.333333 1.000000 1 1 1.000000
sb_buggy_tire
1 -25.999943 38.000039 28.000000 0.000000 -0.258819 0.965926 0.250000 0.000000 1 1 1.000000
1 -33.999954 31.000051 26.124355 0.000000 -0.258819 0.965926 0.333333 1.000000 1 1 1.000000
1 -25.999954 31.000039 26.124355 0.000000 -0.258819 0.965926 0.333333 0.000000 1 1 1.000000
sb_buggy_tire
1 -25.999943 38.000039 14.000000 1.000000 -0.000001 0.000000 0.500000 0.500000 1 1 1.000000
1 -25.999943 38.000039 28.000000 1.000000 -0.000001 0.000000 0.500000 0.500000 1 1 1.000000
1 -25.999954 31.000039 26.124355 1.000000 -0.000001 0.000000 0.500000 0.500000 1 1 1.000000
sb_buggy_tire
1 -33.999943 38.000051 14.000000 -1.000000 0.000001 0.000000 0.500000 0.500000 1 1 1.000000
1 -33.999954 31.000051 26.124355 -1.000000 0.000001 0.000000 0.500000 0.500000 1 1 1.000000
1 -33.999943 38.000051 28.000000 -1.000000 0.000001 0.000000 0.500000 0.500000 1 1 1.000000
sb_buggy_tire
1 -25.999954 31.000039 26.124355 -0.000001 -0.707107 0.707107 0.333333 0.000000 1 1 1.000000
1 -33.999954 31.000051 26.124355 -0.000001 -0.707107 0.707107 0.333333 1.000000 1 1 1.000000
1 -33.999961 25.875695 21.000000 -0.000001 -0.707107 0.707107 0.416667 1.000000 1 1 1.000000
sb_buggy_tire
1 -25.999954 31.000039 26.124355 -0.000001 -0.707107 0.707107 0.333333 0.000000 1 1 1.000000
1 -33.999961 25.875695 21.000000 -0.000001 -0.707107 0.707107 0.416667 1.000000 1 1 1.000000
1 -25.999961 25.875684 21.000000 -0.000001 -0.707107 0.707107 0.416667 0.000000 1 1 1.000000
sb_buggy_tire
1 -25.999943 38.000039 14.000000 1.000000 -0.000001 0.000000 0.500000 0.500000 1 1 1.000000
1 -25.999954 31.000039 26.124355 1.000000 -0.000001 0.000000 0.500000 0.500000 1 1 1.000000
1 -25.999961 25.875684 21.000000 1.000000 -0.000001 0.000000 0.500000 0.500000 1 1 1.000000
sb_buggy_tire
1 -33.999943 38.000051 14.000000 -1.000000 0.000001 0.000000 0.500000 0.500000 1 1 1.000000
1 -33.999961 25.875695 21.000000 -1.000000 0.000001 0.000000 0.500000 0.500000 1 1 1.000000
1 -33.999954 31.000051 26.124355 -1.000000 0.000001 0.000000 0.500000 0.500000 1 1 1.000000
sb_buggy_tire
1 -25.999961 25.875684 21.000000 -0.000001 -0.965926 0.258819 0.416667 0.000000 1 1 1.000000
1 -33.999961 25.875695 21.000000 -0.000001 -0.965926 0.258819 0.416667 1.000000 1 1 1.000000
1 -33.999964 24.000051 14.000000 -0.000001 -0.965926 0.258819 0.500000 1.000000 1 1 1.000000
sb_buggy_tire
1 -25.999961 25.875684 21.000000 -0.000001 -0.965926 0.258819 0.416667 0.000000 1 1 1.000000
1 -33.999964 24.000051 14.000000 -0.000001 -0.965926 0.258819 0.500000 1.000000 1 1 1.000000
1 -25.999964 24.000039 14.000000 -0.000001 -0.965926 0.258819 0.500000 0.000000 1 1 1.000000
sb_buggy_tire
1 -25.999943 38.000039 14.000000 1.000000 -0.000001 0.000000 0.500000 0.500000 1 1 1.000000
1 -25.999961 25.875684 21.000000 1.000000 -0.000001 0.000000 0.500000 0.500000 1 1 1.000000
1 -25.999964 24.000039 14.000000 1.000000 -0.000001 0.000000 0.500000 0.500000 1 1 1.000000
sb_buggy_tire
1 -33.999943 38.000051 14.000000 -1.000000 0.000001 0.000000 0.500000 0.500000 1 1 1.000000
1 -33.999964 24.000051 14.000000 -1.000000 0.000001 0.000000 0.500000 0.500000 1 1 1.000000
1 -33.999961 25.875695 21.000000 -1.000000 0.000001 0.000000 0.500000 0.500000 1 1 1.000000
sb_buggy_tire
1 -25.999964 24.000039 14.000000 -0.000001 -0.965926 -0.258819 0.500000 0.000000 1 1 1.000000
1 -33.999964 24.000051 14.000000 -0.000001 -0.965926 -0.258819 0.500000 1.000000 1 1 1.000000
1 -33.999961 25.875695 7.000000 -0.000001 -0.965926 -0.258819 0.583333 1.000000 1 1 1.000000
sb_buggy_tire
1 -25.999964 24.000039 14.000000 -0.000001 -0.965926 -0.258819 0.500000 0.000000 1 1 1.000000
1 -33.999961 25.875695 7.000000 -0.000001 -0.965926 -0.258819 0.583333 1.000000 1 1 1.000000
1 -25.999961 25.875684 7.000000 -0.000001 -0.965926 -0.258819 0.583333 0.000000 1 1 1.000000
sb_buggy_tire
1 -25.999943 38.000039 14.000000 1.000000 -0.000001 0.000000 0.500000 0.500000 1 1 1.000000
1 -25.999964 24.000039 14.000000 1.000000 -0.000001 0.000000 0.500000 0.500000 1 1 1.000000
1 -25.999961 25.875684 7.000000 1.000000 -0.000001 0.000000 0.500000 0.500000 1 1 1.000000
sb_buggy_tire
1 -33.999943 38.000051 14.000000 -1.000000 0.000001 0.000000 0.500000 0.500000 1 1 1.000000
1 -33.999961 25.875695 7.000000 -1.000000 0.000001 0.000000 0.500000 0.500000 1 1 1.000000
1 -33.999964 24.000051 14.000000 -1.000000 0.000001 0.000000 0.500000 0.500000 1 1 1.000000
sb_buggy_tire
1 -25.999961 25.875684 7.000000 -0.000001 -0.707107 -0.707107 0.583333 0.000000 1 1 1.000000
1 -33.999961 25.875695 7.000000 -0.000001 -0.707107 -0.707107 0.583333 1.000000 1 1 1.000000
1 -33.999954 31.000051 1.875644 -0.000001 -0.707107 -0.707107 0.666667 1.000000 1 1 1.000000
sb_buggy_tire
1 -25.999961 25.875684 7.000000 -0.000001 -0.707107 -0.707107 0.583333 0.000000 1 1 1.000000
1 -33.999954 31.000051 1.875644 -0.000001 -0.707107 -0.707107 0.666667 1.000000 1 1 1.000000
1 -25.999954 31.000039 1.875644 -0.000001 -0.707107 -0.707107 0.666667 0.000000 1 1 1.000000
sb_buggy_tire
1 -25.999943 38.000039 14.000000 1.000000 -0.000001 0.000000 0.500000 0.500000 1 1 1.000000
1 -25.999961 25.875684 7.000000 1.000000 -0.000001 0.000000 0.500000 0.500000 1 1 1.000000
1 -25.999954 31.000039 1.875644 1.000000 -0.000001 0.000000 0.500000 0.500000 1 1 1.000000
sb_buggy_tire
1 -33.999943 38.000051 14.000000 -1.000000 0.000001 0.000000 0.500000 0.500000 1 1 1.000000
1 -33.999954 31.000051 1.875644 -1.000000 0.000001 0.000000 0.500000 0.500000 1 1 1.000000
1 -33.999961 25.875695 7.000000 -1.000000 0.000001 0.000000 0.500000 0.500000 1 1 1.000000
sb_buggy_tire
1 -25.999954 31.000039 1.875644 0.000000 -0.258819 -0.965926 0.666667 0.000000 1 1 1.000000
1 -33.999954 31.000051 1.875644 0.000000 -0.258819 -0.965926 0.666667 1.000000 1 1 1.000000
1 -33.999943 38.000051 0.000000 0.000000 -0.258819 -0.965926 0.750000 1.000000 1 1 1.000000
sb_buggy_tire
1 -25.999954 31.000039 1.875644 0.000000 -0.258819 -0.965926 0.666667 0.000000 1 1 1.000000
1 -33.999943 38.000051 0.000000 0.000000 -0.258819 -0.965926 0.750000 1.000000 1 1 1.000000
1 -25.999943 38.000039 0.000000 0.000000 -0.258819 -0.965926 0.750000 0.000000 1 1 1.000000
sb_buggy_tire
1 -25.999943 38.000039 14.000000 1.000000 -0.000001 0.000000 0.500000 0.500000 1 1 1.000000
1 -25.999954 31.000039 1.875644 1.000000 -0.000001 0.000000 0.500000 0.500000 1 1 1.000000
1 -25.999943 38.000039 0.000000 1.000000 -0.000001 0.000000 0.500000 0.500000 1 1 1.000000
sb_buggy_tire
1 -33.999943 38.000051 14.000000 -1.000000 0.000001 0.000000 0.500000 0.500000 1 1 1.000000
1 -33.999943 38.000051 0.000000 -1.000000 0.000001 0.000000 0.500000 0.500000 1 1 1.000000
1 -33.999954 31.000051 1.875644 -1.000000 0.000001 0.000000 0.500000 0.500000 1 1 1.000000
sb_buggy_tire
1 -25.999943 38.000039 0.000000 0.000000 0.258819 -0.965926 0.750000 0.000000 1 1 1.000000
1 -33.999943 38.000051 0.000000 0.000000 0.258819 -0.965926 0.750000 1.000000 1 1 1.000000
1 -33.999933 45.000051 1.875644 0.000000 0.258819 -0.965926 0.833333 1.000000 1 1 1.000000
sb_buggy_tire
1 -25.999943 38.000039 0.000000 0.000000 0.258819 -0.965926 0.750000 0.000000 1 1 1.000000
1 -33.999933 45.000051 1.875644 0.000000 0.258819 -0.965926 0.833333 1.000000 1 1 1.000000
1 -25.999933 45.000039 1.875644 0.000000 0.258819 -0.965926 0.833333 0.000000 1 1 1.000000
sb_buggy_tire
1 -25.999943 38.000039 14.000000 1.000000 -0.000001 0.000000 0.500000 0.500000 1 1 1.000000
1 -25.999943 38.000039 0.000000 1.000000 -0.000001 0.000000 0.500000 0.500000 1 1 1.000000
1 -25.999933 45.000039 1.875644 1.000000 -0.000001 0.000000 0.500000 0.500000 1 1 1.000000
sb_buggy_tire
1 -33.999943 38.000051 14.000000 -1.000000 0.000001 0.000000 0.500000 0.500000 1 1 1.000000
1 -33.999933 45.000051 1.875644 -1.000000 0.000001 0.000000 0.500000 0.500000 1 1 1.000000
1 -33.999943 38.000051 0.000000 -1.000000 0.000001 0.000000 0.500000 0.500000 1 1 1.000000
sb_buggy_tire
1 -25.999933 45.000039 1.875644 0.000001 0.707107 -0.707107 0.833333 0.000000 1 1 1.000000
1 -33.999933 45.000051 1.875644 0.000001 0.707107 -0.707107 0.833333 1.000000 1 1 1.000000
1 -33.999925 50.124406 7.000000 0.000001 0.707107 -0.707107 0.916667 1.000000 1 1 1.000000
sb_buggy_tire
1 -25.999933 45.000039 1.875644 0.000001 0.707107 -0.707107 0.833333 0.000000 1 1 1.000000
1 -33.999925 50.124406 7.000000 0.000001 0.707107 -0.707107 0.916667 1.000000 1 1 1.000000
1 -25.999925 50.124394 7.000000 0.000001 0.707107 -0.707107 0.916667 0.000000 1 1 1.000000
sb_buggy_tire
1 -25.999943 38.000039 14.000000 1.000000 -0.000001 0.000000 0.500000 0.500000 1 1 1.000000
1 -25.999933 45.000039 1.875644 1.000000 -0.000001 0.000000 0.500000 0.500000 1 1 1.000000
1 -25.999925 50.124394 7.000000 1.000000 -0.000001 0.000000 0.500000 0.500000 1 1 1.000000
sb_buggy_tire
1 -33.999943 38.000051 14.000000 -1.000000 0.000001 0.000000 0.500000 0.500000 1 1 1.000000
1 -33.999925 50.124406 7.000000 -1.000000 0.000001 0.000000 0.500000 0.500000 1 1 1.000000
1 -33.999933 45.000051 1.875644 -1.000000 0.000001 0.000000 0.500000 0.500000 1 1 1.000000
sb_buggy_tire
1 -25.999925 50.124394 7.000000 0.000001 0.965926 -0.258819 0.916667 0.000000 1 1 1.000000
1 -33.999925 50.124406 7.000000 0.000001 0.965926 -0.258819 0.916667 1.000000 1 1 1.000000
1 -33.999922 52.000051 14.000000 0.000001 0.965926 -0.258819 1.000000 1.000000 1 1 1.000000
sb_buggy_tire
1 -25.999925 50.124394 7.000000 0.000001 0.965926 -0.258819 0.916667 0.000000 1 1 1.000000
1 -33.999922 52.000051 14.000000 0.000001 0.965926 -0.258819 1.000000 1.000000 1 1 1.000000
1 -25.999922 52.000039 14.000000 0.000001 0.965926 -0.258819 1.000000 0.000000 1 1 1.000000
sb_buggy_tire
1 -25.999943 38.000039 14.000000 1.000000 -0.000001 0.000000 0.500000 0.500000 1 1 1.000000
1 -25.999925 50.124394 7.000000 1.000000 -0.000001 0.000000 0.500000 0.500000 1 1 1.000000
1 -25.999922 52.000039 14.000000 1.000000 -0.000001 0.000000 0.500000 0.500000 1 1 1.000000
sb_buggy_tire
1 -33.999943 38.000051 14.000000 -1.000000 0.000001 0.000000 0.500000 0.500000 1 1 1.000000
1 -33.999922 52.000051 14.000000 -1.000000 0.000001 0.000000 0.500000 0.500000 1 1 1.000000
1 -33.999925 50.124406 7.000000 -1.000000 0.000001 0.000000 0.500000 0.500000 1 1 1.000000
sb_buggy_tire
2 34.000078 51.999949 14.000000 0.000001 0.965926 0.258819 0.000000 0.000000 1 2 1.000000
2 26.000078 51.999961 14.000000 0.000001 0.965926 0.258819 0.000000 1.000000 1 2 1.000000
2 26.000075 50.124316 21.000000 0.000001 0.965926 0.258819 0.083333 1.000000 1 2 1.000000
sb_buggy_tire
2 34.000078 51.999949 14.000000 0.000001 0.965926 0.258819 0.000000 0.000000 1 2 1.000000
2 26.000075 50.124316 21.000000 0.000001 0.965926 0.258819 0.083333 1.000000 1 2 1.000000
2 34.000075 50.124305 21.000000 0.000001 0.965926 0.258819 0.083333 0.000000 1 2 1.000000
sb_buggy_tire
2 34.000057 37.999949 14.000000 1.000000 -0.000001 0.000000 0.500000 0.500000 1 2 1.000000
2 34.000078 51.999949 14.000000 1.000000 -0.000001 0.000000 0.500000 0.500000 1 2 1.000000
2 34.000075 50.124305 21.000000 1.000000 -0.000001 0.000000 0.500000 0.500000 1 2 1.000000
sb_buggy_tire
2 26.000057 37.999961 14.000000 -1.000000 0.000001 0.000000 0.500000 0.500000 1 2 1.000000
2 26.000075 50.124316 21.000000 -1.000000 0.000001 0.000000 0.500000 0.500000 1 2 1.000000
2 26.000078 51.999961 14.000000 -1.000000 0.000001 0.000000 0.500000 0.500000 1 2 1.000000
sb_buggy_tire
2 34.000075 50.124305 21.000000 0.000001 0.707107 0.707107 0.083333 0.000000 1 2 1.000000
2 26.000075 50.124316 21.000000 0.000001 0.707107 0.707107 0.083333 1.000000 1 2 1.000000
2 26.000067 44.999961 26.124355 0.000001 0.707107 0.707107 0.166667 1.000000 1 2 1.000000
sb_buggy_tire
2 34.000075 50.124305 21.000000 0.000001 0.707107 0.707107 0.083333 0.000000 1 2 1.000000
2 26.000067 44.999961 26.124355 0.000001 0.707107 0.707107 0.166667 1.000000 1 2 1.000000
2 34.000067 44.999949 26.124355 0.000001 0.707107 0.707107 0.166667 0.000000 1 2 1.000000
sb_buggy_tire
2 34.000057 37.999949 14.000000 1.000000 -0.000001 0.000000 0.500000 0.500000 1 2 1.000000
2 34.000075 50.124305 21.000000 1.000000 -0.000001 0.000000 0.500000 0.500000 1 2 1.000000
2 34.000067 44.999949 26.124355 1.000000 -0.000001 0.000000 0.500000 0.500000 1 2 1.000000
sb_buggy_tire
2 26.000057 37.999961 14.000000 -1.000000 0.000001 0.000000 0.500000 0.500000 1 2 1.000000
2 26.000067 44.999961 26.124355 -1.000000 0.000001 0.000000 0.500000 0.500000 1 2 1.000000
2 26.000075 50.124316 21.000000 -1.000000 0.000001 0.000000 0.500000 0.500000 1 2 1.000000
sb_buggy_tire
2 34.000067 44.999949 26.124355 0.000000 0.258819 0.965926 0.166667 0.000000 1 2 1.000000
2 26.000067 44.999961 26.124355 0.000000 0.258819 0.965926 0.166667 1.000000 1 2 1.000000
2 26.000057 37.999961 28.000000 0.000000 0.258819 0.965926 0.250000 1.000000 1 2 1.000000
sb_buggy_tire
2 34.000067 44.999949 26.124355 0.000000 0.258819 0.965926 0.166667 0.000000 1 2 1.000000
2 26.000057 37.999961 28.000000 0.000000 0.258819 0.965926 0.250000 1.000000 1 2 1.000000
2 34.000057 37.999949 28.000000 0.000000 0.258819 0.965926 0.250000 0.000000 1 2 1.000000
sb_buggy_tire
2 34.000057 37.999949 14.000000 1.000000 -0.000001 0.000000 0.500000 0.500000 1 2 1.000000
2 34.000067 44.999949 26.124355 1.000000 -0.000001 0.000000 0.500000 0.500000 1 2 1.000000
2 34.000057 37.999949 28.000000 1.000000 -0.000001 0.000000 0.500000 0.500000 1 2 1.000000
sb_buggy_tire
2 26.000057 37.999961 14.000000 -1.000000 0.000001 0.000000 0.500000 0.500000 1 2 1.000000
2 26.000057 37.999961 28.000000 -1.000000 0.000001 0.000000 0.500000 0.500000 1 2 1.000000
2 26.000067 44.999961 26.124355 -1.000000 0.000001 0.000000 0.500000 0.500000 1 2 1.000000
sb_buggy_tire
2 34.000057 37.999949 28.000000 0.000000 -0.258819 0.965926 0.250000 0.000000 1 2 1.000000
2 26.000057 37.999961 28.000000 0.000000 -0.258819 0.965926 0.250000 1.000000 1 2 1.000000
2 26.000046 30.999961 26.124355 0.000000 -0.258819 0.965926 0.333333 1.000000 1 2 1.000000
sb_buggy_tire
2 34.000057 37.999949 28.000000 0.000000 -0.258819 0.965926 0.250000 0.000000 1 2 1.000000
2 26.000046 30.999961 26.124355 0.000000 -0.258819 0.965926 0.333333 1.000000 1 2 1.000000
2 34.000046 30.999949 26.124355 0.000000 -0.258819 0.965926 0.333333 0.000000 1 2 1.000000
sb_buggy_tire
2 34.000057 37.999949 14.000000 1.000000 -0.000001 0.000000 0.500000 0.500000 1 2 1.000000
2 34.000057 37.999949 28.000000 1.000000 -0.000001 0.000000 0.500000 0.500000 1 2 1.000000
2 34.000046 30.999949 26.124355 1.000000 -0.000001 0.000000 0.500000 0.500000 1 2 1.000000
sb_buggy_tire
2 26.000057 37.999961 14.000000 -1.000000 0.000001 0.000000 0.500000 0.500000 1 2 1.000000
2 26.000046 30.999961 26.124355 -1.000000 0.000001 0.000000 0.500000 0.500000 1 2 1.000000
2 26.000057 37.999961 28.000000 -1.000000 0.000001 0.000000 0.500000 0.500000 1 2 1.000000
sb_buggy_tire
2 34.000046 30.999949 26.124355 -0.000001 -0.707107 0.707107 0.333333 0.000000 1 2 1.000000
2 26.000046 30.999961 26.124355 -0.000001 -0.707107 0.707107 0.333333 1.000000 1 2 1.000000
2 26.000039 25.875606 21.000000 -0.000001 -0.707107 0.707107 0.416667 1.000000 1 2 1.000000
sb_buggy_tire
2 34.000046 30.999949 26.124355 -0.000001 -0.707107 0.707107 0.333333 0.000000 1 2 1.000000
2 26.000039 25.875606 21.000000 -0.000001 -0.707107 0.707107 0.416667 1.000000 1 2 1.000000
2 34.000039 25.875594 21.000000 -0.000001 -0.707107 0.707107 0.416667 0.000000 1 2 1.000000
sb_buggy_tire
2 34.000057 37.999949 14.000000 1.000000 -0.000001 0.000000 0.500000 0.500000 1 2 1.000000
2 34.000046 30.999949 26.124355 1.000000 -0.000001 0.000000 0.500000 0.500000 1 2 1.000000
2 34.000039 25.875594 21.000000 1.000000 -0.000001 0.000000 0.500000 0.500000 1 2 1.000000
sb_buggy_tire
2 26.000057 37.999961 14.000000 -1.000000 0.000001 0.000000 0.500000 0.500000 1 2 1.000000
2 26.000039 25.875606 21.000000 -1.000000 0.000001 0.000000 0.500000 0.500000 1 2 1.000000
2 26.000046 30.999961 26.124355 -1.000000 0.000001 0.000000 0.500000 0.500000 1 2 1.000000
sb_buggy_tire
2 34.000039 25.875594 21.000000 -0.000001 -0.965926 0.258819 0.416667 0.000000 1 2 1.000000
2 26.000039 25.875606 21.000000 -0.000001 -0.965926 0.258819 0.416667 1.000000 1 2 1.000000
2 26.000036 23.999961 14.000000 -0.000001 -0.965926 0.258819 0.500000 1.000000 1 2 1.000000
sb_buggy_tire
2 34.000039 25.875594 21.000000 -0.000001 -0.965926 0.258819 0.416667 0.000000 1 2 1.000000
2 26.000036 23.999961 14.000000 -0.000001 -0.965926 0.258819 0.500000 1.000000 1 2 1.000000
2 34.000036 23.999949 14.000000 -0.000001 -0.965926 0.258819 0.500000 0.000000 1 2 1.000000
sb_buggy_tire
2 34.000057 37.999949 14.000000 1.000000 -0.000001 0.000000 0.500000 0.500000 1 2 1.000000
2 34.000039 25.875594 21.000000 1.000000 -0.000001 0.000000 0.500000 0.500000 1 2 1.000000
2 34.000036 23.999949 14.000000 1.000000 -0.000001 0.000000 0.500000 0.500000 1 2 1.000000
sb_buggy_tire
2 26.000057 37.999961 14.000000 -1.000000 0.000001 0.000000 0.500000 0.500000 1 2 1.000000
2 26.000036 23.999961 14.000000 -1.000000 0.000001 0.000000 0.500000 0.500000 1 2 1.000000
2 26.000039 25.875606 21.000000 -1.000000 0.000001 0.000000 0.500000 0.500000 1 2 1.000000
sb_buggy_tire
2 34.000036 23.999949 14.000000 -0.000001 -0.965926 -0.258819 0.500000 0.000000 1 2 1.000000
2 26.000036 23.999961 14.000000 -0.000001 -0.965926 -0.258819 0.500000 1.000000 1 2 1.000000
2 26.000039 25.875606 7.000000 -0.000001 -0.965926 -0.258819 0.583333 1.000000 1 2 1.000000
sb_buggy_tire
2 34.000036 23.999949 14.000000 -0.000001 -0.965926 -0.258819 0.500000 0.000000 1 2 1.000000
2 26.000039 25.875606 7.000000 -0.000001 -0.965926 -0.258819 0.583333 1.000000 1 2 1.000000
2 34.000039 25.875594 7.000000 -0.000001 -0.965926 -0.258819 0.583333 0.000000 1 2 1.000000
sb_buggy_tire
2 34.000057 37.999949 14.000000 1.000000 -0.000001 0.000000 0.500000 0.500000 1 2 1.000000
2 34.000036 23.999949 14.000000 1.000000 -0.000001 0.000000 0.500000 0.500000 1 2 1.000000
2 34.000039 25.875594 7.000000 1.000000 -0.000001 0.000000 0.500000 0.500000 1 2 1.000000
sb_buggy_tire
2 26.000057 37.999961 14.000000 -1.000000 0.000001 0.000000 0.500000 0.500000 1 2 1.000000
2 26.000039 25.875606 7.000000 -1.000000 0.000001 0.000000 0.500000 0.500000 1 2 1.000000
2 26.000036 23.999961 14.000000 -1.000000 0.000001 0.000000 0.500000 0.500000 1 2 1.000000
sb_buggy_tire
2 34.000039 25.875594 7.000000 -0.000001 -0.707107 -0.707107 0.583333 0.000000 1 2 1.000000
2 26.000039 25.875606 7.000000 -0.000001 -0.707107 -0.707107 0.583333 1.000000 1 2 1.000000
2 26.000046 30.999961 1.875644 -0.000001 -0.707107 -0.707107 0.666667 1.000000 1 2 1.000000
sb_buggy_tire
2 34.000039 25.875594 7.000000 -0.000001 -0.707107 -0.707107 0.583333 0.000000 1 2 1.000000
2 26.000046 30.999961 1.875644 -0.000001 -0.707107 -0.707107 0.666667 1.000000 1 2 1.000000
2 34.000046 30.999949 1.875644 -0.000001 -0.707107 -0.707107 0.666667 0.000000 1 2 1.000000
sb_buggy_tire
2 34.000057 37.999949 14.000000 1.000000 -0.000001 0.000000 0.500000 0.500000 1 2 1.000000
2 34.000039 25.875594 7.000000 1.000000 -0.000001 0.000000 0.500000 0.500000 1 2 1.000000
2 34.000046 30.999949 1.875644 1.000000 -0.000001 0.000000 0.500000 0.500000 1 2 1.000000
sb_buggy_tire
2 26.000057 37.999961 14.000000 -1.000000 0.000001 0.000000 0.500000 0.500000 1 2 1.000000
2 26.000046 30.999961 1.875644 -1.000000 0.000001 0.000000 0.500000 0.500000 1 2 1.000000
2 26.000039 25.875606 7.000000 -1.000000 0.000001 0.000000 0.500000 0.500000 1 2 1.000000
sb_buggy_tire
2 34.000046 30.999949 1.875644 0.000000 -0.258819 -0.965926 0.666667 0.000000 1 2 1.000000
2 26.000046 30.999961 1.875644 0.000000 -0.258819 -0.965926 0.666667 1.000000 1 2 1.000000
2 26.000057 37.999961 0.000000 0.000000 -0.258819 -0.965926 0.750000 1.000000 1 2 1.000000
sb_buggy_tire
2 34.000046 30.999949 1.875644 0.000000 -0.258819 -0.965926 0.666667 0.000000 1 2 1.000000
2 26.000057 37.999961 0.000000 0.000000 -0.258819 -0.965926 0.750000 1.000000 1 2 1.000000
2 34.000057 37.999949 0.000000 0.000000 -0.258819 -0.965926 0.750000 0.000000 1 2 1.000000
sb_buggy_tire
2 34.000057 37.999949 14.000000 1.000000 -0.000001 0.000000 0.500000 0.500000 1 2 1.000000
2 34.000046 30.999949 1.875644 1.000000 -0.000001 0.000000 0.500000 0.500000 1 2 1.000000
2 34.000057 37.999949 0.000000 1.000000 -0.000001 0.000000 0.500000 0.500000 1 2 1.000000
sb_buggy_tire
2 26.000057 37.999961 14.000000 -1.000000 0.000001 0.000000 0.500000 0.500000 1 2 1.000000
2 26.000057 37.999961 0.000000 -1.000000 0.000001 0.000000 0.500000 0.500000 1 2 1.000000
2 26.000046 30.999961 1.875644 -1.000000 0.000001 0.000000 0.500000 0.500000 1 2 1.000000
sb_buggy_tire
2 34.000057 37.999949 0.000000 0.000000 0.258819 -0.965926 0.750000 0.000000 1 2 1.000000
2 26.000057 37.999961 0.000000 0.000000 0.258819 -0.965926 0.750000 1.000000 1 2 1.000000
2 26.000067 44.999961 1.875644 0.000000 0.258819 -0.965926 0.833333 1.000000 1 2 1.000000
sb_buggy_tire
2 34.000057 37.999949 0.000000 0.000000 0.258819 -0.965926 0.750000 0.000000 1 2 1.000000
2 26.000067 44.999961 1.875644 0.000000 0.258819 -0.965926 0.833333 1.000000 1 2 1.000000
2 34.000067 44.999949 1.875644 0.000000 0.258819 -0.965926 0.833333 0.000000 1 2 1.000000
sb_buggy_tire
2 34.000057 37.999949 14.000000 1.000000 -0.000001 0.000000 0.500000 0.500000 1 2 1.000000
2 34.000057 37.999949 0.000000 1.000000 -0.000001 0.000000 0.500000 0.500000 1 2 1.000000
2 34.000067 44.999949 1.875644 1.000000 -0.000001 0.000000 0.500000 0.500000 1 2 1.000000
sb_buggy_tire
2 26.000057 37.999961 14.000000 -1.000000 0.000001 0.000000 0.500000 0.500000 1 2 1.000000
2 26.000067 44.999961 1.875644 -1.000000 0.000001 0.000000 0.500000 0.500000 1 2 1.000000
2 26.000057 37.999961 0.000000 -1.000000 0.000001 0.000000 0.500000 0.500000 1 2 1.000000
sb_buggy_tire
2 34.000067 44.999949 1.875644 0.000001 0.707107 -0.707107 0.833333 0.000000 1 2 1.000000
2 26.000067 44.999961 1.875644 0.000001 0.707107 -0.707107 0.833333 1.000000 1 2 1.000000
2 26.000075 50.124316 7.000000 0.000001 0.707107 -0.707107 0.916667 1.000000 1 2 1.000000
sb_buggy_tire
2 34.000067 44.999949 1.875644 0.000001 0.707107 -0.707107 0.833333 0.000000 1 2 1.000000
2 26.000075 50.124316 7.000000 0.000001 0.707107 -0.707107 0.916667 1.000000 1 2 1.000000
2 34.000075 50.124305 7.000000 0.000001 0.707107 -0.707107 0.916667 0.000000 1 2 1.000000
sb_buggy_tire
2 34.000057 37.999949 14.000000 1.000000 -0.000001 0.000000 0.500000 0.500000 1 2 1.000000
2 34.000067 44.999949 1.875644 1.000000 -0.000001 0.000000 0.500000 0.500000 1 2 1.000000
2 34.000075 50.124305 7.000000 1.000000 -0.000001 0.000000 0.500000 0.500000 1 2 1.000000
sb_buggy_tire
2 26.000057 37.999961 14.000000 -1.000000 0.000001 0.000000 0.500000 0.500000 1 2 1.000000
2 26.000075 50.124316 7.000000 -1.000000 0.000001 0.000000 0.500000 0.500000 1 2 1.000000
2 26.000067 44.999961 1.875644 -1.000000 0.000001 0.000000 0.500000 0.500000 1 2 1.000000
sb_buggy_tire
2 34.000075 50.124305 7.000000 0.000001 0.965926 -0.258819 0.916667 0.000000 1 2 1.000000
2 26.000075 50.124316 7.000000 0.000001 0.965926 -0.258819 0.916667 1.000000 1 2 1.000000
2 26.000078 51.999961 14.000000 0.000001 0.965926 -0.258819 1.000000 1.000000 1 2 1.000000
sb_buggy_tire
2 34.000075 50.124305 7.000000 0.000001 0.965926 -0.258819 0.916667 0.000000 1 2 1.000000
2 26.000078 51.999961 14.000000 0.000001 0.965926 -0.258819 1.000000 1.000000 1 2 1.000000
2 34.000078 51.999949 14.000000 0.000001 0.965926 -0.258819 1.000000 0.000000 1 2 1.000000
sb_buggy_tire
2 34.000057 37.999949 14.000000 1.000000 -0.000001 0.000000 0.500000 0.500000 1 2 1.000000
2 34.000075 50.124305 7.000000 1.000000 -0.000001 0.000000 0.500000 0.500000 1 2 1.000000
2 34.000078 51.999949 14.000000 1.000000 -0.000001 0.000000 0.500000 0.500000 1 2 1.000000
sb_buggy_tire
2 26.000057 37.999961 14.000000 -1.000000 0.000001 0.000000 0.500000 0.500000 1 2 1.000000
2 26.000078 51.999961 14.000000 -1.000000 0.000001 0.000000 0.500000 0.500000 1 2 1.000000
2 26.000075 50.124316 7.000000 -1.000000 0.000001 0.000000 0.500000 0.500000 1 2 1.000000
sb_buggy_tire
3 -26.000033 -21.999961 14.000000 0.000001 0.965926 0.258819 0.000000 0.000000 1 3 1.000000
3 -34.000033 -21.999949 14.000000 0.000001 0.965926 0.258819 0.000000 1.000000 1 3 1.000000
3 -34.000036 -23.875594 21.000000 0.000001 0.965926 0.258819 0.083333 1.000000 1 3 1.000000
sb_buggy_tire
3 -26.000033 -21.999961 14.000000 0.000001 0.965926 0.258819 0.000000 0.000000 1 3 1.000000
3 -34.000036 -23.875594 21.000000 0.000001 0.965926 0.258819 0.083333 1.000000 1 3 1.000000
3 -26.000036 -23.875606 21.000000 0.000001 0.965926 0.258819 0.083333 0.000000 1 3 1.000000
sb_buggy_tire
3 -26.000054 -35.999961 14.000000 1.000000 -0.000001 0.000000 0.500000 0.500000 1 3 1.000000
3 -26.000033 -21.999961 14.000000 1.000000 -0.000001 0.000000 0.500000 0.500000 1 3 1.000000
3 -26.000036 -23.875606 21.000000 1.000000 -0.000001 0.000000 0.500000 0.500000 1 3 1.000000
sb_buggy_tire
3 -34.000054 -35.999949 14.000000 -1.000000 0.000001 0.000000 0.500000 0.500000 1 3 1.000000
3 -34.000036 -23.875594 21.000000 -1.000000 0.000001 0.000000 0.500000 0.500000 1 3 1.000000
3 -34.000033 -21.999949 14.000000 -1.000000 0.000001 0.000000 0.500000 0.500000 1 3 1.000000
sb_buggy_tire
3 -26.000036 -23.875606 21.000000 0.000001 0.707107 0.707107 0.083333 0.000000 1 3 1.000000
3 -34.000036 -23.875594 21.000000 0.000001 0.707107 0.707107 0.083333 1.000000 1 3 1.000000
3 -34.000043 -28.999949 26.124355 0.000001 0.707107 0.707107 0.166667 1.000000 1 3 1.000000
sb_buggy_tire
3 -26.000036 -23.875606 21.000000 0.000001 0.707107 0.707107 0.083333 0.000000 1 3 1.000000
3 -34.000043 -28.999949 26.124355 0.000001 0.707107 0.707107 0.166667 1.000000 1 3 1.000000
3 -26.000043 -28.999961 26.124355 0.000001 0.707107 0.707107 0.166667 0.000000 1 3 1.000000
sb_buggy_tire
3 -26.000054 -35.999961 14.000000 1.000000 -0.000001 0.000000 0.500000 0.500000 1 3 1.000000
3 -26.000036 -23.875606 21.000000 1.000000 -0.000001 0.000000 0.500000 0.500000 1 3 1.000000
3 -26.000043 -28.999961 26.124355 1.000000 -0.000001 0.000000 0.500000 0.500000 1 3 1.000000
sb_buggy_tire
3 -34.000054 -35.999949 14.000000 -1.000000 0.000001 0.000000 0.500000 0.500000 1 3 1.000000
3 -34.000043 -28.999949 26.124355 -1.000000 0.000001 0.000000 0.500000 0.500000 1 3 1.000000
3 -34.000036 -23.875594 21.000000 -1.000000 0.000001 0.000000 0.500000 0.500000 1 3 1.000000
sb_buggy_tire
3 -26.000043 -28.999961 26.124355 0.000000 0.258819 0.965926 0.166667 0.000000 1 3 1.000000
3 -34.000043 -28.999949 26.124355 0.000000 0.258819 0.965926 0.166667 1.000000 1 3 1.000000
3 -34.000054 -35.999949 28.000000 0.000000 0.258819 0.965926 0.250000 1.000000 1 3 1.000000
sb_buggy_tire
3 -26.000043 -28.999961 26.124355 0.000000 0.258819 0.965926 0.166667 0.000000 1 3 1.000000
3 -34.000054 -35.999949 28.000000 0.000000 0.258819 0.965926 0.250000 1.000000 1 3 1.000000
3 -26.000054 -35.999961 28.000000 0.000000 0.258819 0.965926 0.250000 0.000000 1 3 1.000000
sb_buggy_tire
3 -26.000054 -35.999961 14.000000 1.000000 -0.000001 0.000000 0.500000 0.500000 1 3 1.000000
3 -26.000043 -28.999961 26.124355 1.000000 -0.000001 0.000000 0.500000 0.500000 1 3 1.000000
3 -26.000054 -35.999961 28.000000 1.000000 -0.000001 0.000000 0.500000 0.500000 1 3 1.000000
sb_buggy_tire
3 -34.000054 -35.999949 14.000000 -1.000000 0.000001 0.000000 0.500000 0.500000 1 3 1.000000
3 -34.000054 -35.999949 28.000000 -1.000000 0.000001 0.000000 0.500000 0.500000 1 3 1.000000
3 -34.000043 -28.999949 26.124355 -1.000000 0.000001 0.000000 0.500000 0.500000 1 3 1.000000
sb_buggy_tire
3 -26.000054 -35.999961 28.000000 0.000000 -0.258819 0.965926 0.250000 0.000000 1 3 1.000000
3 -34.000054 -35.999949 28.000000 0.000000 -0.258819 0.965926 0.250000 1.000000 1 3 1.000000
3 -34.000064 -42.999949 26.124355 0.000000 -0.258819 0.965926 0.333333 1.000000 1 3 1.000000
sb_buggy_tire
3 -26.000054 -35.999961 28.000000 0.000000 -0.258819 0.965926 0.250000 0.000000 1 3 1.000000
3 -34.000064 -42.999949 26.124355 0.000000 -0.258819 0.965926 0.333333 1.000000 1 3 1.000000
3 -26.000064 -42.999961 26.124355 0.000000 -0.258819 0.965926 0.333333 0.000000 1 3 1.000000
sb_buggy_tire
3 -26.000054 -35.999961 14.000000 1.000000 -0.000001 0.000000 0.500000 0.500000 1 3 1.000000
3 -26.000054 -35.999961 28.000000 1.000000 -0.000001 0.000000 0.500000 0.500000 1 3 1.000000
3 -26.000064 -42.999961 26.124355 1.000000 -0.000001 0.000000 0.500000 0.500000 1 3 1.000000
sb_buggy_tire
3 -34.000054 -35.999949 14.000000 -1.000000 0.000001 0.000000 0.500000 0.500000 1 3 1.000000
3 -34.000064 -42.999949 26.124355 -1.000000 0.000001 0.000000 0.500000 0.500000 1 3 1.000000
3 -34.000054 -35.999949 28.000000 -1.000000 0.000001 0.000000 0.500000 0.500000 1 3 1.000000
sb_buggy_tire
3 -26.000064 -42.999961 26.124355 -0.000001 -0.707107 0.707107 0.333333 0.000000 1 3 1.000000
3 -34.000064 -42.999949 26.124355 -0.000001 -0.707107 0.707107 0.333333 1.000000 1 3 1.000000
3 -34.000072 -48.124305 21.000000 -0.000001 -0.707107 0.707107 0.416667 1.000000 1 3 1.000000
sb_buggy_tire
3 -26.000064 -42.999961 26.124355 -0.000001 -0.707107 0.707107 0.333333 0.000000 1 3 1.000000
3 -34.000072 -48.124305 21.000000 -0.000001 -0.707107 0.707107 0.416667 1.000000 1 3 1.000000
3 -26.000072 -48.124316 21.000000 -0.000001 -0.707107 0.707107 0.416667 0.000000 1 3 1.000000
sb_buggy_tire
3 -26.000054 -35.999961 14.000000 1.000000 -0.000001 0.000000 0.500000 0.500000 1 3 1.000000
3 -26.000064 -42.999961 26.124355 1.000000 -0.000001 0.000000 0.500000 0.500000 1 3 1.000000
3 -26.000072 -48.124316 21.000000 1.000000 -0.000001 0.000000 0.500000 0.500000 1 3 1.000000
sb_buggy_tire
3 -34.000054 -35.999949 14.000000 -1.000000 0.000001 0.000000 0.500000 0.500000 1 3 1.000000
3 -34.000072 -48.124305 21.000000 -1.000000 0.000001 0.000000 0.500000 0.500000 1 3 1.000000
3 -34.000064 -42.999949 26.124355 -1.000000 0.000001 0.000000 0.500000 0.500000 1 3 1.000000
sb_buggy_tire
3 -26.000072 -48.124316 21.000000 -0.000001 -0.965926 0.258819 0.416667 0.000000 1 3 1.000000
3 -34.000072 -48.124305 21.000000 -0.000001 -0.965926 0.258819 0.416667 1.000000 1 3 1.000000
3 -34.000075 -49.999949 14.000000 -0.000001 -0.965926 0.258819 0.500000 1.000000 1 3 1.000000
sb_buggy_tire
3 -26.000072 -48.124316 21.000000 -0.000001 -0.965926 0.258819 0.416667 0.000000 1 3 1.000000
3 -34.000075 -49.999949 14.000000 -0.000001 -0.965926 0.258819 0.500000 1.000000 1 3 1.000000
3 -26.000075 -49.999961 14.000000 -0.000001 -0.965926 0.258819 0.500000 0.000000 1 3 1.000000
sb_buggy_tire
3 -26.000054 -35.999961 14.000000 1.000000 -0.000001 0.000000 0.500000 0.500000 1 3 1.000000
3 -26.000072 -48.124316 21.000000 1.000000 -0.000001 0.000000 0.500000 0.500000 1 3 1.000000
3 -26.000075 -49.999961 14.000000 1.000000 -0.000001 0.000000 0.500000 0.500000 1 3 1.000000
sb_buggy_tire
3 -34.000054 -35.999949 14.000000 -1.000000 0.000001 0.000000 0.500000 0.500000 1 3 1.000000
3 -34.000075 -49.999949 14.000000 -1.000000 0.000001 0.000000 0.500000 0.500000 1 3 1.000000
3 -34.000072 -48.124305 21.000000 -1.000000 0.000001 0.000000 0.500000 0.500000 1 3 1.000000
sb_buggy_tire
3 -26.000075 -49.999961 14.000000 -0.000001 -0.965926 -0.258819 0.500000 0.000000 1 3 1.000000
3 -34.000075 -49.999949 14.000000 -0.000001 -0.965926 -0.258819 0.500000 1.000000 1 3 1.000000
3 -34.000072 -48.124305 7.000000 -0.000001 -0.965926 -0.258819 0.583333 1.000000 1 3 1.000000
sb_buggy_tire
3 -26.000075 -49.999961 14.000000 -0.000001 -0.965926 -0.258819 0.500000 0.000000 1 3 1.000000
3 -34.000072 -48.124305 7.000000 -0.000001 -0.965926 -0.258819 0.583333 1.000000 1 3 1.000000
3 -26.000072 -48.124316 7.000000 -0.000001 -0.965926 -0.258819 0.583333 0.000000 1 3 1.000000
sb_buggy_tire
3 -26.000054 -35.999961 14.000000 1.000000 -0.000001 0.000000 0.500000 0.500000 1 3 1.000000
3 -26.000075 -49.999961 14.000000 1.000000 -0.000001 0.000000 0.500000 0.500000 1 3 1.000000
3 -26.000072 -48.124316 7.000000 1.000000 -0.000001 0.000000 0.500000 0.500000 1 3 1.000000
sb_buggy_tire
3 -34.000054 -35.999949 14.000000 -1.000000 0.000001 0.000000 0.500000 0.500000 1 3 1.000000
3 -34.000072 -48.124305 7.000000 -1.000000 0.000001 0.000000 0.500000 0.500000 1 3 1.000000
3 -34.000075 -49.999949 14.000000 -1.000000 0.000001 0.000000 0.500000 0.500000 1 3 1.000000
sb_buggy_tire
3 -26.000072 -48.124316 7.000000 -0.000001 -0.707107 -0.707107 0.583333 0.000000 1 3 1.000000
3 -34.000072 -48.124305 7.000000 -0.000001 -0.707107 -0.707107 0.583333 1.000000 1 3 1.000000
3 -34.000064 -42.999949 1.875644 -0.000001 -0.707107 -0.707107 0.666667 1.000000 1 3 1.000000
sb_buggy_tire
3 -26.000072 -48.124316 7.000000 -0.000001 -0.707107 -0.707107 0.583333 0.000000 1 3 1.000000
3 -34.000064 -42.999949 1.875644 -0.000001 -0.707107 -0.707107 0.666667 1.000000 1 3 1.000000
3 -26.000064 -42.999961 1.875644 -0.000001 -0.707107 -0.707107 0.666667 0.000000 1 3 1.000000
sb_buggy_tire
3 -26.000054 -35.999961 14.000000 1.000000 -0.000001 0.000000 0.500000 0.500000 1 3 1.000000
3 -26.000072 -48.124316 7.000000 1.000000 -0.000001 0.000000 0.500000 0.500000 1 3 1.000000
3 -26.000064 -42.999961 1.875644 1.000000 -0.000001 0.000000 0.500000 0.500000 1 3 1.000000
sb_buggy_tire
3 -34.000054 -35.999949 14.000000 -1.000000 0.000001 0.000000 0.500000 0.500000 1 3 1.000000
3 -34.000064 -42.999949 1.875644 -1.000000 0.000001 0.000000 0.500000 0.500000 1 3 1.000000
3 -34.000072 -48.124305 7.000000 -1.000000 0.000001 0.000000 0.500000 0.500000 1 3 1.000000
sb_buggy_tire
3 -26.000064 -42.999961 1.875644 0.000000 -0.258819 -0.965926 0.666667 0.000000 1 3 1.000000
3 -34.000064 -42.999949 1.875644 0.000000 -0.258819 -0.965926 0.666667 1.000000 1 3 1.000000
3 -34.000054 -35.999949 0.000000 0.000000 -0.258819 -0.965926 0.750000 1.000000 1 3 1.000000
sb_buggy_tire
3 -26.000064 -42.999961 1.875644 0.000000 -0.258819 -0.965926 0.666667 0.000000 1 3 1.000000
3 -34.000054 -35.999949 0.000000 0.000000 -0.258819 -0.965926 0.750000 1.000000 1 3 1.000000
3 -26.000054 -35.999961 0.000000 0.000000 -0.258819 -0.965926 0.750000 0.000000 1 3 1.000000
sb_buggy_tire
3 -26.000054 -35.999961 14.000000 1.000000 -0.000001 0.000000 0.500000 0.500000 1 3 1.000000
3 -26.000064 -42.999961 1.875644 1.000000 -0.000001 0.000000 0.500000 0.500000 1 3 1.000000
3 -26.000054 -35.999961 0.000000 1.000000 -0.000001 0.000000 0.500000 0.500000 1 3 1.000000
sb_buggy_tire
3 -34.000054 -35.999949 14.000000 -1.000000 0.000001 0.000000 0.500000 0.500000 1 3 1.000000
3 -34.000054 -35.999949 0.000000 -1.000000 0.000001 0.000000 0.500000 0.500000 1 3 1.000000
3 -34.000064 -42.999949 1.875644 -1.000000 0.000001 0.000000 0.500000 0.500000 1 3 1.000000
sb_buggy_tire
3 -26.000054 -35.999961 0.000000 0.000000 0.258819 -0.965926 0.750000 0.000000 1 3 1.000000
3 -34.000054 -35.999949 0.000000 0.000000 0.258819 -0.965926 0.750000 1.000000 1 3 1.000000
3 -34.000043 -28.999949 1.875644 0.000000 0.258819 -0.965926 0.833333 1.000000 1 3 1.000000
sb_buggy_tire
3 -26.000054 -35.999961 0.000000 0.000000 0.258819 -0.965926 0.750000 0.000000 1 3 1.000000
3 -34.000043 -28.999949 1.875644 0.000000 0.258819 -0.965926 0.833333 1.000000 1 3 1.000000
3 -26.000043 -28.999961 1.875644 0.000000 0.258819 -0.965926 0.833333 0.000000 1 3 1.000000
sb_buggy_tire
3 -26.000054 -35.999961 14.000000 1.000000 -0.000001 0.000000 0.500000 0.500000 1 3 1.000000
3 -26.000054 -35.999961 0.000000 1.000000 -0.000001 0.000000 0.500000 0.500000 1 3 1.000000
3 -26.000043 -28.999961 1.875644 1.000000 -0.000001 0.000000 0.500000 0.500000 1 3 1.000000
sb_buggy_tire
3 -34.000054 -35.999949 14.000000 -1.000000 0.000001 0.000000 0.500000 0.500000 1 3 1.000000
3 -34.000043 -28.999949 1.875644 -1.000000 0.000001 0.000000 0.500000 0.500000 1 3 1.000000
3 -34.000054 -35.999949 0.000000 -1.000000 0.000001 0.000000 0.500000 0.500000 1 3 1.000000
sb_buggy_tire
3 -26.000043 -28.999961 1.875644 0.000001 0.707107 -0.707107 0.833333 0.000000 1 3 1.000000
3 -34.000043 -28.999949 1.875644 0.000001 0.707107 -0.707107 0.833333 1.000000 1 3 1.000000
3 -34.000036 -23.875594 7.000000 0.000001 0.707107 -0.707107 0.916667 1.000000 1 3 1.000000
sb_buggy_tire
3 -26.000043 -28.999961 1.875644 0.000001 0.707107 -0.707107 0.833333 0.000000 1 3 1.000000
3 -34.000036 -23.875594 7.000000 0.000001 0.707107 -0.707107 0.916667 1.000000 1 3 1.000000
3 -26.000036 -23.875606 7.000000 0.000001 0.707107 -0.707107 0.916667 0.000000 1 3 1.000000
sb_buggy_tire
3 -26.000054 -35.999961 14.000000 1.000000 -0.000001 0.000000 0.500000 0.500000 1 3 1.000000
3 -26.000043 -28.999961 1.875644 1.000000 -0.000001 0.000000 0.500000 0.500000 1 3 1.000000
3 -26.000036 -23.875606 7.000000 1.000000 -0.000001 0.000000 0.500000 0.500000 1 3 1.000000
sb_buggy_tire
3 -34.000054 -35.999949 14.000000 -1.000000 0.000001 0.000000 0.500000 0.500000 1 3 1.000000
3 -34.000036 -23.875594 7.000000 -1.000000 0.000001 0.000000 0.500000 0.500000 1 3 1.000000
3 -34.000043 -28.999949 1.875644 -1.000000 0.000001 0.000000 0.500000 0.500000 1 3 1.000000
sb_buggy_tire
3 -26.000036 -23.875606 7.000000 0.000001 0.965926 -0.258819 0.916667 0.000000 1 3 1.000000
3 -34.000036 -23.875594 7.000000 0.000001 0.965926 -0.258819 0.916667 1.000000 1 3 1.000000
3 -34.000033 -21.999949 14.000000 0.000001 0.965926 -0.258819 1.000000 1.000000 1 3 1.000000
sb_buggy_tire
3 -26.000036 -23.875606 7.000000 0.000001 0.965926 -0.258819 0.916667 0.000000 1 3 1.000000
3 -34.000033 -21.999949 14.000000 0.000001 0.965926 -0.258819 1.000000 1.000000 1 3 1.000000
3 -26.000033 -21.999961 14.000000 0.000001 0.965926 -0.258819 1.000000 0.000000 1 3 1.000000
sb_buggy_tire
3 -26.000054 -35.999961 14.000000 1.000000 -0.000001 0.000000 0.500000 0.500000 1 3 1.000000
3 -26.000036 -23.875606 7.000000 1.000000 -0.000001 0.000000 0.500000 0.500000 1 3 1.000000
3 -26.000033 -21.999961 14.000000 1.000000 -0.000001 0.000000 0.500000 0.500000 1 3 1.000000
sb_buggy_tire
3 -34.000054 -35.999949 14.000000 -1.000000 0.000001 0.000000 0.500000 0.500000 1 3 1.000000
3 -34.000033 -21.999949 14.000000 -1.000000 0.000001 0.000000 0.500000 0.500000 1 3 1.000000
3 -34.000036 -23.875594 7.000000 -1.000000 0.000001 0.000000 0.500000 0.500000 1 3 1.000000
sb_buggy_tire
4 33.999967 -22.000051 14.000000 0.000001 0.965926 0.258819 0.000000 0.000000 1 4 1.000000
4 25.999967 -22.000039 14.000000 0.000001 0.965926 0.258819 0.000000 1.000000 1 4 1.000000
4 25.999964 -23.875684 21.000000 0.000001 0.965926 0.258819 0.083333 1.000000 1 4 1.000000
sb_buggy_tire
4 33.999967 -22.000051 14.000000 0.000001 0.965926 0.258819 0.000000 0.000000 1 4 1.000000
4 25.999964 -23.875684 21.000000 0.000001 0.965926 0.258819 0.083333 1.000000 1 4 1.000000
4 33.999964 -23.875695 21.000000 0.000001 0.965926 0.258819 0.083333 0.000000 1 4 1.000000
sb_buggy_tire
4 33.999946 -36.000051 14.000000 1.000000 -0.000001 0.000000 0.500000 0.500000 1 4 1.000000
4 33.999967 -22.000051 14.000000 1.000000 -0.000001 0.000000 0.500000 0.500000 1 4 1.000000
4 33.999964 -23.875695 21.000000 1.000000 -0.000001 0.000000 0.500000 0.500000 1 4 1.000000
sb_buggy_tire
4 25.999946 -36.000039 14.000000 -1.000000 0.000001 0.000000 0.500000 0.500000 1 4 1.000000
4 25.999964 -23.875684 21.000000 -1.000000 0.000001 0.000000 0.500000 0.500000 1 4 1.000000
4 25.999967 -22.000039 14.000000 -1.000000 0.000001 0.000000 0.500000 0.500000 1 4 1.000000
sb_buggy_tire
4 33.999964 -23.875695 21.000000 0.000001 0.707107 0.707107 0.083333 0.000000 1 4 1.000000
4 25.999964 -23.875684 21.000000 0.000001 0.707107 0.707107 0.083333 1.000000 1 4 1.000000
4 25.999957 -29.000039 26.124355 0.000001 0.707107 0.707107 0.166667 1.000000 1 4 1.000000
sb_buggy_tire
4 33.999964 -23.875695 21.000000 0.000001 0.707107 0.707107 0.083333 0.000000 1 4 1.000000
4 25.999957 -29.000039 26.124355 0.000001 0.707107 0.707107 0.166667 1.000000 1 4 1.000000
4 33.999957 -29.000051 26.124355 0.000001 0.707107 0.707107 0.166667 0.000000 1 4 1.000000
sb_buggy_tire
4 33.999946 -36.000051 14.000000 1.000000 -0.000001 0.000000 0.500000 0.500000 1 4 1.000000
4 33.999964 -23.875695 21.000000 1.000000 -0.000001 0.000000 0.500000 0.500000 1 4 1.000000
4 33.999957 -29.000051 26.124355 1.000000 -0.000001 0.000000 0.500000 0.500000 1 4 1.000000
sb_buggy_tire
4 25.999946 -36.000039 14.000000 -1.000000 0.000001 0.000000 0.500000 0.500000 1 4 1.000000
4 25.999957 -29.000039 26.124355 -1.000000 0.000001 0.000000 0.500000 0.500000 1 4 1.000000
4 25.999964 -23.875684 21.000000 -1.000000 0.000001 0.000000 0.500000 0.500000 1 4 1.000000
sb_buggy_tire
4 33.999957 -29.000051 26.124355 0.000000 0.258819 0.965926 0.166667 0.000000 1 4 1.000000
4 25.999957 -29.000039 26.124355 0.000000 0.258819 0.965926 0.166667 1.000000 1 4 1.000000
4 25.999946 -36.000039 28.000000 0.000000 0.258819 0.965926 0.250000 1.000000 1 4 1.000000
sb_buggy_tire
4 33.999957 -29.000051 26.124355 0.000000 0.258819 0.965926 0.166667 0.000000 1 4 1.000000
4 25.999946 -36.000039 28.000000 0.000000 0.258819 0.965926 0.250000 1.000000 1 4 1.000000
4 33.999946 -36.000051 28.000000 0.000000 0.258819 0.965926 0.250000 0.000000 1 4 1.000000
sb_buggy_tire
4 33.999946 -36.000051 14.000000 1.000000 -0.000001 0.000000 0.500000 0.500000 1 4 1.000000
4 33.999957 -29.000051 26.124355 1.000000 -0.000001 0.000000 0.500000 0.500000 1 4 1.000000
4 33.999946 -36.000051 28.000000 1.000000 -0.000001 0.000000 0.500000 0.500000 1 4 1.000000
sb_buggy_tire
4 25.999946 -36.000039 14.000000 -1.000000 0.000001 0.000000 0.500000 0.500000 1 4 1.000000
4 25.999946 -36.000039 28.000000 -1.000000 0.000001 0.000000 0.500000 0.500000 1 4 1.000000
4 25.999957 -29.000039 26.124355 -1.000000 0.000001 0.000000 0.500000 0.500000 1 4 1.000000
sb_buggy_tire
4 33.999946 -36.000051 28.000000 0.000000 -0.258819 0.965926 0.250000 0.000000 1 4 1.000000
4 25.999946 -36.000039 28.000000 0.000000 -0.258819 0.965926 0.250000 1.000000 1 4 1.000000
4 25.999936 -43.000039 26.124355 0.000000 -0.258819 0.965926 0.333333 1.000000 1 4 1.000000
sb_buggy_tire
4 33.999946 -36.000051 28.000000 0.000000 -0.258819 0.965926 0.250000 0.000000 1 4 1.000000
4 25.999936 -43.000039 26.124355 0.000000 -0.258819 0.965926 0.333333 1.000000 1 4 1.000000
4 33.999936 -43.000051 26.124355 0.000000 -0.258819 0.965926 0.333333 0.000000 1 4 1.000000
sb_buggy_tire
4 33.999946 -36.000051 14.000000 1.000000 -0.000001 0.000000 0.500000 0.500000 1 4 1.000000
4 33.999946 -36.000051 28.000000 1.000000 -0.000001 0.000000 0.500000 0.500000 1 4 1.000000
4 33.999936 -43.000051 26.124355 1.000000 -0.000001 0.000000 0.500000 0.500000 1 4 1.000000
sb_buggy_tire
4 25.999946 -36.000039 14.000000 -1.000000 0.000001 0.000000 0.500000 0.500000 1 4 1.000000
4 25.999936 -43.000039 26.124355 -1.000000 0.000001 0.000000 0.500000 0.500000 1 4 1.000000
4 25.999946 -36.000039 28.000000 -1.000000 0.000001 0.000000 0.500000 0.500000 1 4 1.000000
sb_buggy_tire
4 33.999936 -43.000051 26.124355 -0.000001 -0.707107 0.707107 0.333333 0.000000 1 4 1.000000
4 25.999936 -43.000039 26.124355 -0.000001 -0.707107 0.707107 0.333333 1.000000 1 4 1.000000
4 25.999928 -48.124394 21.000000 -0.000001 -0.707107 0.707107 0.416667 1.000000 1 4 1.000000
sb_buggy_tire
4 33.999936 -43.000051 26.124355 -0.000001 -0.707107 0.707107 0.333333 0.000000 1 4 1.000000
4 25.999928 -48.124394 21.000000 -0.000001 -0.707107 0.707107 0.416667 1.000000 1 4 1.000000
4 33.999928 -48.124406 21.000000 -0.000001 -0.707107 0.707107 0.416667 0.000000 1 4 1.000000
sb_buggy_tire
4 33.999946 -36.000051 14.000000 1.000000 -0.000001 0.000000 0.500000 0.500000 1 4 1.000000
4 33.999936 -43.000051 26.124355 1.000000 -0.000001 0.000000 0.500000 0.500000 1 4 1.000000
4 33.999928 -48.124406 21.000000 1.000000 -0.000001 0.000000 0.500000 0.500000 1 4 1.000000
sb_buggy_tire
4 25.999946 -36.000039 14.000000 -1.000000 0.000001 0.000000 0.500000 0.500000 1 4 1.000000
4 25.999928 -48.124394 21.000000 -1.000000 0.000001 0.000000 0.500000 0.500000 1 4 1.000000
4 25.999936 -43.000039 26.124355 -1.000000 0.000001 0.000000 0.500000 0.500000 1 4 1.000000
sb_buggy_tire
4 33.999928 -48.124406 21.000000 -0.000001 -0.965926 0.258819 0.416667 0.000000 1 4 1.000000
4 25.999928 -48.124394 21.000000 -0.000001 -0.965926 0.258819 0.416667 1.000000 1 4 1.000000
4 25.999925 -50.000039 14.000000 -0.000001 -0.965926 0.258819 0.500000 1.000000 1 4 1.000000
sb_buggy_tire
4 33.999928 -48.124406 21.000000 -0.000001 -0.965926 0.258819 0.416667 0.000000 1 4 1.000000
4 25.999925 -50.000039 14.000000 -0.000001 -0.965926 0.258819 0.500000 1.000000 1 4 1.000000
4 33.999925 -50.000051 14.000000 -0.000001 -0.965926 0.258819 0.500000 0.000000 1 4 1.000000
sb_buggy_tire
4 33.999946 -36.000051 14.000000 1.000000 -0.000001 0.000000 0.500000 0.500000 1 4 1.000000
4 33.999928 -48.124406 21.000000 1.000000 -0.000001 0.000000 0.500000 0.500000 1 4 1.000000
4 33.999925 -50.000051 14.000000 1.000000 -0.000001 0.000000 0.500000 0.500000 1 4 1.000000
sb_buggy_tire
4 25.999946 -36.000039 14.000000 -1.000000 0.000001 0.000000 0.500000 0.500000 1 4 1.000000
4 25.999925 -50.000039 14.000000 -1.000000 0.000001 0.000000 0.500000 0.500000 1 4 1.000000
4 25.999928 -48.124394 21.000000 -1.000000 0.000001 0.000000 0.500000 0.500000 1 4 1.000000
sb_buggy_tire
4 33.999925 -50.000051 14.000000 -0.000001 -0.965926 -0.258819 0.500000 0.000000 1 4 1.000000
4 25.999925 -50.000039 14.000000 -0.000001 -0.965926 -0.258819 0.500000 1.000000 1 4 1.000000
4 25.999928 -48.124394 7.000000 -0.000001 -0.965926 -0.258819 0.583333 1.000000 1 4 1.000000
sb_buggy_tire
4 33.999925 -50.000051 14.000000 -0.000001 -0.965926 -0.258819 0.500000 0.000000 1 4 1.000000
4 25.999928 -48.124394 7.000000 -0.000001 -0.965926 -0.258819 0.583333 1.000000 1 4 1.000000
4 33.999928 -48.124406 7.000000 -0.000001 -0.965926 -0.258819 0.583333 0.000000 1 4 1.000000
sb_buggy_tire
4 33.999946 -36.000051 14.000000 1.000000 -0.000001 0.000000 0.500000 0.500000 1 4 1.000000
4 33.999925 -50.000051 14.000000 1.000000 -0.000001 0.000000 0.500000 0.500000 1 4 1.000000
4 33.999928 -48.124406 7.000000 1.000000 -0.000001 0.000000 0.500000 0.500000 1 4 1.000000
sb_buggy_tire
4 25.999946 -36.000039 14.000000 -1.000000 0.000001 0.000000 0.500000 0.500000 1 4 1.000000
4 25.999928 -48.124394 7.000000 -1.000000 0.000001 0.000000 0.500000 0.500000 1 4 1.000000
4 25.999925 -50.000039 14.000000 -1.000000 0.000001 0.000000 0.500000 0.500000 1 4 1.000000
sb_buggy_tire
4 33.999928 -48.124406 7.000000 -0.000001 -0.707107 -0.707107 0.583333 0.000000 1 4 1.000000
4 25.999928 -48.124394 7.000000 -0.000001 -0.707107 -0.707107 0.583333 1.000000 1 4 1.000000
4 25.999936 -43.000039 1.875644 -0.000001 -0.707107 -0.707107 0.666667 1.000000 1 4 1.000000
sb_buggy_tire
4 33.999928 -48.124406 7.000000 -0.000001 -0.707107 -0.707107 0.583333 0.000000 1 4 1.000000
4 25.999936 -43.000039 1.875644 -0.000001 -0.707107 -0.707107 0.666667 1.000000 1 4 1.000000
4 33.999936 -43.000051 1.875644 -0.000001 -0.707107 -0.707107 0.666667 0.000000 1 4 1.000000
sb_buggy_tire
4 33.999946 -36.000051 14.000000 1.000000 -0.000001 0.000000 0.500000 0.500000 1 4 1.000000
4 33.999928 -48.124406 7.000000 1.000000 -0.000001 0.000000 0.500000 0.500000 1 4 1.000000
4 33.999936 -43.000051 1.875644 1.000000 -0.000001 0.000000 0.500000 0.500000 1 4 1.000000
sb_buggy_tire
4 25.999946 -36.000039 14.000000 -1.000000 0.000001 0.000000 0.500000 0.500000 1 4 1.000000
4 25.999936 -43.000039 1.875644 -1.000000 0.000001 0.000000 0.500000 0.500000 1 4 1.000000
4 25.999928 -48.124394 7.000000 -1.000000 0.000001 0.000000 0.500000 0.500000 1 4 1.000000
sb_buggy_tire
4 33.999936 -43.000051 1.875644 0.000000 -0.258819 -0.965926 0.666667 0.000000 1 4 1.000000
4 25.999936 -43.000039 1.875644 0.000000 -0.258819 -0.965926 0.666667 1.000000 1 4 1.000000
4 25.999946 -36.000039 0.000000 0.000000 -0.258819 -0.965926 0.750000 1.000000 1 4 1.000000
sb_buggy_tire
4 33.999936 -43.000051 1.875644 0.000000 -0.258819 -0.965926 0.666667 0.000000 1 4 1.000000
4 25.999946 -36.000039 0.000000 0.000000 -0.258819 -0.965926 0.750000 1.000000 1 4 1.000000
4 33.999946 -36.000051 0.000000 0.000000 -0.258819 -0.965926 0.750000 0.000000 1 4 1.000000
sb_buggy_tire
4 33.999946 -36.000051 14.000000 1.000000 -0.000001 0.000000 0.500000 0.500000 1 4 1.000000
4 33.999936 -43.000051 1.875644 1.000000 -0.000001 0.000000 0.500000 0.500000 1 4 1.000000
4 33.999946 -36.000051 0.000000 1.000000 -0.000001 0.000000 0.500000 0.500000 1 4 1.000000
sb_buggy_tire
4 25.999946 -36.000039 14.000000 -1.000000 0.000001 0.000000 0.500000 0.500000 1 4 1.000000
4 25.999946 -36.000039 0.000000 -1.000000 0.000001 0.000000 0.500000 0.500000 1 4 1.000000
4 25.999936 -43.000039 1.875644 -1.000000 0.000001 0.000000 0.500000 0.500000 1 4 1.000000
sb_buggy_tire
4 33.999946 -36.000051 0.000000 0.000000 0.258819 -0.965926 0.750000 0.000000 1 4 1.000000
4 25.999946 -36.000039 0.000000 0.000000 0.258819 -0.965926 0.750000 1.000000 1 4 1.000000
4 25.999957 -29.000039 1.875644 0.000000 0.258819 -0.965926 0.833333 1.000000 1 4 1.000000
sb_buggy_tire
4 33.999946 -36.000051 0.000000 0.000000 0.258819 -0.965926 0.750000 0.000000 1 4 1.000000
4 25.999957 -29.000039 1.875644 0.000000 0.258819 -0.965926 0.833333 1.000000 1 4 1.000000
4 33.999957 -29.000051 1.875644 0.000000 0.258819 -0.965926 0.833333 0.000000 1 4 1.000000
sb_buggy_tire
4 33.999946 -36.000051 14.000000 1.000000 -0.000001 0.000000 0.500000 0.500000 1 4 1.000000
4 33.999946 -36.000051 0.000000 1.000000 -0.000001 0.000000 0.500000 0.500000 1 4 1.000000
4 33.999957 -29.000051 1.875644 1.000000 -0.000001 0.000000 0.500000 0.500000 1 4 1.000000
sb_buggy_tire
4 25.999946 -36.000039 14.000000 -1.000000 0.000001 0.000000 0.500000 0.500000 1 4 1.000000
4 25.999957 -29.000039 1.875644 -1.000000 0.000001 0.000000 0.500000 0.500000 1 4 1.000000
4 25.999946 -36.000039 0.000000 -1.000000 0.000001 0.000000 0.500000 0.500000 1 4 1.000000
sb_buggy_tire
4 33.999957 -29.000051 1.875644 0.000001 0.707107 -0.707107 0.833333 0.000000 1 4 1.000000
4 25.999957 -29.000039 1.875644 0.000001 0.707107 -0.707107 0.833333 1.000000 1 4 1.000000
4 25.999964 -23.875684 7.000000 0.000001 0.707107 -0.707107 0.916667 1.000000 1 4 1.000000
sb_buggy_tire
4 33.999957 -29.000051 1.875644 0.000001 0.707107 -0.707107 0.833333 0.000000 1 4 1.000000
4 25.999964 -23.875684 7.000000 0.000001 0.707107 -0.707107 0.916667 1.000000 1 4 1.000000
4 33.999964 -23.875695 7.000000 0.000001 0.707107 -0.707107 0.916667 0.000000 1 4 1.000000
sb_buggy_tire
4 33.999946 -36.000051 14.000000 1.000000 -0.000001 0.000000 0.500000 0.500000 1 4 1.000000
4 33.999957 -29.000051 1.875644 1.000000 -0.000001 0.000000 0.500000 0.500000 1 4 1.000000
4 33.999964 -23.875695 7.000000 1.000000 -0.000001 0.000000 0.500000 0.500000 1 4 1.000000
sb_buggy_tire
4 25.999946 -36.000039 14.000000 -1.000000 0.000001 0.000000 0.500000 0.500000 1 4 1.000000
4 25.999964 -23.875684 7.000000 -1.000000 0.000001 0.000000 0.500000 0.500000 1 4 1.000000
4 25.999957 -29.000039 1.875644 -1.000000 0.000001 0.000000 0.500000 0.500000 1 4 1.000000
sb_buggy_tire
4 33.999964 -23.875695 7.000000 0.000001 0.965926 -0.258819 0.916667 0.000000 1 4 1.000000
4 25.999964 -23.875684 7.000000 0.000001 0.965926 -0.258819 0.916667 1.000000 1 4 1.000000
4 25.999967 -22.000039 14.000000 0.000001 0.965926 -0.258819 1.000000 1.000000 1 4 1.000000
sb_buggy_tire
4 33.999964 -23.875695 7.000000 0.000001 0.965926 -0.258819 0.916667 0.000000 1 4 1.000000
4 25.999967 -22.000039 14.000000 0.000001 0.965926 -0.258819 1.000000 1.000000 1 4 1.000000
4 33.999967 -22.000051 14.000000 0.000001 0.965926 -0.258819 1.000000 0.000000 1 4 1.000000
sb_buggy_tire
4 33.999946 -36.000051 14.000000 1.000000 -0.000001 0.000000 0.500000 0.500000 1 4 1.000000
4 33.999964 -23.875695 7.000000 1.000000 -0.000001 0.000000 0.500000 0.500000 1 4 1.000000
4 33.999967 -22.000051 14.000000 1.000000 -0.000001 0.000000 0.500000 0.500000 1 4 1.000000
sb_buggy_tire
4 25.999946 -36.000039 14.000000 -1.000000 0.000001 0.000000 0.500000 0.500000 1 4 1.000000
4 25.999967 -22.000039 14.000000 -1.000000 0.000001 0.000000 0.500000 0.500000 1 4 1.000000
4 25.999964 -23.875684 7.000000 -1.000000 0.000001 0.000000 0.500000 0.500000 1 4 1.000000
end
