version 1
nodes
0 "body" -1
1 "wheel_fl" 0
2 "wheel_fr" 0
3 "wheel_rl" 0
4 "wheel_rr" 0
end
skeleton
time 0
0 0.000000 0.000000 0.000000 0.000000 0.000000 1.570795
1 38.000000 30.000000 14.000000 0.000000 0.000000 0.000000
2 38.000000 -30.000000 14.000000 0.000000 0.000000 0.000000
3 -36.000000 30.000000 14.000000 0.000000 0.000000 0.000000
4 -36.000000 -30.000000 14.000000 0.000000 0.000000 0.000000
end
triangles
phy
0 -25.999999 49.999999 30.000003 0.000000 0.447214 0.894427 0 0 1 0 1
0 -22.000002 18.000003 45.999997 0.000000 0.447214 0.894427 0 0 1 0 1
0 21.999997 18.000003 45.999997 0.000000 0.447214 0.894427 0 0 1 0 1
phy
0 -25.999999 49.999999 30.000003 -0.970143 0.000000 0.242536 0 0 1 0 1
0 -25.999999 -49.999999 30.000003 -0.970143 0.000000 0.242536 0 0 1 0 1
0 -22.000002 -21.999999 45.999997 -0.970143 0.000000 0.242536 0 0 1 0 1
phy
0 -25.999999 49.999999 30.000003 -0.970143 0.000000 0.242536 0 0 1 0 1
0 -22.000002 -21.999999 45.999997 -0.970143 0.000000 0.242536 0 0 1 0 1
0 -22.000002 18.000003 45.999997 -0.970143 0.000000 0.242536 0 0 1 0 1
phy
0 -25.999999 -49.999999 12.000000 -1.000000 0.000000 0.000000 0 0 1 0 1
0 -25.999999 -49.999999 30.000003 -1.000000 0.000000 0.000000 0 0 1 0 1
0 -25.999999 49.999999 30.000003 -1.000000 0.000000 0.000000 0 0 1 0 1
phy
0 -25.999999 -49.999999 12.000000 -1.000000 0.000000 0.000000 0 0 1 0 1
0 -25.999999 49.999999 30.000003 -1.000000 0.000000 0.000000 0 0 1 0 1
0 -25.999999 49.999999 12.000000 -1.000000 0.000000 0.000000 0 0 1 0 1
phy
0 25.999999 49.999999 12.000000 0.000000 0.000000 -1.000000 0 0 1 0 1
0 25.999999 -49.999999 12.000000 0.000000 0.000000 -1.000000 0 0 1 0 1
0 -25.999999 -49.999999 12.000000 0.000000 0.000000 -1.000000 0 0 1 0 1
phy
0 25.999999 49.999999 12.000000 0.000000 0.000000 -1.000000 0 0 1 0 1
0 -25.999999 -49.999999 12.000000 0.000000 0.000000 -1.000000 0 0 1 0 1
0 -25.999999 49.999999 12.000000 0.000000 0.000000 -1.000000 0 0 1 0 1
phy
0 21.999997 -21.999999 45.999997 0.000000 -0.496139 0.868243 0 0 1 0 1
0 -22.000002 -21.999999 45.999997 0.000000 -0.496139 0.868243 0 0 1 0 1
0 -25.999999 -49.999999 30.000003 0.000000 -0.496139 0.868243 0 0 1 0 1
phy
0 21.999997 -21.999999 45.999997 0.000000 0.000000 1.000000 0 0 1 0 1
0 21.999997 18.000003 45.999997 0.000000 0.000000 1.000000 0 0 1 0 1
0 -22.000002 18.000003 45.999997 0.000000 0.000000 1.000000 0 0 1 0 1
phy
0 21.999997 -21.999999 45.999997 0.000000 0.000000 1.000000 0 0 1 0 1
0 -22.000002 18.000003 45.999997 0.000000 0.000000 1.000000 0 0 1 0 1
0 -22.000002 -21.999999 45.999997 0.000000 0.000000 1.000000 0 0 1 0 1
phy
0 25.999999 49.999999 30.000001 0.000000 1.000000 0.000000 0 0 1 0 1
0 25.999999 49.999999 12.000000 0.000000 1.000000 0.000000 0 0 1 0 1
0 -25.999999 49.999999 12.000000 0.000000 1.000000 0.000000 0 0 1 0 1
phy
0 25.999999 49.999999 30.000001 0.000000 1.000000 0.000000 0 0 1 0 1
0 -25.999999 49.999999 12.000000 0.000000 1.000000 0.000000 0 0 1 0 1
0 -25.999999 49.999999 30.000003 0.000000 1.000000 0.000000 0 0 1 0 1
phy
0 25.999999 49.999999 30.000001 0.000000 0.447214 0.894427 0 0 1 0 1
0 -25.999999 49.999999 30.000003 0.000000 0.447214 0.894427 0 0 1 0 1
0 21.999997 18.000003 45.999997 0.000000 0.447214 0.894427 0 0 1 0 1
phy
0 25.999999 -49.999999 30.000001 0.000000 -0.496139 0.868243 0 0 1 0 1
0 21.999997 -21.999999 45.999997 0.000000 -0.496139 0.868243 0 0 1 0 1
0 -25.999999 -49.999999 30.000003 0.000000 -0.496139 0.868243 0 0 1 0 1
phy
0 25.999999 -49.999999 30.000001 0.000000 -1.000000 0.000000 0 0 1 0 1
0 -25.999999 -49.999999 30.000003 0.000000 -1.000000 0.000000 0 0 1 0 1
0 -25.999999 -49.999999 12.000000 0.000000 -1.000000 0.000000 0 0 1 0 1
phy
0 25.999999 -49.999999 30.000001 0.000000 -1.000000 0.000000 0 0 1 0 1
0 -25.999999 -49.999999 12.000000 0.000000 -1.000000 0.000000 0 0 1 0 1
0 25.999999 -49.999999 12.000000 0.000000 -1.000000 0.000000 0 0 1 0 1
phy
0 25.999999 -49.999999 30.000001 1.000000 0.000000 0.000000 0 0 1 0 1
0 25.999999 -49.999999 12.000000 1.000000 0.000000 0.000000 0 0 1 0 1
0 25.999999 49.999999 12.000000 1.000000 0.000000 0.000000 0 0 1 0 1
phy
0 25.999999 -49.999999 30.000001 1.000000 0.000000 0.000000 0 0 1 0 1
0 25.999999 49.999999 12.000000 1.000000 0.000000 0.000000 0 0 1 0 1
0 25.999999 49.999999 30.000001 1.000000 0.000000 0.000000 0 0 1 0 1
phy
0 25.999999 -49.999999 30.000001 0.970142 0.000000 0.242536 0 0 1 0 1
0 25.999999 49.999999 30.000001 0.970142 0.000000 0.242536 0 0 1 0 1
0 21.999997 18.000003 45.999997 0.970142 0.000000 0.242536 0 0 1 0 1
phy
0 25.999999 -49.999999 30.000001 0.970142 0.000000 0.242536 0 0 1 0 1
0 21.999997 18.000003 45.999997 0.970142 0.000000 0.242536 0 0 1 0 1
0 21.999997 -21.999999 45.999997 0.970142 0.000000 0.242536 0 0 1 0 1
end
