version 1
nodes
0 "static_prop" -1
end
skeleton
time 0
0 0.000000 0.000000 0.000000 0.000000 0.000000 0.000000
end
triangles
phy
0 16.000000 -16.000000 32.000000 0.000000 -1.000000 0.000000 0 0 1 0 1
0 -16.000000 -16.000000 32.000000 0.000000 -1.000000 0.000000 0 0 1 0 1
0 -16.000000 -16.000000 0.000000 0.000000 -1.000000 0.000000 0 0 1 0 1
phy
0 16.000000 -16.000000 32.000000 0.000000 -1.000000 0.000000 0 0 1 0 1
0 -16.000000 -16.000000 0.000000 0.000000 -1.000000 0.000000 0 0 1 0 1
0 16.000000 -16.000000 0.000000 0.000000 -1.000000 0.000000 0 0 1 0 1
phy
0 -16.000000 16.000000 0.000000 0.000000 0.000000 -1.000000 0 0 1 0 1
0 16.000000 16.000000 0.000000 0.000000 0.000000 -1.000000 0 0 1 0 1
0 16.000000 -16.000000 0.000000 0.000000 0.000000 -1.000000 0 0 1 0 1
phy
0 -16.000000 16.000000 0.000000 0.000000 0.000000 -1.000000 0 0 1 0 1
0 16.000000 -16.000000 0.000000 0.000000 0.000000 -1.000000 0 0 1 0 1
0 -16.000000 -16.000000 0.000000 0.000000 0.000000 -1.000000 0 0 1 0 1
phy
0 -16.000000 16.000000 32.000000 -1.000000 0.000000 0.000000 0 0 1 0 1
0 -16.000000 16.000000 0.000000 -1.000000 0.000000 0.000000 0 0 1 0 1
0 -16.000000 -16.000000 0.000000 -1.000000 0.000000 0.000000 0 0 1 0 1
phy
0 -16.000000 16.000000 32.000000 -1.000000 0.000000 0.000000 0 0 1 0 1
0 -16.000000 -16.000000 0.000000 -1.000000 0.000000 0.000000 0 0 1 0 1
0 -16.000000 -16.000000 32.000000 -1.000000 0.000000 0.000000 0 0 1 0 1
phy
0 16.000000 16.000000 32.000000 0.000000 0.000000 1.000000 0 0 1 0 1
0 -16.000000 16.000000 32.000000 0.000000 0.000000 1.000000 0 0 1 0 1
0 -16.000000 -16.000000 32.000000 0.000000 0.000000 1.000000 0 0 1 0 1
phy
0 16.000000 16.000000 32.000000 0.000000 0.000000 1.000000 0 0 1 0 1
0 -16.000000 -16.000000 32.000000 0.000000 0.000000 1.000000 0 0 1 0 1
0 16.000000 -16.000000 32.000000 0.000000 0.000000 1.000000 0 0 1 0 1
phy
0 16.000000 16.000000 32.000000 1.000000 0.000000 0.000000 0 0 1 0 1
0 16.000000 -16.000000 32.000000 1.000000 0.000000 0.000000 0 0 1 0 1
0 16.000000 -16.000000 0.000000 1.000000 0.000000 0.000000 0 0 1 0 1
phy
0 16.000000 16.000000 32.000000 1.000000 0.000000 0.000000 0 0 1 0 1
0 16.000000 -16.000000 0.000000 1.000000 0.000000 0.000000 0 0 1 0 1
0 16.000000 16.000000 0.000000 1.000000 0.000000 0.000000 0 0 1 0 1
phy
0 16.000000 16.000000 32.000000 0.000000 1.000000 0.000000 0 0 1 0 1
0 16.000000 16.000000 0.000000 0.000000 1.000000 0.000000 0 0 1 0 1
0 -16.000000 16.000000 0.000000 0.000000 1.000000 0.000000 0 0 1 0 1
phy
0 16.000000 16.000000 32.000000 0.000000 1.000000 0.000000 0 0 1 0 1
0 -16.000000 16.000000 0.000000 0.000000 1.000000 0.000000 0 0 1 0 1
0 -16.000000 16.000000 32.000000 0.000000 1.000000 0.000000 0 0 1 0 1
end
