version 1
nodes
0 "static_prop" -1
end
skeleton
time 0
0 0.000000 0.000000 0.000000 0.000000 0.000000 0.000000
end
triangles
crate
0 -16.000000 -16.000000 0.000000 0.000000 0.000000 -1.000000 0.000000 0.000000 1 0 1.000000
0 -16.000000 16.000000 0.000000 0.000000 0.000000 -1.000000 1.000000 0.000000 1 0 1.000000
0 16.000000 16.000000 0.000000 0.000000 0.000000 -1.000000 1.000000 1.000000 1 0 1.000000
crate
0 -16.000000 -16.000000 0.000000 0.000000 0.000000 -1.000000 0.000000 0.000000 1 0 1.000000
0 16.000000 16.000000 0.000000 0.000000 0.000000 -1.000000 1.000000 1.000000 1 0 1.000000
0 16.000000 -16.000000 0.000000 0.000000 0.000000 -1.000000 0.000000 1.000000 1 0 1.000000
crate
0 -16.000000 -16.000000 32.000000 0.000000 0.000000 1.000000 0.000000 0.000000 1 0 1.000000
0 16.000000 -16.000000 32.000000 0.000000 0.000000 1.000000 1.000000 0.000000 1 0 1.000000
0 16.000000 16.000000 32.000000 0.000000 0.000000 1.000000 1.000000 1.000000 1 0 1.000000
crate
0 -16.000000 -16.000000 32.000000 0.000000 0.000000 1.000000 0.000000 0.000000 1 0 1.000000
0 16.000000 16.000000 32.000000 0.000000 0.000000 1.000000 1.000000 1.000000 1 0 1.000000
0 -16.000000 16.000000 32.000000 0.000000 0.000000 1.000000 0.000000 1.000000 1 0 1.000000
crate
0 -16.000000 -16.000000 0.000000 0.000000 -1.000000 0.000000 0.000000 0.000000 1 0 1.000000
0 16.000000 -16.000000 0.000000 0.000000 -1.000000 0.000000 1.000000 0.000000 1 0 1.000000
0 16.000000 -16.000000 32.000000 0.000000 -1.000000 0.000000 1.000000 1.000000 1 0 1.000000
crate
0 -16.000000 -16.000000 0.000000 0.000000 -1.000000 0.000000 0.000000 0.000000 1 0 1.000000
0 16.000000 -16.000000 32.000000 0.000000 -1.000000 0.000000 1.000000 1.000000 1 0 1.000000
0 -16.000000 -16.000000 32.000000 0.000000 -1.000000 0.000000 0.000000 1.000000 1 0 1.000000
crate
0 16.000000 -16.000000 0.000000 1.000000 0.000000 0.000000 0.000000 0.000000 1 0 1.000000
0 16.000000 16.000000 0.000000 1.000000 0.000000 0.000000 1.000000 0.000000 1 0 1.000000
0 16.000000 16.000000 32.000000 1.000000 0.000000 0.000000 1.000000 1.000000 1 0 1.000000
crate
0 16.000000 -16.000000 0.000000 1.000000 0.000000 0.000000 0.000000 0.000000 1 0 1.000000
0 16.000000 16.000000 32.000000 1.000000 0.000000 0.000000 1.000000 1.000000 1 0 1.000000
0 16.000000 -16.000000 32.000000 1.000000 0.000000 0.000000 0.000000 1.000000 1 0 1.000000
crate
0 16.000000 16.000000 0.000000 0.000000 1.000000 0.000000 0.000000 0.000000 1 0 1.000000
0 -16.000000 16.000000 0.000000 0.000000 1.000000 0.000000 1.000000 0.000000 1 0 1.000000
0 -16.000000 16.000000 32.000000 0.000000 1.000000 0.000000 1.000000 1.000000 1 0 1.000000
crate
0 16.000000 16.000000 0.000000 0.000000 1.000000 0.000000 0.000000 0.000000 1 0 1.000000
0 -16.000000 16.000000 32.000000 0.000000 1.000000 0.000000 1.000000 1.000000 1 0 1.000000
0 16.000000 16.000000 32.000000 0.000000 1.000000 0.000000 0.000000 1.000000 1 0 1.000000
crate
0 -16.000000 16.000000 0.000000 -1.000000 0.000000 0.000000 0.000000 0.000000 1 0 1.000000
0 -16.000000 -16.000000 0.000000 -1.000000 0.000000 0.000000 1.000000 0.000000 1 0 1.000000
0 -16.000000 -16.000000 32.000000 -1.000000 0.000000 0.000000 1.000000 1.000000 1 0 1.000000
crate
0 -16.000000 16.000000 0.000000 -1.000000 0.000000 0.000000 0.000000 0.000000 1 0 1.000000
0 -16.000000 -16.000000 32.000000 -1.000000 0.000000 0.000000 1.000000 1.000000 1 0 1.000000
0 -16.000000 16.000000 32.000000 -1.000000 0.000000 0.000000 0.000000 1.000000 1 0 1.000000
end
